<?xml version="1.0" standalone="no"?>
<!DOCTYPE svg PUBLIC "-//W3C//DTD SVG 1.1//EN" "http://www.w3.org/Graphics/SVG/1.1/DTD/svg11.dtd" >
<svg xmlns="http://www.w3.org/2000/svg">
<metadata></metadata>
<defs>
<font id="axure_handwritingregular" horiz-adv-x="1138" >
<font-face units-per-em="2048" ascent="1487" descent="-561" />
<missing-glyph horiz-adv-x="569" />
<glyph unicode="&#xfb01;" horiz-adv-x="1024" d="M-10.5 993.5q-1.5 11.5 2.5 38.5q36 18 84 10.5t74 8.5q8 -3 22.5 -2t20.5 -5q8 35 11.5 95t16.5 110q7 -6 15 5.5t20 11.5q-12 24 -25 22q-7 25 4.5 51.5t12.5 38.5q6 0 13 10t18 7q-17 32 10 70t65 59q8 1 11.5 -3.5t3.5 -11.5q49 21 102 14.5t97 -29t71.5 -66 t26.5 -95.5q-61 7 -100.5 22t-59.5 48q-52 17 -88.5 -19.5t-49 -94.5t-6.5 -115q0 -13 -5 -18.5t-17 -4.5q20 -20 14 -61q4 -2 16 -8.5t16.5 -9.5t13 -10.5t16.5 -17.5q40 18 129 -16q-1 -11 0 -14.5t3 -3t8 2.5t11 1q5 -15 -6 -25t-24 -12q-1 -8 3.5 -17t-3.5 -14 q-30 2 -41.5 -2t-20.5 -22q-18 0 -39 -2t-37 -2t-37 4q-5 -1 -11 -7.5t-11 -7.5q-2 -48 2.5 -124.5t4 -134.5t-14.5 -99q12 -48 16.5 -102.5t4 -86t-6 -109.5t-6.5 -106q12 -22 16.5 -48.5t-3 -56t-29.5 -48.5q-14 14 -31 9t-31 -1q2 18 -2.5 31t-15.5 20.5t-21.5 11 t-27.5 7.5q-21 94 8 196q-17 17 -19 45.5t3 49.5t16 51q-2 4 -7 5.5t-13 1.5t-11 1q18 40 18 107.5t13 82.5q-7 15 -25 15q6 5 7 18t0 25.5t3 22t15 9.5q-35 57 0 185q-8 14 -29.5 8.5t-40.5 -3.5t-14 23q-52 -28 -83 -11q-30 16 -1 55l8 10q-2 4 -10 -2.5t-16 -12.5t-9 -2 q-16 -2 -3 24q-1 -2 -3 -5q-11 13 -12.5 24.5zM690.5 398.5q-0.5 38.5 2 86t9.5 78.5v5q-1 4 -2 10.5t-1 15t1 16.5t3.5 16.5t7.5 14.5q-1 4 -4.5 5t-7 -0.5t-3.5 -4.5q-7 43 6.5 112t8.5 124q22 0 30 14q-7 0 -11 2t-5.5 4t-2 7.5t0 9.5t1.5 11.5t1 12.5q5 1 0.5 11.5 t-8 30t15.5 48.5q4 10 11.5 6.5t5.5 -12.5q6 -1 13.5 3t14.5 3q-1 -9 11.5 -17t30.5 -13.5t36 -6.5q9 -12 6 -30q8 -3 11.5 -0.5t4 7.5t4 7.5t11.5 -0.5q-2 -6 -6 -19.5t-5 -18.5t0 -15.5t5 -22.5q-16 0 -21 -22.5t-18 -22.5q9 -12 10.5 -30t11.5 -23q0 -2 -2.5 -20.5 t-4.5 -36t-4 -37t-1 -31.5t4 -12q0 -10 -5.5 -29.5t-4 -32t17.5 -22.5q-11 -5 -13 -17t-0.5 -24t-5.5 -21t-26 -8q25 2 31 -52q6 -50 -8 -66q-4 -4 -8 -3q-10 -1 -3 -14q10 -16 25 -8q-4 -25 -3.5 -57t-2.5 -55t-16 -48q4 -12 14 -6t16 -2q3 -25 7.5 -60t6.5 -61t3 -64 q-9 -2 -10.5 -10.5t1 -17t-4 -16.5t-25.5 -9q-5 11 -25 -1t-9 -19q1 -1 3 -2q-28 -3 -49.5 4.5t-34 27.5t-20.5 41t-11.5 55t-4.5 59t-1 64q0 34 -2.5 102t-3 106.5zM741 1403q-3 -36 11 -65.5t31.5 -54t19.5 -42.5q23 -9 43 1.5t42.5 27t43.5 18.5q-2 14 7 41t12.5 44.5 t-11.5 43.5q11 -1 14.5 7.5t4 21t4.5 16.5q-18 11 -50 27q3 -23 -6 -22q-5 1 -36 27q-15 14 -23 15q-8 -2 -31.5 -6t-44.5 -8q-1 -8 -10 -32t-8 -37.5t18 -16.5q-18 3 -31 -6z" />
<glyph unicode="&#xfb02;" horiz-adv-x="1024" d="M-10.5 993.5q-1.5 11.5 2.5 38.5q36 18 84 10.5t74 8.5q8 -3 22.5 -2t20.5 -5q8 35 11.5 95t16.5 110q7 -6 15 5.5t20 11.5q-12 24 -25 22q-7 25 4.5 51.5t12.5 38.5q6 0 13 10t18 7q-17 32 10 70t65 59q8 1 11.5 -3.5t3.5 -11.5q49 21 102 14.5t97 -29t71.5 -66 t26.5 -95.5q-61 7 -100.5 22t-59.5 48q-52 17 -88.5 -19.5t-49 -94.5t-6.5 -115q0 -13 -5 -18.5t-17 -4.5q20 -20 14 -61q4 -2 16 -8.5t16.5 -9.5t13 -10.5t16.5 -17.5q40 18 129 -16q-1 -11 0 -14.5t3 -3t8 2.5t11 1q5 -15 -6 -25t-24 -12q-1 -8 3.5 -17t-3.5 -14 q-30 2 -41.5 -2t-20.5 -22q-18 0 -39 -2t-37 -2t-37 4q-5 -1 -11 -7.5t-11 -7.5q-2 -48 2.5 -124.5t4 -134.5t-14.5 -99q12 -48 16.5 -102.5t4 -86t-6 -109.5t-6.5 -106q12 -22 16.5 -48.5t-3 -56t-29.5 -48.5q-14 14 -31 9t-31 -1q2 18 -2.5 31t-15.5 20.5t-21.5 11 t-27.5 7.5q-21 94 8 196q-17 17 -19 45.5t3 49.5t16 51q-2 4 -7 5.5t-13 1.5t-11 1q18 40 18 107.5t13 82.5q-7 15 -25 15q6 5 7 18t0 25.5t3 22t15 9.5q-35 57 0 185q-8 14 -29.5 8.5t-40.5 -3.5t-14 23q-52 -28 -83 -11q-30 16 -1 55l8 10q-2 4 -10 -2.5t-16 -12.5t-9 -2 q-16 -2 -3 24q-1 -2 -3 -5q-11 13 -12.5 24.5zM682 53q8 -17 17.5 -20.5t21.5 1.5t14 5q7 -18 1.5 -30.5t-0.5 -25t30 -22.5q59 33 61 0q33 20 51 67.5t11 69.5q-13 16 -10.5 37t12 39.5t16.5 18.5q7 70 5.5 97.5t0 55t11.5 66.5q-5 25 -14.5 160t-14.5 151q29 19 24.5 64 t-24.5 59q7 8 12.5 21.5t9.5 22t9 9.5q5 22 -0.5 46t-13 39.5t-8.5 35t14 31.5q-1 23 -6 56.5t-6 48t3 56.5q-12 0 -16 19q17 10 15 24t-6.5 24t16.5 24q-4 12 -9 18.5t-8.5 7t-4.5 4t2 9t13 22.5q-9 24 0 50.5t0 55.5q-9 0 -17.5 14t-6.5 25q-5 8 -9.5 11.5t-7 2.5t-5.5 -1 q-2 -1 -1 2q-9 10 -25.5 15t-19.5 7q-6 0 -9.5 0.5t-7.5 -3.5t-6 -7t-4.5 -9t-3.5 -9.5t-2.5 -9t-1.5 -7.5q19 -5 21 -12q-23 -5 -31 -39t-2.5 -71t19.5 -54q-23 -14 -30.5 -48.5t-5.5 -74.5t1 -43q10 -1 11.5 -15.5t-4.5 -39t-10 -38.5t-10 -30q2 -1 6.5 -1h7.5t5.5 -2 t3.5 -5q-23 -22 -22.5 -75.5t22.5 -84.5q-18 -16 -21 -34.5t2 -46.5t5 -39q-8 -396 -54 -603q36 -27 -16 -92z" />
<glyph horiz-adv-x="0" />
<glyph horiz-adv-x="682" />
<glyph unicode=" "  horiz-adv-x="569" />
<glyph unicode="&#x09;" horiz-adv-x="569" />
<glyph unicode="&#xa0;" horiz-adv-x="569" />
<glyph unicode="!" horiz-adv-x="569" d="M118.5 1407.5q0.5 2.5 0.5 9.5t3.5 11.5t8.5 11t12 14.5q-6 3 -10.5 15.5t-1.5 17.5q3 4 6.5 18.5t7.5 18.5q18 -6 39 -15q2 1 6.5 4.5t6.5 4.5q4 -4 12 -12.5t12 -12.5q16 -8 61.5 -7.5t53.5 -2.5q40 -98 53 -204.5t6.5 -183.5t-15.5 -182.5t-7 -175.5q0 -15 -2.5 -69 t2 -89t22.5 -65q-5 -7 -8.5 -13t-5.5 -10t-3 -12t-1.5 -11.5t-1.5 -15.5t-2 -18q-12 -8 -29.5 -15t-28 -12t-10.5 -10q-2 4 -4.5 7t-4 6t-4 4.5t-3.5 3t-4 2.5l-4.5 1.5t-6 1.5t-6 1t-7.5 1t-9 1q-2 4 -8.5 16.5t-10 18t-9.5 14.5t-12 14.5t-13 10.5q12 65 5 223t-5 188v4 q-9 59 -4 82l-7 11q-8 12 -14.5 25t-4 29.5t20.5 27.5q-1 5 -15.5 9.5t-22.5 4.5q18 57 -7 94q7 1 14.5 -1.5t10.5 -2.5v18q-54 46 -14 80q0 14 -8 26t-19 9q3 7 10 11.5t8 11.5q-3 5 -10.5 18t-9 16t-5.5 12t-3.5 11.5zM190 143q5 -37 10 -61t18 -56.5t30 -50.5t47.5 -28.5 t69.5 -3.5q78 75 75 196q-33 62 -73.5 91.5t-100.5 13.5q4 -12 -7 -17t-24 -2.5t-14 6.5q-7 -21 -6.5 -30.5t14.5 -20.5q-14 -1 -25.5 -18t-13.5 -19z" />
<glyph unicode="&#x22;" horiz-adv-x="727" d="M80 1477q63 7 131.5 -18.5t87.5 -74.5q6 -72 -8 -210.5t4 -188.5q-2 -14 -24 -26t-21 -33q-52 16 -87 50t-50.5 77.5t-24 96.5t-7.5 108t0 111.5t-1 107.5zM418.5 1171.5q2.5 57.5 4.5 127t-1 135.5q81 8 223 -52q7 -21 3 -42t-2 -39.5t18 -22.5q-29 -48 -76 -301 q-1 -8 -11 -19.5t-4 -31.5q-14 -14 -33.5 3t-19.5 40q-4 -8 -12 -7t-12.5 4t-6.5 -5q-40 40 -56.5 96.5t-14 114z" />
<glyph unicode="#" d="M-29.5 516q3.5 11 15 31t12.5 33q28 15 53.5 17t40.5 -3t35 0.5t41 28.5q30 -11 54.5 -11t44 12t27.5 45t1 85q0 4 -7 16.5t-7 17.5q-92 -38 -140.5 1.5t-50.5 132.5q6 6 14 22q35 7 92 15t113 22q22 86 42 280t26 232q64 38 108 -3t52 -126q-6 -12 -13 -47t-7 -72 t13 -43q-52 -46 -49 -207q38 -1 114.5 11.5t100.5 13.5q30 30 35 37q0 7 -8 13t-6 17q10 21 11.5 72.5t0.5 105.5t2 105.5t21 82t53 26.5q24 -3 50.5 -38.5t43.5 -45.5q-3 -42 -5 -158t-9 -164q16 4 17.5 2.5t8.5 -18.5q2 6 11.5 6t17 2.5t4.5 15.5q30 -13 64.5 -6t57.5 12 t69 -18q-3 -29 10 -39.5t32.5 -17t24.5 -21.5q-14 9 -18 -6.5t-17 -9.5q2 -2 -3 -23t-3 -22q-39 -20 -134 -31.5t-138 -26.5q6 -18 -5 -95.5t-7 -96.5q9 -18 52 0t48 4q20 17 40 18t40 -12.5t35 -28.5t36 -38.5t33 -34.5q1 -5 -0.5 -8.5t-5 -6t-5.5 -3.5t-7.5 -2.5 t-7.5 -2.5q17 -13 13.5 -24t-15 -16.5t-22.5 -17t-9 -26.5q-25 -7 -58 -3t-62.5 12.5t-58.5 7.5t-44 -19q-22 -26 -41 -184q-9 -92 -9 -189q0 -14 1.5 -42t1 -43.5t-3.5 -37t-13 -38t-27 -29.5q-19 -2 -49.5 12t-50.5 4q-28 53 -36 116.5t-2.5 116t12 129.5t2.5 138 q-3 12 -16.5 23.5t-16.5 15.5q-24 -5 -63 -6.5t-66.5 -8t-50.5 -24.5q-4 -34 -6.5 -113.5t-6.5 -131.5t-25 -106t-59 -75q-4 2 -2.5 8.5t4.5 8.5q-1 10 -7.5 5.5t-14.5 -2.5t-10 21q-3 -3 -4 -7t-1.5 -9.5t-1.5 -7.5q-4 1 -8 5.5t-5.5 5t-10.5 -2.5q-30 22 -40 70t-4.5 100 t7 110t-5.5 99q-24 -3 -39.5 -1.5t-29.5 -3t-25 -18.5q-71 -9 -109 12t-70 80q-10 26 -6.5 37zM428 606q177 0 268 35q12 26 19 103.5t-2 107.5q-21 9 -60.5 6t-69 -9.5t-64.5 -15t-48 -10.5q-15 -20 -31.5 -105.5t-11.5 -111.5z" />
<glyph unicode="$" d="M23 375q9 4 40 7.5t45.5 14.5t8.5 37q19 3 34.5 -7.5t23 -17t30.5 6.5q61 -74 12 -117q7 -11 17 -28.5t15 -25.5t15.5 -20t24.5 -22q26 3 44.5 -8.5t37 -28t39.5 -21.5q39 23 84 9q27 35 32 88.5t-4 103t-12.5 105t6.5 92.5q-8 12 -12.5 22.5t-6.5 24t-2.5 22.5 t-0.5 29.5v34.5q-22 27 -73 40.5t-97.5 29t-63.5 49.5q-45 18 -75.5 56.5t-43 85t-12 96t13.5 95.5q10 0 13 5t1 11t-4 13t-1 10q3 12 31.5 39t35.5 41q3 4 -1.5 15.5t1.5 15.5q18 18 54 33t67 23.5t56 26.5t28 44q22 -2 39 8q-5 32 7.5 86.5t6.5 79.5q78 32 137 0 q11 -20 18 -50.5t11 -52.5t13.5 -42t30.5 -28t56 -1q15 -8 29.5 -17t26 -16.5t26.5 -17.5t23.5 -16.5t24.5 -18.5t22.5 -17t24 -19t23 -18.5t25 -20.5t25.5 -21q1 -10 10 -32t7 -40q-26 -26 -51.5 -30t-46 9.5t-44 33.5t-46.5 42.5t-52 37t-61 16.5t-74 -19q-8 -75 6 -149 t33.5 -146.5t21.5 -126.5q44 -4 83.5 -31t80.5 -28q-2 -9 8 -16t23 -11t22.5 -11t6.5 -17q82 -23 123.5 -89.5t64.5 -177.5q-10 -9 -21 -45.5t-32 -40.5q3 -67 -38.5 -129.5t-101.5 -105t-135 -74.5q-23 -24 -20 -80t8.5 -99t-25.5 -83q-27 -8 -61.5 3.5t-67.5 4.5 q-6 22 -28 52.5t-35 60t-4 61.5q-53 -17 -114 -0.5t-126 46t-102 34.5q-76 56 -132 154.5t-50 177.5zM290 1022q9 -45 44 -83t80 -62t71 -19q9 64 -1.5 173t-28.5 167q-21 -2 -36 -6t-29.5 -16t-20 -17t-22.5 -27.5t-21 -27.5q-45 -37 -36 -82zM682 606q-1 -16 7 -31t9 -18 q-10 -27 6 -88.5t11 -108.5q9 -3 8.5 -39t13.5 -36q-4 -1 -6 -10.5t-2.5 -22t-1.5 -14.5q22 6 37 -9q14 27 50 54.5t67 31.5q5 20 18 50.5t21 51t6.5 51.5t-17.5 62q-18 2 -49.5 22.5t-57.5 38.5t-60.5 26.5t-59.5 -11.5z" />
<glyph unicode="%" horiz-adv-x="1820" d="M84 934q14 18 16 45t-1 49t3 49q6 1 12.5 -3.5t10.5 -4.5q-2 2 -5 12t-9 11q5 21 22 8q-1 18 2.5 28t10 21.5t10.5 26.5q22 13 29 28.5t8 39t6 36.5q7 1 15 -3.5t15 -4.5q-8 12 -1 20t18.5 12t17.5 13t-4 24q15 2 65 12t72 9q-7 7 -24 14q10 1 29.5 15.5t31.5 29.5 q7 -1 11 -5.5t7.5 -13.5t4.5 -11q12 12 27.5 7t33.5 9q3 -15 -5 -25t-9 -14q12 -1 20.5 2.5t12.5 8t10.5 14.5t9.5 14q6 -1 6 -23q42 1 73.5 -14t58 -30.5t53.5 -16.5q5 11 24.5 14.5t43 2.5t45 -0.5t32.5 9.5t4 29q45 -18 88.5 -10t74 26t67 30t67.5 1q5 4 7.5 10t3 10 t2 6.5t5.5 -0.5t13 -11q1 14 11.5 20t28.5 9.5t27 9.5q4 2 31.5 31t52.5 28q11 0 27 -15.5t41 -13.5q5 -5 7 -20.5t8.5 -23t23.5 -3.5q1 -23 -0.5 -37.5t-11 -26.5t-27.5 -12q16 -17 7 -29.5t-19.5 -33.5t-1.5 -35q-23 4 -44.5 -13.5t-35 -41t-31.5 -45t-35 -23.5v-37 q-37 -17 -64 -57.5t-53 -84t-57 -64.5q-10 -21 -40 -83t-43.5 -92t-35 -82t-36.5 -98t-27 -94q-8 -28 -27.5 -92.5t-32 -114t-18.5 -98.5q5 -9 10.5 -15.5t13 -10.5t12 -6.5t16 -4t17 -1.5t22 -0.5t24.5 -0.5q1 -13 13 -35.5t15 -32.5q4 -7 -2 -15.5t-5.5 -17t18.5 -20.5 q-36 -18 -66 -46.5t-55.5 -44t-69.5 -15.5q-10 14 -19.5 17t-23.5 -1t-20 -4q1 15 -3.5 23.5t-3.5 15.5q0 8 -7.5 9.5t-14.5 -2.5t-6 -9q-5 7 -6.5 18t-2 15.5t-6 7.5t-18.5 -6q-14 45 -18 97.5t-1 88t11.5 107.5t11.5 108q19 38 37.5 122t42 155.5t61.5 103.5q2 9 -3.5 18 t-2.5 19q3 4 5.5 5t4 0.5t6 -2.5t7.5 -3q8 40 30.5 74t45.5 34q-13 29 2 64.5t41 64.5t54.5 69t37.5 71q-21 14 -80 0t-104.5 -27.5t-77.5 4.5q-27 0 -32.5 -8.5t2.5 -20t7.5 -22t-16.5 -14.5q5 -13 1 -48.5t7 -41.5q-8 -58 -45 -168q-43 -31 -55 4q-45 -68 -114.5 -118 t-146 -72t-154.5 4.5t-132 105.5q11 11 9 23.5t-9 19.5t-14.5 22.5t-8.5 32.5q5 4 8 4.5t7.5 -1.5t7.5 -3q-7 17 -23 14q1 8 5 21t6 20.5t-2 13.5t-17 7zM260 877q4 -15 17.5 -16.5t15.5 -6.5q10 21 21 -4q9 -21 12 -23q6 12 12 15t12 1t18 -4.5t25 -0.5q16 13 88 44.5 t90 55.5q21 36 29 83.5t0.5 91.5t-42 73.5t-91.5 25.5q-8 -33 -53 -63t-72 -10q-6 -12 -30 -51t-33.5 -60.5t-10 -56.5t20.5 -66q-4 0 -15 -14.5t-14 -13.5zM1065 346q40 116 49 146q3 2 7 2t5.5 -0.5t3 1.5t1 6.5t-2.5 14.5q13 7 30.5 15t24 12t15 14t14.5 27 q25 8 49.5 24.5t37.5 26.5t34.5 9.5t50.5 -19.5q28 0 66 24q12 -8 23 -8q1 -5 -4 -9.5t-5 -8.5q6 0 18 4t25 2q-3 -10 14.5 -16.5t14.5 -16.5q98 14 154 -117q3 2 13 -3t13 -5q-3 -6 0 -9.5t8.5 -12.5t6.5 -17q-9 -3 -16.5 -9t-5 -11.5t21.5 -5.5q-4 -11 -2 -18.5t0 -11 t-13 -3.5q14 -8 22 -27.5t1 -32.5q-4 3 -7.5 -0.5t-7.5 -10t-8 -7.5q15 -4 7.5 -23t5.5 -20q-16 -6 -23 -18.5t-14.5 -36.5t-16.5 -41q-20 3 -30 -11q-9 -13 10 -16l-13 -6.5t-12 -6.5t-9.5 -8.5t-4.5 -13t4 -18.5q-23 -14 -40.5 -45.5t-23.5 -38.5q-9 3 -14.5 4t-9.5 1.5 t-7.5 -1t-5 -2.5t-6.5 -5.5t-8 -6.5q1 -6 4.5 -10.5t5.5 -6t9 -4.5t8 -4q4 -15 -5 -20.5t-21.5 -5t-23 -3.5t-9.5 -16q-26 6 -38.5 2.5t-11.5 -29.5q-14 9 -33.5 7.5t-37 -8t-32 -2.5t-17.5 24q-5 0 -11 -8.5t-16 -6.5q1 14 -14 22t-31.5 6t-18.5 -13q-2 3 -6 15 q-16 38 -26 39q-6 1 -11 -9q-6 7 -13.5 23.5t-16.5 27.5t-25 14q8 15 -1.5 31.5t-17.5 27.5t5 34q0 4 -3 5t-9.5 1.5t-8.5 1.5q1 4 2 19t2 20q-14 22 -12.5 49t9.5 48t6.5 46.5t-21.5 46.5zM1224 226.5q1 -43.5 17.5 -81.5t46.5 -73q54 -8 89 6t52 39.5t37 75.5 q35 16 58.5 68t22.5 112.5t-31 95.5q-22 3 -35 1t-25 0.5t-24 12.5q-6 -17 -17.5 -19t-28.5 5.5t-22 7.5q-27 -24 -32.5 -37.5t1.5 -38.5q-55 -41 -82.5 -86t-26.5 -88.5z" />
<glyph unicode="&#x26;" horiz-adv-x="1366" d="M49.5 343q3.5 43 12 78t24.5 81q3 6 6.5 6.5t9 -2.5t7.5 -4q11 107 61 198q30 -3 45 13t18.5 37.5t18 42.5t41.5 26q-9 6 -8 19.5t11 19.5t28 -4q-7 12 -7 23.5t5 21.5t11 18t14.5 18t12.5 17q-116 119 -75 289q9 -2 13 6.5t9 9.5q-18 4 0 36q23 40 60 52q12 4 24 3 q-6 5 -6 10.5t3 10.5t1.5 7.5t-12.5 1.5q11 17 28.5 26t30.5 19t17 35q14 -4 14 -22q11 13 45.5 31.5t46.5 33.5q2 -6 10.5 -7t17 0t14.5 -2t3 -13q8 0 30 4.5t40 1.5q29 -16 85.5 -43.5t80.5 -40.5q6 -17 25 -53t29.5 -65.5t6.5 -55.5q-51 -51 -143.5 -162.5t-145.5 -163.5 q-2 -20 4 -41.5t16 -34t19 -8.5q4 -1 5.5 -5.5t1.5 -13.5t1 -12q33 -26 60 -60.5t44 -64.5t55 -74t91 -85q26 0 39.5 16t25 47.5t19.5 44.5q7 12 33.5 30.5t34.5 29.5q10 14 24.5 55t22.5 51q1 2 11 4.5t11 3.5q3 8 6 48t25 51q0 3 -0.5 7.5t-0.5 8t-0.5 7t-2 5.5t-4.5 2 q8 10 17 7.5t14.5 -10t14 -16.5t15.5 -11q-4 17 14 19q23 4 36 -22q2 -5 4 -12q-12 1 -14.5 -2.5t0.5 -8.5t6 -13.5t0 -14.5q15 16 24 7.5t24 -22t27 -7.5q1 -8 3 -21t2.5 -18.5t-0.5 -15t-5 -21.5q-6 23 -28 6t-31 -6q12 -21 12.5 -33t-3.5 -27t-3 -32q-9 -1 -19 3.5 t-12 4.5q15 -22 11 -47.5t-15 -42.5t-22.5 -39t-10.5 -39q-9 1 -17.5 -3.5t-12.5 3.5q-2 -9 4.5 -18t3.5 -19q-9 3 -15.5 -6t-11.5 -21.5t-18 -19.5t-33 0q-7 -4 -8.5 -19.5t-1 -31.5t-9 -29t-32.5 -12q-4 -29 21.5 -48t50.5 -11q10 -36 30 -59t58 -49t53 -38 q-1 -16 -17 -35t-14 -40q-47 -1 -93 25t-77 57t-61 55.5t-58 19.5t-55 -51q-11 0 -14 8q-9 -14 -22 -27t-32.5 -26.5t-32 -21.5t-36.5 -21.5t-31 -17.5q-152 -84 -205 -54q-3 -3 -10.5 -4.5t-11 -5t-0.5 -12.5q-4 3 -15 4t-17.5 5t-4.5 15q-7 -6 -10 -8.5t-6.5 -9.5 t-8.5 -14q-55 43 -98 38q-11 20 -28 26.5t-50 10.5q-16 54 -45 25q1 18 -8 31t-10 32q-6 -2 -14.5 -10t-8.5 -14q-2 7 -30.5 45t-26.5 78q0 9 -17 -6q-7 -6 -6 -7q-29 34 -42.5 73t-10 82zM287 298q3 -65 28 -130q22 -20 46.5 -31t52.5 -10.5t50.5 3t55 15.5t50.5 21t51 24 q14 28 40.5 49.5t50.5 32.5t48.5 33.5t36.5 54.5q-13 13 -36 23t-41.5 19.5t-45.5 48t-53 106.5q-20 -1 -30.5 9t-18 32.5t-11.5 28.5q-20 -2 -29.5 13t-11.5 35t-12.5 38.5t-30.5 21.5q-44 -53 -76 -98.5t-62 -104.5t-42.5 -114t-9.5 -120zM434 1120q4 -1 12.5 -23 t10.5 -24q13 1 25 -9.5t20 -6.5q-4 7 11 18t23 20.5t-14 28.5q14 -4 26 -2t21 2t17 5.5t13.5 8.5t10.5 10.5l8 12t6 14t5 15t5 15.5t5 16q2 4 14.5 4t14.5 4q3 5 7.5 28t14.5 29q-7 4 -15.5 24t-8.5 31q-26 5 -45 -9.5t-39 -6.5q-17 -15 -49.5 -35t-50 -33.5t-32.5 -48.5 t-16 -88z" />
<glyph unicode="'" horiz-adv-x="391" d="M90.5 1171.5q2.5 57.5 4.5 127t-1 135.5q81 8 223 -52q7 -21 3 -42t-2 -39.5t18 -22.5q-29 -48 -76 -301q-1 -8 -10.5 -19.5t-3.5 -31.5q-14 -14 -33.5 3t-19.5 40q-4 -8 -12 -7t-12.5 4t-6.5 -5q-40 40 -57 96.5t-14.5 114z" />
<glyph unicode="(" horiz-adv-x="681" d="M96 596q1 17 7 52t6.5 51t-3.5 53q11 22 14.5 38.5t6.5 55.5q13 10 28.5 36t22.5 33q-2 47 27 120.5t35 99.5q7 7 13 4t13 4q20 15 33.5 62t17.5 55q5 8 26.5 23.5t25.5 23.5q2 4 1 16.5t1 15.5q3 4 15 7t15 8q4 6 7 27.5t8 27.5q1 2 11.5 8t12.5 8q8 8 31 34.5 t33.5 35.5t33 18t48.5 7q11 -14 43 -37t43 -43q-11 -22 -19 -40t-10.5 -24t-9 -14t-21.5 -23q-7 -3 -13.5 2.5t-6.5 12.5q-39 -24 -78 -91t-59 -83q12 -16 0 -39q-25 -19 -49 -69.5t-49.5 -112t-47.5 -91.5q-3 -15 -15 -97.5t-28 -127.5q6 -182 30 -313t81 -252 q12 -62 65.5 -179.5t69.5 -172.5q9 -2 15 -8.5t9 -17.5t5 -20.5t3.5 -24.5t2.5 -22q-12 -5 -23.5 -22t-20 -30t-28 -21.5t-47.5 2.5q-4 6 -29 44.5t-39.5 63.5t-32.5 68t-24 82q-14 16 -26.5 32.5t-25 39.5t-20 35.5t-20 42.5t-15.5 36.5t-17.5 42.5t-14.5 37 q-40 98 -58 242q-15 166 -10 268z" />
<glyph unicode=")" horiz-adv-x="681" d="M23 1417q6 10 11.5 36.5t18.5 43t43 21.5q26 3 48.5 -6t33.5 -18.5t33.5 -35.5t30.5 -35q2 -2 9.5 -16t17 -32t12.5 -23q3 -6 23 -16.5t22 -12.5l18 -28q18 -28 39.5 -62t50 -88.5t52.5 -109.5t44.5 -123t28.5 -130q3 -39 6.5 -55.5t14.5 -38.5q-5 -31 -4 -37t5 -21.5 t5 -35.5q1 -14 2.5 -39t2.5 -42.5t1.5 -40t0 -37.5t-2.5 -28.5t-6.5 -18.5t-10.5 -3q-3 -28 -5 -66t-4.5 -63t-8.5 -45q-1 -5 -4 -22t-6.5 -33.5t-8.5 -33t-12 -26.5t-16 -8q-11 -29 -31.5 -94.5t-25.5 -79.5q-18 15 -29 -1.5t-21.5 -50t-21.5 -44.5q-6 -39 -24 -82.5 t-31 -67t-39.5 -64.5t-28.5 -44q-42 -13 -79 9.5t-42 64t35 92.5q8 28 43 110q3 8 23 53q53 104 69 189q6 12 19 28t18 29q7 21 17 68t14 61q2 11 7 33t7 33q6 33 24.5 87.5t20.5 119.5q-19 231 -49 370q-51 143 -130.5 255t-139.5 149q0 -6 -14.5 6t-36.5 39.5t-39 60.5z " />
<glyph unicode="*" horiz-adv-x="796" d="M39 1042q0 4 6 8.5t4 12.5q31 -2 76 9.5t55 25.5q5 2 23 5.5t29 7.5t26 11t24.5 19t14.5 28q-129 95 -201 119q-7 7 -20.5 49.5t-28.5 48.5q2 14 0 27q183 -25 266 -137q8 -1 15 6t18 4q6 23 19.5 60.5t20.5 67t5 61.5q1 3 3.5 3.5t4.5 -0.5t2 -3q-7 8 7 42.5t10 45.5 q13 1 61 -27.5t64 -30.5q11 -51 -0.5 -141t-10.5 -98q58 9 76 47q19 -7 41.5 10t40.5 20q11 -16 33.5 -27.5t40 -26.5t24.5 -44q-44 -29 -152.5 -77.5t-139.5 -65.5q6 -12 6 -41q1 -4 25.5 -7t33.5 -3q4 -16 20.5 -35t41.5 -42.5t34 -33.5q66 -78 -59 -102q-3 4 -3.5 5.5 t1 5t2.5 5.5q-5 -5 -17 -2t-22 2q-58 86 -119 84q-9 -15 -15 -31t-8.5 -37.5t-3 -32t0 -38.5t0.5 -33q-18 -18 -47.5 -28t-51.5 -5q-1 6 4 13t3 14q-12 10 -46 10q-14 36 2 123t9 104q-14 0 -47 -8t-61.5 -15t-60.5 -9t-46 10q-3 8 -9 26t-11 27t-13 14z" />
<glyph unicode="+" horiz-adv-x="1196" d="M45 664q14 38 68 62t119.5 41.5t86.5 33.5q32 -14 74.5 -8.5t77.5 24.5q2 12 -4.5 39t-6 48.5t18.5 33.5q8 59 4.5 111.5t5 112.5t35.5 98q-13 8 -13 17t7.5 16t17 17t11.5 17q20 -1 35 -4t34.5 -8.5t36.5 -9.5q28 -42 36 -91.5t1.5 -91t-9.5 -89.5t3 -87q-10 2 -14.5 -3 t-4.5 -16t0.5 -23t-2.5 -26.5t-10 -23.5q47 -10 96.5 -4.5t107.5 8.5t109.5 2.5t103 -23t87.5 -67.5q-33 -65 -124.5 -88.5t-172.5 6.5q-24 -18 -61.5 -30t-62.5 -14l-25 -3q-40 -37 -4 -129q-35 -61 16 -168q-3 -7 -11 -40.5t-23.5 -64t-41.5 -46.5q-35 -11 -65.5 9 t-47.5 58t-26.5 81t-7 82t15.5 58q-13 16 -20 67.5t-33 69.5q-24 -21 -54 -29.5t-52.5 -8t-46.5 -8t-38 -29.5q-23 7 -78 -1.5t-88 -6.5q-17 18 -38 71.5t-23 57.5z" />
<glyph unicode="," horiz-adv-x="569" d="M121.5 97q-1.5 61 34.5 108q9 10 33 25t30 20q14 16 61.5 42t75.5 19q36 -8 54 -51.5t17 -93.5t-1 -98q0 -18 -15.5 -49t-19.5 -44q0 -1 -3 -34t-11 -50q-5 -12 -27 -31t-28 -30q-9 -16 -15 -42.5t-12 -33.5q-6 -8 -15.5 -17.5t-25 -21.5t-31 -19t-34 -7t-33.5 12 q27 34 45 83t23.5 78t15.5 97q-11 5 -24.5 12t-20 10t-17 6.5t-22.5 4.5q-33 44 -34.5 105z" />
<glyph unicode="-" horiz-adv-x="681" d="M39 420q-11 32 1.5 87.5t10.5 70.5q35 31 169.5 40t160.5 17q3 -1 18.5 -6t26.5 -7.5t23 0t16 13.5q20 -4 52.5 -7.5t53 -6t23.5 -5.5q15 -39 41 -32q-2 -21 11 -43t13 -29q0 -16 -5.5 -29t-17 -21t-24 -13.5t-31 -7.5t-32.5 -3.5t-35 0t-32.5 2.5t-30.5 3.5t-23 2.5 q-77 -26 -389 -26z" />
<glyph unicode="." horiz-adv-x="569" d="M141 102q7 15 15 48t14 56t24 37t46 5q13 14 25.5 20.5t30 5t27 -3t35 -10.5t35.5 -12q16 -33 16 -70.5t-9.5 -64.5t-19.5 -59t-11 -50q-15 -6 -46.5 -25t-52.5 -29.5t-48.5 -9t-49.5 24.5q2 16 -3 37t-14.5 50.5t-13.5 49.5z" />
<glyph unicode="/" horiz-adv-x="569" d="M-27 33q21 157 59.5 287t96.5 272q0 12 -9.5 25t-8.5 28q33 -20 37 36q3 34 -1 36q4 13 25.5 32.5t26.5 30.5q5 13 6.5 47.5t5.5 46.5q4 18 21.5 40t21.5 32q3 9 1.5 33t2.5 37q8 24 37 74.5t35 76.5q2 8 3.5 35.5t9.5 44.5t28 29q-1 5 -3 5.5t-4 -1.5t-2 -4 q-4 3 3.5 17.5t18 26t15.5 5.5q-3 36 9.5 64.5t30.5 56t24 51.5q8 3 15 4t13 1.5t13 -1t11 -2.5t11 -5t10 -5.5t10 -7.5t9 -7.5t10.5 -9t9.5 -8.5q4 -60 -12.5 -124t-39 -110.5t-42 -108t-20.5 -114.5q-86 -137 -62 -282q-3 12 -18 -10q-21 -30 -9 -40q2 -2 5 -3 q-5 -16 -29 -19q-2 -32 -12.5 -63t-19 -45.5t-11 -37.5t11.5 -40q-43 -30 -79 -144t-25 -172q-10 2 -13 -12q-1 -9 1 -51q-14 -11 -27 -36t-21.5 -46.5t-24.5 -37.5t-38 -15q-2 1 -45 39t-72 49z" />
<glyph unicode="0" d="M66 649q21 67 41 144t43.5 172.5t37.5 148.5q55 36 62 139q14 1 24 12.5t15 26t18 28.5t33 19q2 39 28.5 64.5t73.5 49.5t66 40q17 1 37.5 -3.5t28 -5t26.5 8.5q5 -2 6 -5.5t-1 -7t-3.5 -7t1 -6t11.5 -3.5q38 19 45 23q8 -3 22 -8.5t21 -7.5t17.5 -4t20 -0.5t20.5 6.5 q44 -60 137 -99q76 -147 160 -430q-1 -4 -3 -4.5t-3.5 1t-1.5 3.5q0 -30 3 -89t3.5 -96.5t-3 -89t-15.5 -99.5t-33 -95q4 -27 -2.5 -56.5t-14.5 -48t-24.5 -48t-20.5 -37.5q-6 -14 -26.5 -74.5t-34.5 -81.5q-3 -5 -15.5 -10.5t-15.5 -9.5q-3 -6 -0.5 -14t-2 -13.5 t-20.5 -1.5q6 -7 3.5 -14.5t-5.5 -12.5t-12 -10t-16 -8.5t-18 -7.5q-3 -1 -5 -2q-29 -33 -68 -48t-91.5 -12t-90 9.5t-100.5 21.5q0 6 -8.5 12.5t-5.5 16.5q-22 -9 -44 5.5t-47.5 42t-39.5 36.5l-13.5 9t-19 13t-20.5 16.5t-17.5 20.5t-9 24.5t3.5 28.5q-4 11 -31 15 q1 34 -14 65t-35 62t-27 55q-9 41 -4 79t0.5 82t-26.5 70zM276 558.5q4 -76.5 27 -134.5q7 -22 0 -55q20 -90 78.5 -162.5t148.5 -118.5q36 -3 76.5 12t61.5 43q3 4 3.5 23.5t4.5 26.5q6 12 16 19.5t14.5 10t3.5 9t-12 18.5q12 4 27.5 20.5t26.5 20.5q11 73 44.5 191.5 t50.5 216t3 182.5q-12 29 -17.5 86.5t-15.5 115t-35 95.5q-9 3 -12 1t-3.5 -7.5t1 -10.5t-0.5 -9t-7 -3q-13 12 -44 31.5t-45.5 40t-15.5 57.5q0 -7 -10.5 -12.5t-17.5 2.5q-10 34 10 57q-19 4 -30.5 4.5t-24 -8t-19.5 -15t-16 -18.5q-56 -11 -94.5 -59.5t-54 -102.5 t-38 -129t-43.5 -116q4 -3 4.5 -6t1.5 -11.5t3 -17.5h-23q-16 -88 -23.5 -149.5t-3.5 -138z" />
<glyph unicode="1" d="M268 1190q16 21 36.5 46t27.5 35.5t18 35.5t23 65q5 4 7.5 5t4 -0.5t6 -3t10.5 -1.5q6 33 21.5 58t25.5 34.5t42.5 31t41.5 28.5q11 -8 41.5 -28t51 -36.5t37.5 -34.5q4 -26 1.5 -57.5t-0.5 -63t13 -38.5q2 -124 -7.5 -346.5t-14 -368.5t7.5 -367q143 -3 172 -96 q-8 -44 -65.5 -81.5t-90.5 -16.5q-18 -3 -53.5 -11.5t-61 -14.5t-61 -10.5t-60.5 -2.5t-52 12.5t-43 31t-26 56.5t-8 86q31 -2 59.5 16t78.5 9q12 44 5 163.5t-1 186.5q2 22 2.5 139t13.5 180q1 7 11.5 19.5t11.5 19.5q4 39 0.5 144t-0.5 160q-19 -8 -34 -22t-23.5 -25.5 t-25.5 -20.5t-42 -10q-42 -1 -62.5 19.5t-38.5 74.5z" />
<glyph unicode="2" d="M25 109q17 22 38.5 65.5t42.5 70.5t52 34q-5 6 -6 20t6.5 23t25.5 0q1 6 -3 14.5t-3 15.5q24 18 47 49.5t38 58.5t40.5 55t56.5 42q14 48 43 91t61.5 77t65 68.5t59.5 79.5t38 96q27 12 45.5 33t15.5 34q37 16 45 17q-3 20 3.5 42.5t14 38t7.5 33.5t-13 33q0 4 10.5 11.5 t16.5 9.5q-6 13 -22 24.5t-31.5 18t-43 16.5t-40.5 16q-8 -16 -22 -16t-26 4.5t-28 -10.5q-9 2 -16.5 7t-7.5 11q-55 -9 -112 -40t-77 -78q-19 -42 -53.5 -76.5t-61.5 -30.5q-5 1 -11 -2.5t-9 -7.5t-2 -4q-10 3 -15 10t-6.5 16t-3.5 11q-6 9 -27 33.5t-29.5 44.5t-2.5 44 q19 21 38.5 54.5t38 50.5t52.5 24q7 0 8.5 7.5t-0.5 16t0 15.5q37 -2 75.5 13t45.5 55q10 0 16 -15t15 -16q4 23 14 26.5t19.5 -2t19.5 6.5q5 -13 16 -19q2 -2 6 -4q5 12 14.5 16.5t18 4t15 4.5t6.5 20q15 -7 41 -12.5t37 -15.5q2 2 3 8t6.5 10t18.5 4q0 -4 8.5 -10.5 t8.5 -9.5q30 7 67 -6.5t66 -34.5t63.5 -44.5t55.5 -31.5q40 -67 43.5 -135.5t-23 -132.5t-60.5 -119.5t-73 -120t-55 -110.5q-30 -15 -55 -46t-40 -61t-40 -61t-56 -45q-3 -31 -32 -72.5t-63 -76.5t-69 -79.5t-47 -79.5q27 -15 115 21.5t119 73.5q11 3 19 -2t9 -11t0 -10 q39 -3 71 2t47 10t37.5 3t51.5 -15q59 24 114.5 27.5t109.5 -18.5t92 -72q-13 2 -22 -14t3 -29q31 -1 11 -35q-21 -35 -63 -56q-17 -9 -32 -10q-16 -1 -38.5 5.5t-37 11.5t-29.5 2t-24 -19q-19 10 -56.5 12t-85 -3t-92.5 -12t-94 -15q-7 -2 -12 -2.5t-10 -1.5 q-53 -9 -139 -40.5t-159 -48t-136 -1.5q-11 22 -32 47t-37 52.5t-23 68.5z" />
<glyph unicode="3" d="M72 1333q36 23 112 61.5t115 67.5q59 -15 100.5 -7.5t92.5 17.5t77 5q12 -3 50.5 -4t52.5 -5q38 -12 72.5 -31t63.5 -50t41.5 -68t3 -87.5t-47.5 -105.5q-12 -43 -84 -114t-92 -107q39 -1 59.5 -3t66 -8.5t79.5 -23t55 -41.5q10 -11 25 -24.5t28.5 -24.5t28 -24t24 -25 t16 -25.5t6 -28.5t-8.5 -30q14 -30 15.5 -69t-5 -71.5t-16 -79t-11.5 -77.5h-26q-12 -74 -60 -149.5t-121.5 -134.5t-159.5 -97t-183 -37.5t-183 45.5q-5 24 -28 46.5t-48.5 38.5t-50.5 41.5t-34.5 54.5t1.5 78q15 1 18 7.5t-1 15t-3.5 19.5t11.5 19q11 11 15.5 13t5.5 -1.5 t4 -8t10 -6.5t24 3q-1 -7 4 -15.5t4 -15.5q15 2 25.5 18.5t20.5 14.5q4 -4 6 -23t16 -32q10 2 15.5 3.5t14 4.5t19.5 6q15 -40 -24 -68q0 -13 11 -28t13 -19q47 -16 93.5 -15.5t76.5 9.5t69 22t62 17q45 38 75 79.5t69 109.5q18 -5 32 14.5t28 61.5t17 48l17 -8 q14 16 10.5 39t-15 41.5t-15.5 39t10 30.5q-3 30 -31 57t-71 42t-91.5 19t-98.5 -12t-85 -51q-34 4 -74 1.5t-68 -1.5q-2 48 -51 84q6 1 8 7.5t-0.5 16.5t-6 21t-6.5 23.5t-3 21.5q16 2 31 6.5t26 9t24.5 15.5t20.5 16.5t20.5 20.5t18 20.5t19 23.5t18.5 23 q92 41 168.5 121.5t87.5 163.5q-23 34 -65 45.5t-80 6.5t-89 -13.5t-75 -7.5q-26 -9 -46.5 -28.5t-44 -35.5t-61.5 -20q14 -26 -8 -76q-76 24 -116 63.5t-35 118.5z" />
<glyph unicode="4" d="M27 676q10 -1 15.5 3t6 12t0 14.5t-3 15.5t-2.5 10q6 14 31 14q0 6 -5.5 21t-2.5 29q30 34 51 86t42 129t36 116q12 -8 22 -8q6 78 24 140.5t54 136.5q2 0 20 -5.5t33 -3.5q-4 -5 31 -31q44 -33 44 -41q1 -4 -7 -5q-4 -12 3 -15.5t17.5 -1.5t18.5 0q-11 -97 -54 -174 q2 -3 5 -11.5t7 -13.5t11 -6q-39 -42 -79 -162.5t-73 -166.5q17 -26 73.5 -31.5t119.5 -8t88 -20.5q16 16 62 11.5t63 1.5q24 72 37 151.5t15.5 167t1 156t-5.5 170t-5 157.5q15 -10 31.5 -17t28 -10.5t33 -9.5t34.5 -10q6 -11 11.5 -40.5t13 -51.5t22.5 -26 q-1 -59 6.5 -165t6 -195.5t-22.5 -172.5q2 -49 7.5 -76.5t23 -54.5t53 -43.5t94.5 -28.5q-4 -18 -8 -31t-10.5 -32t-12.5 -41q-28 0 -69.5 -24.5t-73.5 -14.5q-35 -201 -17 -356q-14 -9 -22 -9q28 -42 9 -114q-16 -60 -47 -71q-13 -4 -24 3q-7 5 -17.5 -6.5t-18.5 -7.5 q-23 27 -38.5 55.5t-23.5 50.5t-11.5 58t-4 56t-0.5 66.5v69.5q0 21 10 87.5t6 86.5q-24 98 -309 58q-19 30 -47.5 31.5t-38.5 -31.5q-30 18 -54 7.5t-66 -25.5t-71 -7q-10 23 -33 62t-34.5 71.5t-9.5 71.5z" />
<glyph unicode="5" d="M82.5 871.5q3.5 45.5 14.5 83.5t28 73q0 14 -1 54t-1 54.5t1 48t3 49t6 41.5t11 41.5t17 34t23 33.5q8 -3 21 -16t26 -20q13 13 38 17.5t44.5 11t24.5 24.5q32 -14 70.5 -9.5t66.5 15.5t64 12.5t65 -18.5q16 3 43.5 16t48.5 15q-1 -2 -4.5 -7t-3.5 -10q20 -6 44 12.5 t32 18.5q4 0 12 -11.5t10 -11.5q10 1 33.5 11.5t44 14.5t68.5 -3q-6 -9 -5.5 -10t6 -4.5t7.5 -8.5q9 10 20.5 11.5t20 -2.5t22.5 -12t21 -11q-9 -8 -5.5 -20t-2.5 -19q6 -3 20 -10.5t24 -14t17 -14.5q-15 -31 -52 -46t-68 -16t-85 1t-69 2q-38 -22 -120.5 -30t-86.5 -9 q-14 -6 -14 -31q-49 24 -96.5 17t-63.5 -48q-55 2 -60.5 1.5t-54.5 -7.5q-24 -27 -28 -84t12 -84q-18 -16 -22.5 -71t20.5 -66q209 108 430 70q-6 -15 23 -27.5t61 -9.5q17 -21 43.5 -32t65 -20.5t59.5 -17.5q2 -11 -7.5 -17.5t-9.5 -12.5q32 -6 53 -34.5t39 -70t31 -57.5 q-10 -12 -11.5 -26.5t5.5 -32t12.5 -28t16.5 -28.5q0 -18 -6.5 -70t-1.5 -81q-28 -22 -31 -93q-9 -2 -19.5 -16t-25.5 -14q-68 -150 -221 -230.5t-328 -72.5q-11 16 -34.5 27t-43.5 16.5t-35.5 19.5t-15.5 35q-24 -3 -43 13.5t-33 17.5q6 18 6 22q-7 6 -20.5 17t-23 19 t-20.5 19.5t-15.5 21t-3.5 21.5t10 23q-2 4 -15 7.5t-22 7.5t-11.5 21t15.5 48q7 -1 18 -7t13 -7q5 13 -2.5 19.5t-2.5 18.5q4 7 20 4t23 -20q6 1 2 12.5t5 18.5q20 -18 48 -21t52 13q11 -33 45 -31q-2 -13 2 -25.5t8 -19.5t2 -15.5t-14 -17.5q26 -55 73 -75t96 -7t95 43.5 t74 71.5q10 3 14 -8q6 12 46.5 40.5t54.5 51.5q5 10 9.5 49t18.5 57q24 34 20 68.5t-36 85.5q-14 14 -25 26.5t-15.5 19t-17.5 25.5t-20 29q-52 2 -98 39q-90 21 -159.5 16.5t-137.5 -42.5q-17 -10 -58.5 -38.5t-75.5 -44.5t-77 -24q-44 38 -69 90t1 101q-15 35 -11.5 80.5z " />
<glyph unicode="6" d="M61.5 751.5q10.5 108.5 40.5 237.5q25 20 43.5 65.5t35.5 86t42 53.5q-7 23 9 42t35 40t18 47q51 17 84 84q10 1 25.5 8t27.5 8q42 52 100.5 67t115 -5t106 -58.5t80 -95.5t30.5 -114q1 -5 13.5 -11t9.5 -20q-14 -6 -16.5 -9.5t1.5 -7t6.5 -12t-2.5 -24.5q-13 3 -42 0 t-46 0q-1 7 2.5 13t3.5 9q-35 11 -52.5 41t-20.5 61t-19 62t-49 43q-5 -2 -33 -14.5t-35.5 -16.5t-28.5 -16t-29 -22t-18.5 -26t-15.5 -34q-38 -15 -63 -52t-47 -84.5t-43 -70.5q8 -12 16 -14q-39 -32 -60 -86.5t-24.5 -104t-10.5 -105.5t-20 -85q3 -8 16 -24t15 -29 q8 9 26.5 40.5t38 47.5t50.5 18q0 7 -4.5 15.5t-3.5 15.5q9 9 42 9q14 0 14 5q0 3 -3 8q1 1 12.5 2.5t18.5 4.5t12 11t-6 21q15 -5 23.5 -6.5t15.5 5.5t10.5 13.5t9 16.5t10.5 16q25 -9 54.5 2.5t38.5 34.5q46 7 116.5 9t96.5 7q8 -1 17.5 -11t12.5 -11q2 1 5 5.5t7 7 t11 1.5q8 -13 37 -27t39 -26l7 9q7 8 15 7q8 -9 30 -35l33 -39t26.5 -35.5t25.5 -43.5q7 -177 -63 -327.5t-203 -244.5v-36q-15 -9 -76.5 -51t-102 -59t-82.5 -13q7 -1 7 1q-1 5 -24 6q-19 1 -28 -7q-68 16 -124.5 48.5t-101.5 81t-77 94.5t-69 112q-2 6 -23 6 q-50 109 -66 232.5t-5.5 232zM383 356q7 -26 19.5 -41.5t33 -20t35.5 -5t44.5 2.5t43.5 3q-1 -5 -2 -12.5t-1.5 -10.5t-0.5 -7.5t1 -7.5t4 -7t7 -8q-20 -3 -36 -16t-25 -26.5t-27 -24t-43 -9.5q0 -14 4 -24.5t8.5 -16t14.5 -9.5t16 -5t19 -2.5t18 -2.5q11 5 16.5 15t18.5 14 q7 -4 8 -10.5t4 -10t17 -3.5q9 -3 13.5 1.5t5 11.5t3 13.5t8.5 5.5q0 -4 8.5 -9t14.5 -5q68 34 119.5 101t72.5 157q15 -1 26 14t19 17q4 11 16 41.5t19 50.5t16 50t9 50t-5 40t-22.5 30.5t-46.5 11.5q1 6 -1.5 10t-7.5 7t-7 6q-84 -4 -163.5 -38t-138 -85.5t-99 -113 t-56.5 -122.5z" />
<glyph unicode="7" d="M98 1454q37 -18 85.5 -27t82.5 -28q9 4 -1.5 14t1.5 17q30 -23 76 -23q4 1 5 4.5t1.5 10t1.5 8.5q12 -17 19 -8l8 12l2 4q12 -1 16 -3.5t4 -5t3 -9t10 -13.5q2 1 8.5 4t8.5 4.5t5.5 8t-0.5 14.5q15 3 31.5 -3.5t30.5 -4.5q0 -5 -5 -14t-4 -17q25 6 54 39q9 -5 53 -15 q21 37 76 48t98 -17q8 15 27 15h40.5t32.5 14q8 0 9.5 -13.5t5.5 -15.5q19 17 33.5 14t37 -8t35.5 0q5 -27 24 -55t41 -53t27 -35q-1 -16 -8.5 -32.5t-16 -28.5t-26 -29t-27.5 -25t-31.5 -25t-27.5 -22q-38 -71 -105 -170t-118 -172t-97.5 -168.5t-60.5 -181.5 q-31 -24 -47 -68t-32 -87t-50 -66q18 -53 23 -84q-3 -6 -6.5 -6t-8.5 3t-8 3q14 -207 -53 -228v29q-5 -7 -11.5 -7t-13 4.5t-11 2.5t-3.5 -14q-6 -1 -7.5 4t-0.5 10.5t-2.5 8.5t-12.5 -1q-5 -1 -3 -5t7 -8.5t3 -9.5t-15 -7q-5 2 -9.5 6.5t-8 12t-6 14t-6.5 18.5t-7 18 q-6 1 -7.5 -4t-0.5 -10.5t-2.5 -8.5t-13.5 1q7 11 2 44t-31 38q12 163 111 407q13 31 43.5 133.5t50.5 136.5q4 6 25 32t22 30q13 40 51 93.5t64.5 97.5t21.5 77q35 4 72 41t73 86.5t52 63.5q-2 5 -38.5 2t-37.5 2q-7 -2 -15 -7t-12.5 -7.5t-9 -3.5t-6.5 3.5t-2 14.5 q-28 -15 -103.5 -24t-103.5 -27q-22 17 -46 19t-59.5 -2t-62.5 -1q-10 -4 -3.5 -14.5t-2.5 -16.5q-57 -19 -153 -4q16 21 1.5 49t-3.5 53q-5 0 -11 -6.5t-10.5 -12t-10.5 -4t-12 14.5q-14 118 -8 162z" />
<glyph unicode="8" d="M65 1024q5 58 29 115q6 14 29 14q5 8 2 22.5t-2 28.5q37 43 121 127q2 8 5 8.5t6.5 -3t8 -5.5t8.5 0q28 43 62.5 68.5t95.5 51.5t80 36q141 -11 249 -80.5t126 -179.5q15 -18 18.5 -16.5t5.5 17.5q1 10 2 16t5.5 15t11.5 13q3 22 -5.5 43t-9.5 31q0 7 2 11t4 6t6.5 2 t6.5 -0.5t8 -2.5t8 -2q3 11 -0.5 17t-13.5 5q3 11 9 13.5t13 0.5t17 -4.5t18 -0.5q17 -49 28.5 -70.5t39.5 -58.5q-9 -59 -33.5 -113t-50 -88.5t-57 -81t-48.5 -84.5q-43 -20 -78 -58t-36 -75q-18 -11 -20 -15q-1 -3 -3 -14q1 -8 16 -16t28 -9.5t16 1.5q14 -19 37.5 -39 t45 -34.5t46.5 -34t42.5 -38t32 -47t16 -60t-6.5 -77.5q23 -136 -43 -150q-13 -41 -38.5 -77.5t-54.5 -62.5t-72 -51.5t-78.5 -42t-86.5 -38.5q-25 4 -102.5 5.5t-125.5 17t-81 59.5h-29q-1 15 -14 37t-28.5 41.5t-28.5 40.5t-14.5 34t13.5 23q-5 23 -7.5 44.5t-1 44.5t2 38 t8.5 39t10 33.5t14.5 36.5t15.5 32.5t18.5 36.5l17.5 35q26 -14 40 5t11 54q10 -1 16.5 4t13.5 16t13 17q-15 25 -61 46.5t-82 4.5q1 11 -5 21t-19.5 18.5t-24.5 14.5t-31.5 15t-28.5 13q-45 54 -64 118t-14 122zM229.5 958.5q12.5 -49.5 51.5 -83t94 -23.5q103 -60 174 -35 q9 4 29 27t43 40t45 13q-3 1 -3 6t1.5 13t1.5 10q19 0 33 18.5t20.5 39.5t19.5 34.5t31 5.5q7 6 0 17t-20 23t-15 17q21 -2 29 19.5t22 23.5q-1 25 -8.5 38t-24 22.5t-18.5 11.5q-4 59 -49.5 91.5t-99.5 29.5q0 -7 -0.5 -10t-0.5 -5t0.5 -2.5l1.5 -1.5t1.5 -2t2 -5t3.5 -9 q-23 -18 -41 22q-1 2 -2 5l-2 4q-17 -1 -31 -4.5t-18 -3.5t-25 4q-3 -13 -12.5 -26.5t-9.5 -18.5q-14 -4 -23.5 5.5t-11.5 10.5q-10 -8 -39.5 -29.5t-42 -32t-28 -30.5t-21.5 -41q-41 -30 -55.5 -84.5t-2 -104zM377 258q-4 -49 31.5 -81.5t91.5 -43t118 -0.5q74 54 123 45 q11 31 42 64.5t59 67t35 69.5q17 77 -27 126.5t-133 61.5q-6 23 -29 29q-7 -9 -23.5 -4t-27.5 -4q-17 28 -50 22.5t-65 -35.5t-28 -57q-8 -10 -20.5 -9t-20.5 -9q-2 -9 -5 -26t-5 -28.5t-6 -23.5t-11 -18t-16 -5q-5 -20 -7 -50t-6.5 -51.5t-19.5 -39.5z" />
<glyph unicode="9" d="M87.5 967.5q0.5 50.5 27.5 79.5q-13 75 23.5 155t100 140t140 102t143.5 51q48 13 93 15t91 -12.5t76 -47.5q7 -1 17 3t18 3q5 -44 63.5 -96.5t116.5 -85.5q1 -9 -3.5 -28t-0.5 -28.5t23 -11.5q-15 -31 -15 -74t8 -80t19 -88.5t14 -84.5q1 -21 -8.5 -60t-9.5 -55 q0 -14 7.5 -46.5t3.5 -52t-27 -30.5q7 -171 -121 -344q-10 -76 -43 -123.5t-107 -112.5q3 -34 -14 -58t-52.5 -47t-37.5 -24q-79 8 -121.5 38t-50.5 99q63 45 111 97t84.5 116t59 115t55.5 132q7 19 11 28q-3 2 -7 11.5t-11 10.5q38 27 50.5 66.5t10.5 101.5q-23 -4 -26 7 q-29 -46 -75 -85t-89 -45q-6 -6 -6 -9t3 -8t3 -13q-27 -4 -56 -19.5t-40 -40.5q-7 -1 -16 3.5t-17 3.5q-9 -23 -33.5 -26.5t-61 4t-44.5 7.5l-35 -22q-32 5 -59.5 23.5t-45.5 40t-44 47.5t-50 40q6 43 -6 106.5t-26 112.5t-13.5 99.5zM284 984q-2 -66 7.5 -135.5t47 -118 t97.5 -50.5q64 28 116 63t78.5 60t73 73.5t74.5 75.5q14 42 20 99t2 116.5t-30.5 106.5t-73.5 61q-89 9 -182 -39q-99 -48 -113 -59q-21 -19 -51.5 -72t-52.5 -65q-11 -50 -13 -116z" />
<glyph unicode=":" horiz-adv-x="569" d="M113 827q1 50 25.5 99.5t62.5 81.5t79.5 46.5t82 -4t63.5 -71.5q-7 -43 -3.5 -67t-3.5 -41.5t-34 -34.5q-16 -82 -37 -93q-8 -6 -14 -7t-9.5 3.5t-5.5 9t-4 13t-4 12.5q-22 -15 -42.5 -20.5t-34.5 -5t-32.5 10t-28 17t-30 25.5t-30.5 26zM141 102q7 15 15 48t14 56t24 37 t46 5q13 14 25.5 20.5t30 5t27 -3t35 -10.5t35.5 -12q16 -33 16 -70.5t-9.5 -64.5t-19.5 -59t-11 -50q-15 -6 -46.5 -25t-52.5 -29.5t-48.5 -9t-49.5 24.5q2 16 -3 37t-14.5 50.5t-13.5 49.5z" />
<glyph unicode=";" horiz-adv-x="569" d="M112.5 171q-1.5 61 34.5 108q9 10 33.5 25t30.5 20q14 16 61.5 42t75.5 19q36 -8 54 -51.5t17 -94t-1 -98.5q0 -17 -15.5 -48t-19.5 -44q0 -1 -3 -34t-11 -50q-5 -12 -27.5 -31t-28.5 -30q-9 -16 -14.5 -42.5t-11.5 -33.5q-6 -8 -15.5 -17.5t-25.5 -21.5t-31.5 -19 t-34 -7t-33.5 12q27 34 45 83t23.5 78t15.5 97q-11 5 -24.5 12t-20 10t-17 6.5t-22.5 4.5q-33 44 -34.5 105zM113 827q1 50 25.5 99.5t62.5 81.5t79.5 46.5t82 -4t63.5 -71.5q-7 -43 -3.5 -67t-3.5 -41.5t-34 -34.5q-16 -82 -37 -93q-8 -6 -14 -7t-9.5 3.5t-5.5 9t-4 13 t-4 12.5q-22 -15 -42.5 -20.5t-34.5 -5t-32.5 10t-28 17t-30 25.5t-30.5 26z" />
<glyph unicode="&#x3c;" horiz-adv-x="1196" d="M25 682q6 59 34 99t69.5 60.5t84.5 34.5t89 34t73 46q111 30 242 91.5t266 124.5t254 96q2 -17 22.5 -53.5t14.5 -75.5q-26 -17 -144 -73.5t-153 -94.5q-99 -34 -253 -115t-235 -115q2 -5 2.5 -12t-12 -14.5t-35.5 -9.5q27 -33 75.5 -60.5t114 -57t99.5 -50.5 q11 -7 35.5 -23.5t37.5 -24t35.5 -14.5t44.5 -6q25 -29 107 -53q-1 -7 3 -15.5t3 -15.5q80 -7 168 -115q-5 -22 -23 -8q2 -5 12 -22t11 -31q-11 -5 -30 -14t-27 -13t-21.5 -13.5t-27.5 -21.5q-17 13 -53.5 31.5t-62 37.5t-36.5 46q-75 19 -188.5 80t-169.5 80 q-59 45 -182 95.5t-177 88.5q-1 5 -3.5 14t-3.5 12t-4 8t-7 8t-11 7q0 -4 -8 -6t-8 -6q-9 5 -6 20.5t4.5 21t-20.5 -2.5z" />
<glyph unicode="=" horiz-adv-x="1196" d="M38.5 918q1.5 13 6.5 36t6 35q43 -9 93 -3.5t86.5 16.5t84.5 14t86 -10q20 15 40 20t46.5 -1t38 -10t45.5 -18q109 34 289 -8q13 18 41.5 18t45.5 -5.5t48 -18.5q2 0 3.5 1.5t1.5 4v5v6t1 6.5q13 1 24 -16t30 -13q2 -9 -10.5 -27t-10.5 -28q7 -10 17 -4.5t19.5 3.5 t10.5 -22q-4 -5 -15 -13t-18.5 -19t-9.5 -29q-95 -15 -193 -12t-166 14.5t-154.5 17.5t-159.5 -2q0 -11 -31 -18q-45 12 -83.5 6.5t-99.5 -1t-112 30.5q-2 31 -0.5 44zM55.5 486q-4.5 -26 10.5 -74q35 -24 70 -26.5t65.5 5t40.5 6.5q20 -26 41.5 -26.5t59 14.5t67.5 18 q71 6 234.5 14t294.5 20t224 34q7 9 11 18t5 20t1.5 20t-3 21.5t-5 20.5t-7.5 22.5t-9 20.5t-10 21.5t-9 19.5q-114 -19 -381 -38t-377 -39q0 5 -22.5 15t-22.5 15q-19 -12 -60 -11.5t-77 -3t-50 -26.5q4 -10 -8 -15t-30 -9.5t-33.5 -17.5t-20 -39z" />
<glyph unicode="&#x3e;" horiz-adv-x="1196" d="M48 264q-7 41 27 91q31 43 66 48q21 28 51 52.5t52 38t63 35.5t58 32q0 6 -9 6q49 21 117 61t129 68.5t127 40.5q-23 12 15 31q32 16 53 14q-58 18 -159 54t-177 57.5t-158 32.5q-26 24 -76 43.5t-96.5 42t-71.5 57.5q18 10 20 30.5t-4 39t-3 36t22 23.5t60 -13.5 t55 -35.5q34 12 70 -2.5t45 -40.5q26 1 63 -10t51 -25q22 10 44.5 -3t43.5 -26t41 -2q6 -18 18.5 -22t37 -0.5t39.5 2.5q8 -20 32.5 -25t34.5 -18q11 11 43.5 6t63 -10.5t63.5 10.5q4 -38 68 -29q5 -12 17 -20t23.5 -11t31 -6.5t28.5 -5.5q3 -24 17.5 -44t30.5 -32 t27.5 -30.5t8.5 -40.5q-17 9 -26 -0.5t-9 -38.5q-332 -133 -657 -344q-3 -4 -11 -11.5t-9.5 -10.5t1.5 -9q-5 -15 -28.5 -24t-34.5 -9q-16 -8 -23 -25t4 -28q-27 -30 -55.5 -38.5t-72 -12.5t-80.5 -18q0 3 -19.5 23.5t-19.5 23.5q-57 -23 -63 22z" />
<glyph unicode="?" d="M61 1165q8 99 76 197.5t168 120.5q24 4 43 1.5t43 -0.5t43 13q4 0 5 3t1.5 9.5t1.5 8.5q21 -6 47.5 -2.5t55 8.5t52 10t38 1.5t12.5 -17.5q109 -2 208 -59.5t157.5 -151t54.5 -193.5q-2 1 -11 6.5t-14 5.5q-2 -25 6.5 -66t11.5 -64.5t-9 -59.5q-17 -37 -44 -71.5 t-52.5 -59t-64 -53t-63 -44t-65.5 -40.5q-53 7 -100.5 -26.5t-61.5 -85.5t16 -112q0 -3 -2 -4t-6 -1t-6 -1q3 -7 13.5 -20.5t15.5 -27t2 -32.5q-3 -2 -11.5 -4.5t-13.5 -6t-6 -9.5q-3 13 -11 13q-11 0 -11 -21q-15 7 -44.5 -1t-39.5 -5q-5 1 -11 12t-20 8q-3 50 -39 86 q-20 130 8 211.5t129 153.5q89 89 131 96q6 5 24.5 21t28.5 24t26.5 18.5t33.5 16.5q49 52 69 125.5t-5.5 141.5t-100.5 93q-8 8 -8 29q-8 -1 -41 1.5t-57 -2.5t-31 -22q-113 24 -228.5 -34.5t-138.5 -157.5q-6 0 -6 14q-10 -49 -24 -88q-15 4 -25 -5.5t-21 -8.5 q-6 5 -39.5 24t-49 37t-9.5 41q-1 6 -12.5 1.5t-18.5 4.5zM414 41q-13 52 23.5 99t92.5 61q28 -2 51 -15.5t36 -28.5t24.5 -39.5t15 -37t9.5 -33.5q-8 1 -11 -9t-2.5 -21t-4 -17.5t-15.5 -1.5q-17 0 -17 -35q-34 -3 -75.5 0t-80 24t-46.5 54z" />
<glyph unicode="@" horiz-adv-x="2078" d="M118.5 593.5q0.5 47.5 15.5 104t31.5 98.5t35 96t24.5 97q33 13 62.5 39.5t52 54.5t46 55t54.5 45.5t68 20.5q3 21 3.5 23t-4 8.5t-7.5 17.5q33 6 116.5 54.5t137.5 48.5q20 8 24 41q25 6 48.5 2.5t45.5 2.5t31 28q14 -3 27.5 -6.5t17.5 -5t10 -1t10.5 3.5t14.5 11 q7 -8 16 -12t18.5 -4.5t19 1t18 3.5t14.5 3t9.5 -1t2.5 -7q3 15 28 32q35 23 39 -7q1 -3 1 -8q2 -16 28 -3q23 11 29 27q22 -5 40 -6.5t33 -0.5t44 -1q-2 -17 3.5 -25.5t21.5 -7.5q6 4 4.5 12t3.5 21q17 -9 53 -15.5t62 -17t34 -33.5q15 0 7 14q-7 13 -15 11q12 6 46.5 -12 t60.5 -13q4 -19 4 -20.5t-4 -20.5q7 0 21.5 6t29.5 3q32 -27 75.5 -58t74 -53t63.5 -50t60 -63.5t48 -78.5q2 -13 -3 -16t-11 0t-10 7q2 -11 8.5 -19.5t18 -17.5t14.5 -12q-1 -1 -12 -5t-13 -21q-3 -14 6 -20.5t27 -4.5q-6 -16 -25 -16q22 -23 29 -60t3.5 -72.5t-4 -73.5 t4.5 -61q0 -9 -1.5 -11t-6.5 0.5t-8 2.5q18 -47 -25 -90q-8 -30 0 -49q-5 -14 -14 -4q-3 3 -2 4q-7 -12 -6 -22t4.5 -33t1.5 -37q-34 -14 -47.5 -24.5t-26 -33t-23.5 -36.5q1 -3 -4.5 -17.5t-8.5 -25t1 -13.5q-3 -11 -7.5 -13.5t-8 1.5t-11 8.5t-14.5 3.5q-35 -28 -51 -82 q-49 0 -57 -34q-11 -1 -21.5 3.5t-11.5 4.5q-41 -52 -91 -68t-138 -10q-10 -3 -21 -16.5t-20 -16.5q-38 3 -65.5 23.5t-41.5 43.5t-37.5 48t-52.5 35q-27 -42 -85 -76t-116.5 -60.5t-79.5 -48.5l-40 4t-42.5 5t-36.5 5.5t-44.5 9t-42.5 13.5q-4 7 -16 26.5t-19.5 31 t-18.5 27.5t-23 27t-24 19q-8 34 -15.5 110t-10.5 95q-2 15 -7 44.5t-8 52.5t-2 44q0 20 39.5 104t42.5 95q5 19 16.5 36t24.5 21q3 37 15.5 62t31.5 40t38.5 27t43 29.5t39.5 40.5q30 -3 60 13.5t48.5 35.5t44 30t46.5 -3q35 12 68 13.5t55.5 -3.5t48 -19.5t39 -25 t34.5 -29.5q0 -3 14.5 -6t36.5 -8t45.5 -15t44 -33.5t29.5 -56.5q-6 -16 -10 -35.5t-8.5 -25t-17.5 -8.5q13 -7 15 -22t-2.5 -31t-12.5 -44.5t-11 -50.5q-3 1 -12.5 -11t-13.5 -13q-6 -22 -1.5 -40.5t12.5 -32t3.5 -24.5t-29.5 -18q0 -13 17 -52l2 -3q-2 -22 -30.5 -72 t-31.5 -57q3 -32 16 -46.5t36 -13t44.5 7.5t53 17.5t49.5 15.5q-2 7 6 11t15 13t4 28q7 0 16 -5t16 -4q9 8 42 34.5t44.5 36.5t33.5 32t36.5 42.5t26.5 45.5q1 1 -1.5 4.5t-5.5 9.5t-2 10q2 3 14 8.5t13 8.5q25 76 28.5 152.5t-6.5 127t-28 86.5q-50 99 -167.5 183 t-274.5 106q-6 0 -23.5 3.5t-31.5 5.5t-29.5 1.5t-22.5 -6.5q-37 14 -93.5 12t-78.5 -22q-76 7 -136.5 -18.5t-103.5 -30.5q-32 -29 -81.5 -53t-88 -38.5t-77 -46t-58.5 -77.5q-38 -25 -69.5 -74t-63 -113t-51.5 -94q-18 -47 -14.5 -122.5t14 -131.5t24 -129.5t15.5 -117.5 q19 -11 26.5 -28t-0.5 -38q73 -107 217 -211t216 -102q25 -12 65.5 -16.5t92.5 -5t63 -1.5q79 -5 159.5 15t139.5 59q52 5 99.5 29t82.5 53.5t69 58.5t74.5 48.5t83.5 19.5q-5 18 20 29.5t25 21.5q49 -12 62 -25q9 -9 12 -24q-16 1 -16 -5.5t8 -16.5l7.5 -10.5t4.5 -10.5 t-2 -10q-18 11 -43 8q2 -15 8 -17q15 -3 6 -16.5t-22 -7.5q7 -10 8.5 -15.5t-6.5 -11.5t-16 -9.5t-19.5 -9.5t-17.5 -10q-5 3 -4 4.5t3 5.5t1 7q-14 2 -19 -9t-6.5 -27t-7.5 -21q-10 8 -26.5 4.5t-30.5 3.5q-10 -8 -17 -25q2 -6 -1.5 -18.5t-12 -17t-27.5 19.5 q-6 -16 -17.5 -25.5t-20 -12.5t-14 -12.5t0.5 -25.5q-4 -1 -15.5 -2t-17 -2.5t-11 -6.5t-5.5 -14q-10 2 -19.5 2.5t-19 -2t-16 -4t-15 -8t-12.5 -9t-12.5 -11.5t-10.5 -10.5t-11 -11.5l-9 -11q-15 19 -54 10q-31 -7 -30 -24q1 -2 2 -5q-84 -19 -108 -49q-33 15 -74 11 t-51 -27q-11 14 -21.5 13t-15 -9t-17 -15.5t-28.5 -5.5v33q-3 -3 -15 -5t-17.5 -7.5t-0.5 -20.5q-28 4 -68 11t-75 12.5t-74 9.5q-1 15 -8.5 24.5t-16 13t-16 9.5t-8.5 13q-3 -2 -11 -9.5t-16.5 -10t-21.5 0.5q-1 9 -4.5 16t-6 11.5t-9 8.5t-9.5 6t-12 4t-11 2t-12.5 1.5 t-11.5 1.5q7 10 6 12.5t-7 8.5t-7 12q-14 -11 -22.5 -7t-13 14.5t-14 15t-24.5 -5.5q-9 21 -23 31t-24.5 11t-19 14.5t-9.5 43.5q-5 8 -14 3.5t-19 -3.5q-20 30 -61 72t-70.5 72t-48.5 74t-10 89q-22 23 -44.5 86t-31.5 80q16 2 21 13t6 12q-3 19 -35 16q5 21 2.5 53.5 t5.5 44.5q-15 65 -14.5 112.5zM766.5 365q3.5 -17 12 -28.5t23 -30t19.5 -32.5q76 -20 169 21t157 102q3 14 -4 23t-10.5 11.5t6.5 14.5q9 1 29 27t28 25q3 43 17.5 96t26.5 90t18 94t-9 109q-6 -1 -59 -1.5t-96.5 -9.5t-57.5 -32q-89 -23 -154.5 -89t-60.5 -173 q-28 -25 -43 -100.5t0 -88.5q-15 -11 -11.5 -28z" />
<glyph unicode="A" horiz-adv-x="1366" d="M14 111q14 8 15.5 31t23.5 26q2 13 -4.5 23t-10 14.5t6.5 17.5h23q-7 29 -7 48q0 11 2 17q5 22 35 54q-8 -3 -7 4q1 19 26 44q14 14 26 16q-15 21 -16.5 43.5t4.5 41.5t8.5 44.5t-2.5 54.5q3 3 12 6.5t14 9t3 17.5h55q-9 10 -6.5 21t5.5 15.5t11.5 13t12.5 13.5 q-4 36 -17 47q2 3 9 4.5t8 5.5t0 23q8 -2 12.5 -10.5t11.5 -10.5q0 4 6 15t7.5 21t-7.5 32q10 -9 10 -6t4.5 9.5t14.5 4.5q-14 19 -11.5 36.5t10.5 28t26 23.5q7 7 4 23.5t2 30.5t22 10q-6 29 -3.5 51.5t20.5 36.5q4 -1 7 -1.5t4.5 -1.5t3.5 -3.5t3 -4t4 -6.5t4 -8 q12 6 12 13.5t-4.5 18t-3.5 17.5q12 -3 23.5 4t22.5 5q-1 4 -10.5 14t-4.5 25q8 -2 19 3t12 5q-9 27 -9 49q0 7 1 14q62 29 86 53.5t51 90.5q7 1 12.5 -3.5t9.5 -5.5v50q18 7 38 8h9q14 0 25 -2q15 -3 38.5 -14t37.5 -19t45 -27q-11 -24 0.5 -48.5t5.5 -41.5 q32 -45 60 -109.5t45.5 -117t47.5 -110t68 -95.5q8 5 13 7.5t10 4t8 2t12 1t17 1.5q13 -25 69 -32q-3 -28 3.5 -39t27.5 0q6 -25 -4.5 -44.5t-27 -30t-33 -26.5t-19.5 -34q-2 -10 -2 -20q0 -67 78 -157q1 -44 41.5 -122t42.5 -125q1 -22 14 -49q12 -28 22 -46q9 -16 10 -39 v-7q-2 -28 -24 -58q-11 -3 -17 1.5t-5 14.5q-12 -4 -6 -15t-2 -17q-5 -1 -19.5 0.5t-22 -1.5t-3.5 -16q-33 39 -61 89t-43 88t-39.5 104t-39.5 102q-20 17 -57 107.5t-74 115.5q-37 -9 -176.5 -58.5t-218.5 -59.5q-2 -3 -17 -11.5t-14 -21.5h-6q-63 0 -109 -20 q-48 -21 -67 -52l-5 -2q-4 -1 -8 -3t-7.5 -7t-2.5 -12q0 -1 3.5 -5.5t7 -8t4.5 -1.5l-9 -11q-20 -21 -22 -21q-12 -27 -24.5 -81.5t-22.5 -96t-35 -79.5t-63 -47q-5 20 -46 64t-53 72zM371 643v-6q0 -30 28 -33q12 4 80.5 28t113.5 38.5t105 24.5q32 5 56 5q22 0 39 -4 q10 18 44 29.5t52 -0.5q-3 45 -38.5 112.5t-71.5 132t-38 101.5q-18 2 -30 41.5t-29 48.5q-2 -8 -16.5 -24t-18.5 -13q-2 -4 -6.5 -12t-7 -13t-8 -12.5t-9.5 -9.5t-10.5 -4t-11.5 4q-44 -57 -103.5 -179.5t-78.5 -156.5q0 -10 -6 -31.5t-9 -34.5t2 -24q-2 -1 -11 -5t-17 -3z " />
<glyph unicode="B" horiz-adv-x="1366" d="M74 1194q-1 67 31 125t83 92q7 5 -5.5 26.5t-4.5 24.5q22 9 43 9q33 0 62 -23q69 6 104 12q68 12 103 16q22 3 53 3q17 -1 36 -1q54 -2 111 -18q15 -19 51.5 -29t63.5 -10q41 -18 79 -44t88.5 -68t69.5 -56q6 -26 12.5 -63t13.5 -64.5t19 -54.5q-5 -15 -5 -26.5 t2.5 -27.5t2.5 -30q0 -37 -24 -75t-56 -77.5t-42 -68.5q0 -6 9 -12t7 -19q14 -2 44 7t42 8q19 -20 43 -32t42.5 -18.5t46 -31.5t56.5 -70q27 -71 27 -141q0 -77 -34 -150q-64 -140 -199 -203q-9 -7 -21.5 -25.5t-15.5 -21.5q-62 -28 -106 -47t-109.5 -41.5t-116 -32 t-107.5 -9.5t-102 16q-9 -3 -24.5 -3t-30.5 -3q-8 15 -21.5 19t-26.5 1.5t-28 1.5q-103 32 -165.5 111.5t-61.5 193.5q16 0 22 15q21 -1 32 -2t23 -6.5t15 -7.5t20 -15q1 -14 10 -26.5t17.5 -19.5t27.5 -20.5t27 -19.5q-4 56 -25 270q-20 214 -28 360q-5 97 -5 195 q0 49 1 98q0 5 0.5 29.5t0 33t-2.5 28t-7.5 35.5t-13.5 34q-22 -1 -32 -12t-11.5 -24t-7.5 -29t-18 -25q-12 7 -26 18t-25.5 16t-32.5 5zM350 1288q30 -76 38.5 -171.5t9 -218t8.5 -196.5q24 -5 55 4t54 20t50 14.5t41 -11.5q16 7 32.5 18.5t25 17t23.5 5.5t34 -10 q20 17 58.5 45t61 46t49.5 49q26 32 35 62q7 23 7 54q0 11 -1 22q-3 46 -26 101q-28 7 -76.5 57t-66.5 61q-38 22 -82 30q-37 7 -67 7h-11q-25 -1 -55 -2h-20q-42 0 -72 8h-9q-11 -1 -29.5 -1.5t-34.5 -2.5t-32 -8zM457 530q-2 -23 -2 -49q0 -83 20 -187q26 -138 29 -206 q15 -3 26.5 -8t15.5 -6h3q4 0 9 2q8 2 26 12q12 -2 26 -2q38 0 86 18q66 24 136 55.5t110 35.5q15 20 72 62.5t73 82.5q5 15 7.5 28.5t5.5 24t10 25.5q-36 117 -147 172q-108 2 -182 2h-5q-72 0 -146 -14q-77 -14 -173 -48z" />
<glyph unicode="C" horiz-adv-x="1478" d="M97 692q2 32 9.5 68t22.5 65q5 9 17.5 18.5t19.5 8.5q4 22 4.5 57.5t2 63t8 58t26.5 57.5t53 47v47q25 14 55 43.5t52 54.5t53.5 45.5t64.5 22.5q4 35 20.5 52.5t42 32t38.5 33.5q12 4 26.5 2t14.5 -10q17 -5 21 12.5t9 18.5q17 7 36 7q9 0 17 -2q30 -4 54 -14t50.5 -10 t45.5 19q66 -3 115.5 -32t103.5 -83q10 -1 18.5 1t13 3.5t13.5 6.5t11 6q53 -7 73 -67q10 -28 10 -56q0 -30 -12 -58q-20 -49 -62 -50q-5 0 -9 1q-19 2 -45.5 35.5t-49.5 67.5t-56 54q-15 9 -29 9q-18 0 -35 -14q-26 3 -48 13t-22 20q-31 5 -54 5.5t-36.5 1t-30 -6.5 t-23 -10.5t-27.5 -17t-32 -20.5q-16 -8 -16 -38q-56 -17 -109.5 -75.5t-111.5 -146.5q-64 -98 -101 -218q-29 -92 -29 -177q0 -25 3 -49q5 -47 15 -96.5t26.5 -107.5t42 -107t57.5 -88.5t78 -58.5q32 -13 68 -13q15 0 30 2q6 1 65 9.5t82.5 13t70.5 14t80 21t60 26.5 q14 7 36 30.5t34 30.5q6 3 27.5 2.5t31.5 12.5l26 26l29.5 29.5t30 24.5t37.5 20q5 1 24 1t30 5q16 7 44 25.5t50.5 26t50.5 1.5q8 0 10.5 -7.5t2 -16.5t3 -15.5t13.5 -5.5q3 -7 3 -14q1 -15 -17 -33q-26 -24 -74.5 -58t-71.5 -63q-111 -136 -250 -182q-4 -1 -17 0.5 t-14 -0.5q-11 -6 -21.5 -13.5t-22 -13.5t-33.5 -12q-17 -5 -52 -16t-54 -16.5t-50.5 -13t-53.5 -10t-49.5 -2.5t-52.5 5q-302 61 -420 305q-5 15 -19.5 61t-21.5 70t-19.5 71t-17.5 77.5t-10 74.5q-4 31 -4 56q0 11 1 20z" />
<glyph unicode="D" horiz-adv-x="1478" d="M96 1260q-4 25 -3 48q0 33 7 62q17 6 54 22.5t61 25.5q25 8 59 16q31 8 61 8h7q34 -1 70 -12q17 -4 28 11t25 13q1 -2 7 -6.5t10.5 -10t4.5 -10.5q8 1 20 14.5t13 14.5q72 -16 82 -18q6 -2 37 10q20 8 41 8q11 0 22 -2q19 -24 46 -24q9 0 27 1t28 1.5t22.5 -2.5t20.5 -9 l16 -13q3 6 23 5q30 -3 67.5 -35.5t61.5 -66.5q3 -2 29.5 -16t31 -16.5t26 -15t27.5 -17.5t22 -17.5t23 -21.5t17 -22.5t18 -27.5q37 -7 58.5 -59t29.5 -113q3 -5 9 -8t15.5 -5t12.5 -3q-1 -17 16.5 -42.5t6.5 -43.5q3 -4 10.5 -5t13.5 -12q-4 -13 -4 -28q0 -16 4 -36 q8 -38 14 -64q1 -6 2 -13q0 -25 -16 -63q4 -20 4 -39q0 -33 -12 -67q-19 -52 -49 -88t-70 -83.5t-57 -81.5q-52 -14 -114.5 -57.5t-112.5 -95.5q-12 12 -24.5 8.5t-20.5 -14t-19 -15.5t-20 4q-17 -52 -107 -59q-1 -1 -93 -53.5t-134 -67.5q1 -28 -11 -42q-11 -14 -27 -14 l-1 1q-17 0 -34 7.5t-29 21t-13 26.5q-5 -12 -16 -10.5t-19.5 8.5t-24 13.5t-30.5 4.5q6 18 -3 33q-7 11 -13 -6q-1 13 -8 45.5t-8.5 52t2 45t22 42t51.5 24.5v25q1 64 -7 184q-10 144 -24 239q-3 20 -18.5 78t-17.5 92q-4 45 -4.5 138.5t-7 154.5t-27.5 92 q-15 -5 -35.5 -13.5t-32.5 -13t-27 -8t-28.5 -3.5t-28.5 4q-27 26 -35 86zM446 1241q8 -132 34.5 -364.5t33.5 -262.5q22 -87 28 -153q6 -61 6 -114v-7v-8q0 -51 7 -90q26 -6 35 -6h3q7 2 26.5 7t44.5 5q13 26 47.5 37.5t77 19t63.5 21.5q12 8 34 33t36 34q125 91 167 132 q106 103 108 233v8q0 46 -11 96q-45 82 -150 236q-140 103 -426 170q-3 -14 -16 -17q-6 1 -25.5 4t-29.5 4t-26.5 0.5t-33 -5t-33.5 -13.5z" />
<glyph unicode="E" horiz-adv-x="1366" d="M50 1356q0 16 4 22q4 8 13 10t16 1t13 -3q105 -36 201 -36q22 0 43 2q116 10 352.5 53.5t341.5 52.5q24 -1 57 -17.5t58 -13.5q0 -15 6.5 -25.5t17 -20t13.5 -15.5q-6 -16 -28 -27t-39 -24.5t-17 -38.5q-11 3 -25.5 1t-20.5 -3.5t-18 -6.5t-18 -7q-8 11 -8 30 q-13 -2 -27.5 -10.5t-13.5 -19.5q-84 -3 -166 -37q-3 9 -16.5 8t-24.5 -5.5t-31 -11t-35 -8.5q-14 -2 -35 -2q-24 0 -59 2q-31 2 -52 3q-24 0 -36 -3q-12 -2 -70 -22q-47 -16 -82 -16q-9 0 -16 1q-21 18 -46.5 17t-43.5 -25q15 -14 19.5 -33.5t5.5 -44t4 -36.5 q3 -7 15.5 -19t14.5 -18q6 -13 6.5 -46t2.5 -46q5 -25 26 -114t27 -130h8q43 0 135 19q100 21 140 26q12 2 65 6t78 10q18 3 48.5 10t50.5 11t47.5 7.5t47.5 1.5t40.5 -8.5t36 -22t26.5 -38.5q-19 -8 -24 -27.5t-5 -64.5q-69 -41 -166.5 -60t-222 -30t-182.5 -22 q-109 -24 -123 -78q16 -1 19 -14.5t-1 -29t0 -28.5t21 -12q-21 -16 -18.5 -37.5t12 -41t-1.5 -50.5q30 -21 97.5 -24t84.5 -21q86 21 198 32t195 15t180.5 23.5t173.5 58.5q21 -1 42 -22.5t42 -22.5q-12 -17 -12 -41q0 -14 4 -29q6 -9 -0.5 -20t-16.5 -16.5t-12 -2.5 q-2 -10 -3.5 -17t-2 -9.5t-1 -4t-1.5 -3.5l-2.5 -5t-5 -11t-8.5 -18q-12 -2 -20 8.5t-23 6.5q-10 -12 -14.5 -24.5t-14.5 -24.5q-10 4 -27 4q-29 0 -79 -12q-43 -10 -72 -10q-24 0 -39 7q-23 -19 -53.5 -28t-51 -10t-61 -0.5t-55.5 0.5q-26 0 -96 -5q-43 -3 -69 -3 q-16 0 -25 1h-8q-21 0 -65 -8t-71 -8h-10q-38 4 -113 24t-114 23q-32 90 -37 206q-5 105 -5 219q1 11 1 23v7q0 121 -17 207q-4 0 -18 24q-2 4 -2 2q-5 113 -39.5 250.5t-104.5 366.5q-9 28 -9 47z" />
<glyph unicode="F" horiz-adv-x="1251" d="M105 1298q6 36 20 70q27 5 53.5 18.5t63.5 24.5q19 -5 37 -5q15 0 31 4q34 8 58 18.5t55 29.5l9 6q7 -31 50.5 -31t62.5 27q23 3 41 -26q23 17 54.5 18t61.5 3.5t52 23.5q45 -9 101.5 -9t122.5 3q50 2 86 2h23q19 6 38 6q24 0 49 -10q41 -17 24 -45q-5 -10 -18 -19 q3 -4 5.5 -7t6 -5t5.5 -3.5t8 -3t7.5 -2t10 -2t10.5 -2.5q0 -15 -10 -19.5t-19 -2t-12.5 -2.5t8.5 -21q14 -23 -23 -37t-96 -16q-14 -2 -23 10t-16 13q-15 -9 -30 -10t-36.5 3t-31.5 5q-10 0 -29.5 -11.5t-31.5 -11.5q-17 -2 -63 2q-18 2 -33 2q-21 0 -33 -4q-33 -8 -86 -14 t-92 -11t-52 -14q-10 -7 -21.5 -29t-23.5 -24q-8 -108 -11 -158q-1 -15 -1 -32q0 -42 5 -102q7 -84 30 -150q24 -8 40 -8q22 0 27 16q183 31 234 43q5 2 20 19t35 16h13q27 0 71 6q56 8 70 8q-3 -14 8 -23.5t30.5 -19.5t28.5 -19q-19 -57 -67.5 -95t-112.5 -57t-129 -32 t-133 -31.5t-109 -44.5q6 -28 19.5 -145.5t37 -201t68.5 -140.5q-4 -12 -7 -28.5t-5.5 -26t-10.5 -19.5t-22 -16l-41 1l2 -1q-34 12 -63 56t-49.5 112t-34 124t-26.5 129t-17 89q-3 2 -19.5 1t-19.5 1q-7 2 -12.5 11.5t-8.5 12.5q-11 11 -18 9.5t-9 -8.5l-3 -7 q-31 19 -41.5 36t-6 25t-1.5 19q-22 33 -24 54v6q0 23 11 75q2 0 16 0.5t17 1t15 1.5t16.5 2.5t14 4.5t14.5 7t11 9.5t11 12.5q-15 86 -17.5 232.5t-21.5 238.5q-43 -17 -67 -17h-4q-24 2 -32 13l-7 12q-5 -1 -19 -9q-32 -17 -32 -7q0 4 3 12q-28 -2 -37 26q-5 17 -5 37 q0 12 2 27z" />
<glyph unicode="G" horiz-adv-x="1593" d="M115 686q1 16 3.5 58.5t5 66t8.5 56t18.5 54.5t31.5 37q-9 22 -7.5 34t5.5 35t2 42q68 23 76 92q43 12 69 52t31 83q15 -12 24 -4t14.5 24t19.5 24.5t39 -1.5q11 3 14.5 15t5 29.5t6.5 27.5q20 0 28.5 -4.5t8.5 -20.5q2 2 7 5.5t7.5 6t6 6.5t5 8.5t1.5 10.5q16 -5 30 -5 q20 0 37 9q30 16 43 48q139 38 273 43q-1 -7 3 -14t3 -15q11 0 36.5 5.5t26.5 12.5q8 -18 28.5 -34t40.5 -26t38 -25t19.5 -30.5t-13.5 -41.5q-43 -13 -112 -13h-10q-77 1 -111 19q-43 -4 -102.5 -24.5t-102.5 -28.5q-5 -4 -10 -9.5t-10 -13l-7 -10.5q-39 -20 -83.5 -59 t-72 -69.5t-71.5 -82.5q-62 -75 -92 -209q-21 -93 -21 -191q0 -42 4 -85q13 -142 68 -234q21 -37 45.5 -66t48 -48.5t53.5 -34.5t53.5 -23t57 -14.5t55 -9t56.5 -6t53 -5.5q7 1 8.5 16.5t7.5 18.5q21 -13 59.5 -1t51.5 -7q46 37 84 52.5t114 25.5q-7 7 -10 26t7 32t50 -1 q-12 43 -21 153t-38 164q10 9 21.5 38.5t13.5 49.5q-26 12 -62 12q-101 0 -278 -100q-22 14 -82.5 22.5t-69.5 10.5q-2 11 -2 24q0 20 5 45q5 17 5 34q0 23 -8 47q21 19 51 32.5t52 21t65 12.5t57 6.5t62.5 3t50.5 1.5q4 0 6.5 7.5t3.5 19.5t1 14q17 1 52 8t63 13.5 t58.5 9.5t39.5 -6q34 10 50 14.5t18 3.5l4 -2t5.5 -2t25.5 3.5t62 13.5q13 -20 34 -23.5t36 0.5t23 -12.5t2 -61.5q6 0 32 13q0 -39 -20 -61.5t-49.5 -28.5t-61.5 -15t-54 -20t-29 -43q-2 -8 -2 -17q0 -28 16 -69q0 -10 2.5 -49.5t2.5 -75.5t-5 -60q4 -2 12 0t14.5 4.5 t13 0.5t7.5 -11q-2 -14 -6.5 -43.5t-7.5 -53t-5.5 -52.5t-2 -55t4.5 -46q-25 -44 -56.5 -69t-58 -32t-65.5 -23.5t-72 -42.5q-7 2 -16 2q-24 0 -61 -17q-50 -23 -84 -49q-47 5 -126 5.5t-137.5 3t-123.5 13t-115 40.5t-82 81q-27 1 -51.5 21t-40.5 45t-39.5 53t-46.5 41 q-53 138 -53 317q0 52 4 107z" />
<glyph unicode="H" horiz-adv-x="1478" d="M125 1329q13 -3 23 6.5t14 10.5q115 -49 153 -127q-11 -30 -17 -63q-3 -19 -3 -39q-1 -15 1 -32q4 -38 26 -57q-11 -33 -11 -62q0 -8 1 -14q4 -34 12 -94q7 -49 6 -77v-13q16 -11 43 -11q21 0 49 7q64 16 111 32q20 7 39 8q25 0 49 -13q27 19 58.5 19.5t59.5 -6.5 q13 -3 30 -3q19 0 44 4q22 5 65 19q44 14 82 22q26 5 50 5q12 0 24 -1q2 36 2 77.5t-2 87.5q-4 92 -9 160q-2 31 -2 69q0 46 3 102q6 102 27 210h2q34 0 145 -51q11 -79 11 -204.5t9 -237t42 -209.5q4 -12 20 -12.5t25 -10.5q14 -22 10.5 -47t-13.5 -42t-20.5 -43.5 t-9.5 -51.5q0 -37 38.5 -118.5t45.5 -116.5q3 -18 14 -64q10 -46 16 -82q5 -30 5 -49v-6q0 -32 -29 -74t-33 -57q-38 33 -68 33q-11 0 -20 -4q-37 45 -61 140t-39.5 189t-28.5 121q-10 7 -8 32t-6 52h-14q-107 0 -266 -14q-169 -15 -277 -35q-5 6 -16.5 13t-14.5 9 q-14 -5 -25.5 -8.5t-25.5 -6t-21 -3.5t-26.5 -3t-28.5 -3q-15 -26 -17 -80q-1 -18 -1 -36q0 -36 3 -71q4 -53 10 -113q5 -50 5 -76v-9q3 -8 21.5 -11t23.5 -6q12 -2 9.5 -51.5t11.5 -54.5q-7 -46 -26 -76t-61.5 -71t-64.5 -68q-41 6 -61 14q0 3 -3.5 18.5t-5.5 28.5t-1.5 29 t5.5 25q-4 5 -19 29.5t-19 29.5q-9 163 -28.5 428.5t-29.5 459t-12 398.5z" />
<glyph unicode="I" horiz-adv-x="569" d="M180 25v5q0 10 4 30q6 27 6 32q2 2 5 8.5t6 8.5q3 10 3.5 18t1 13t-1.5 13.5t-3 12.5t-6 17t-7 20q12 89 16 163q4 66 4 98v8q0 30 -7 106.5t-8 95.5q-1 14 3 42q4 26 5 56q-1 4 -1 8q0 36 -12 76v40q0 121 15 261q-11 11 -16 36.5t-1 55.5q4 20 3.5 57t0.5 52 q6 49 17 70.5t33 21.5q13 -11 25 -15t18 -4t11.5 -7t10.5 -25q17 19 31 -22q11 -32 11 -60q0 -17 -4 -34q-5 -22 -19 -26q39 -13 22 -24q-16 -17 -9.5 -38t15 -34.5t-11.5 -36.5q11 -11 22 -14q-9 -28 -7.5 -60t7.5 -57.5t3 -55t-21 -52.5q10 -9 12.5 -40t14.5 -40 q-7 -51 -7 -105q0 -42 4 -86q5 -53 5 -107q0 -48 -4 -97q15 -1 17.5 -14t-3.5 -27.5t-13 -26.5t-8 -12q17 -36 9 -61t-6 -33q1 -6 -3 -19t-1.5 -22.5t16.5 -16.5q2 -15 6 -38q3 -24 9 -68q5 -38 6 -53q0 -40 -29 -68q-2 0 -6 -1t-5 -1q-22 3 -57.5 7t-58.5 7 q-20 4 -38.5 23.5t-23.5 38.5z" />
<glyph unicode="J" horiz-adv-x="1024" d="M21 242.5q0 12.5 1 31t1 27.5q18 8 38.5 9t36 -2t36.5 -7.5t34 -5.5q5 -13 24.5 -33.5t22.5 -25.5q45 -17 92 -44t74 -41t70 -22q15 -3 31 -3q33 0 72 10q61 16 151 54q21 36 27 76q4 25 4 47q0 16 -2 30q-4 36 -8 71q-2 15 -2 30q0 20 4 41q5 36 26 66q-1 9 -7 18.5 t-16.5 20.5t-11.5 12v62q20 18 20 33t-10 30t-10 25q-1 64 -17.5 149t-49 211.5t-40.5 161.5q-14 -1 -30 -1q-28 0 -58 3q-48 6 -95.5 20.5t-79 39.5t-40.5 60q-2 9 -2 18q0 29 23 67q49 -3 121 -17t120 -23q31 -6 68 -6q20 0 43 2q62 5 117 31q14 -15 49.5 -8t63.5 15.5 t51 -11.5q23 17 14 29q-2 3 3 4h28q6 -9 8.5 -22.5t2 -23.5t4.5 -17.5t17 -6.5q-6 -76 -31.5 -100.5t-88.5 -32.5q-3 13 -9.5 18t-15 3t-18 -6.5t-18 -10t-15.5 -9t-11 -2t-4 10.5q-23 -10 -23 -13q0 -2 4 -3q10 -3 -4 -12q-7 -4 -18 -10q13 -97 30.5 -164t30.5 -103 t25.5 -91t19.5 -164t9 -287q-9 -19 -9 -48q0 -19 4 -43.5t4 -43.5q0 -29 -9 -46v-129q-3 1 -14 -7.5t-15 -8.5q-21 -15 -13 -32.5t1 -26.5q-32 -35 -78 -56q-37 -17 -74 -17q-10 0 -20 1q-76 -24 -150 -26h-15q-65 0 -117 12q-59 13 -121 42.5t-104.5 58.5t-94.5 69 q-1 6 -10 22.5t-9 20.5q-15 -1 -24 5t-11.5 19t-2.5 25.5z" />
<glyph unicode="K" horiz-adv-x="1366" d="M119 575q12 6 33.5 27.5t35.5 26.5q2 98 11.5 282.5t11.5 280.5q1 15 -1.5 46t-3 50t8.5 42.5t29 39.5q-3 14 -3 31q0 24 7 53q12 48 12 80q70 -27 107 -31q40 -76 40 -131q0 -6 -1 -12q-4 -49 -20.5 -140.5t-25.5 -173.5q-5 -46 -5 -88q0 -33 3 -63q2 -23 17 -71.5 t16 -75.5q48 21 98.5 65.5t88.5 97.5q72 48 151 119t138 131.5t136.5 129t145.5 112.5q59 -17 88.5 -34.5t33.5 -33.5t-12 -38t-38.5 -41t-56.5 -51t-56 -60q-2 -3 -3.5 -15.5t-4.5 -15.5q-29 -30 -74 -64t-80 -64.5t-57 -65.5q-8 -1 -17 3t-16 3q-5 1 -7.5 -2t-2 -7.5 t1 -10t1 -10.5t-0.5 -9q-47 -39 -133 -103t-150.5 -118.5t-118.5 -116.5q34 -12 107.5 -57t114.5 -60q8 -3 12 -12t12 -12q21 11 35 12t19 -4t10.5 -12t9.5 -9q188 -71 330.5 -151t232.5 -183q-17 -57 -73 -65q-7 -1 -15 -1q-47 0 -76 44q-4 0 -5 -2.5t-1.5 -7t-1.5 -6.5 q-7 5 -27.5 17t-29.5 21q-6 6 -22 3t-27 -3q-28 27 -100 64.5t-103 77.5q-16 -9 -43.5 0t-38.5 6q-9 15 -24 18t-34.5 1t-48.5 5t-79 45q-49 38 -97 62q-31 16 -59 15q-16 0 -31 -5q34 -59 34 -151.5t-34 -218.5q-10 -7 -12 -6t-8 6.5t-13 7.5q-8 -5 -3.5 -14t3.5 -17 q-12 0 -23 1t-15 1t-10 -2t-15 -8q-47 17 -65 65q-18 46 -17 102v6q1 60 3 118v14q0 50 -12 92q-14 48 -52 62q-2 23 -22 76q-14 39 -15 70q0 11 2 21z" />
<glyph unicode="L" d="M109 535q17 69 18 145v15q0 71 -8 161q-10 113 -10 147q0 23 10 63q11 44 12 62q0 26 -10.5 72.5t-11.5 65.5v10q1 6 1 10q2 6 5 6t6.5 0.5t7 7t4.5 21.5q1 22 -9 62q-9 41 -12 65v8q0 23 13 55q79 -14 135 -43q29 -75 37 -173q4 -54 4 -107q-1 -44 -3 -86 q-6 -94 -8 -212q-1 -28 -1 -56q0 -89 6 -177q1 -13 11 -38t11 -37q9 -70 9 -128q0 -22 -2 -42q-2 -37 -2 -77.5t2 -84.5q4 -87 28 -148q103 32 203.5 56t198.5 39q92 14 174 14h10q86 -1 143 -21q-1 -10 9 -27t19 -31q12 -18 12 -33q0 -13 -13 -21q5 -32 -5.5 -41t-26 -1.5 t-28.5 7t-12 -15.5q-7 0 -15.5 6t-12 6.5t-13.5 -10.5q-11 -1 -25 5.5t-21 7.5t-29 -15q-12 17 -24 19t-24 -5t-31 -9.5t-44 5.5q-4 -2 -10.5 -9t-11.5 -11t-17.5 -4t-30.5 7q-104 -56 -181.5 -75t-240.5 -35q-10 5 -32 28t-44 25q-94 210 -94 439q0 32 2 65 q-3 7 -11.5 32.5t-16.5 35.5z" />
<glyph unicode="M" horiz-adv-x="1705" d="M90 31q7 32 70 271t80 370q9 -1 12.5 4.5t3 13t3 12.5t13.5 3q-3 21 -3 44q0 33 6 71q10 64 31 156t30 154q2 16 0 49t0 50q6 48 32.5 122.5t28.5 123.5q17 -9 19.5 -3t7 20.5t14.5 16.5q2 11 14 11q17 0 20 -27v-2q11 -2 15.5 3t7.5 16t5 14q93 -19 137.5 -83.5 t44.5 -185.5q21 -27 37 -34q18 -139 67.5 -311.5t100.5 -284.5q77 85 160 397q4 12 4 41q0 11 -1 25.5t-1 25.5q0 29 4 43q6 22 35.5 80t35.5 92q1 5 2.5 15.5t2.5 13t4 10.5t8 15t14 18q6 0 16 -1q39 -2 55.5 -5t37.5 -15t33.5 -37.5t25.5 -70.5q7 -23 24.5 -38.5 t22.5 -35.5q4 -18 8.5 -33.5t6.5 -22.5t4 -19.5t4 -32.5q2 -15 13 -39.5t20.5 -43.5t14 -42t-6.5 -35q18 -16 21 -48.5t-1.5 -62t2.5 -59.5t33 -43q3 -10 -1.5 -14.5t-12.5 -6t-11 -4.5q31 -14 41 -57q-3 -9 -9.5 -13.5t-11.5 -5.5h-5q1 -8 2 -12t2 -6t4.5 -1t6 2.5t8.5 5 t11 5.5q3 -11 3 -50t7 -68.5t29 -36.5q-11 -13 -10 -37.5t-12 -28.5q1 -2 3.5 -6t3 -5t3.5 -2t7 -0.5l12 1.5q11 -20 9 -24.5t-10 -8.5t-8 -10q5 -13 17.5 -11.5t17.5 -7.5q-18 -4 -12.5 -18.5t12.5 -26t-18 -18.5q30 -23 37 -53t20 -47h-22q9 -44 30 -74q-7 -1 -15 4t-15 4 q-1 -14 4.5 -26t7.5 -17t-6 -23q-12 14 -18 -2q-3 -12 3 -30q-22 6 -41 3t-53.5 -12t-46.5 -10q-22 16 -28 43q-6 26 -4 56q4 42 3 65q1 29 -13 58q-14 31 -50 53q-19 107 -26.5 239t-24.5 234q-25 41 -37 43q4 2 4 25q0 39 -12 141q-18 160 -27 178q1 -2 -15 -48 q-14 -46 -26 -98q-6 -28 -6 -47q0 -16 4 -24q-5 -18 -23.5 -25t-23.5 -18q2 -18 2 -36q0 -41 -12 -84q-18 -61 -56 -141.5t-53 -125.5q0 -17 -0.5 -49.5t-1 -49t-2 -39.5t-5.5 -40t-11 -31q-7 0 -30.5 -30t-25.5 -36q-12 3 -28 29.5t-39 24.5q-44 58 -82.5 143t-60.5 151 t-54 173q-7 23 -10 34q-94 229 -146 449q-13 -7 -15 -52q-1 -16 -1 -32q0 -28 2 -54q4 -40 0 -59q-16 6 -16 21q-7 -53 -18 -120.5t-18 -123.5t-11 -119q-7 1 -10.5 -14.5t-4.5 -34t-5.5 -32.5t-12.5 -11q10 -27 10 -55q0 -16 -4 -32q-10 -44 -27 -73.5t-33.5 -73 t-15.5 -85.5q-7 -1 -16.5 -13.5t-24.5 -11.5q1 -20 -4 -61q-3 -26 -3 -47q0 -13 1 -23q-48 -36 -80 -123q-14 -5 -27 -5q-12 0 -20 4q-20 8 -30 20.5t-26 30t-32 24.5z" />
<glyph unicode="N" horiz-adv-x="1478" d="M121 1397q1 3 15 12.5t23.5 26.5t4.5 41q25 -3 49.5 -11.5t58 -25t39.5 -19.5q126 -236 307 -448q-6 -26 11 -56t45.5 -59t57.5 -59.5t49 -67.5q18 -34 18 -67v-7q29 -29 113.5 -130t138.5 -144q20 32 20 137v10v9q0 106 23 137q6 94 22.5 223.5t28 216t11.5 198.5 q0 3 1 5q0 109 -20 205q25 13 49 13l2 -1q24 0 41 -7.5t43 -16.5t49 -11q12 -13 8.5 -27t-1 -25.5t19.5 -12.5q-1 -3 -2.5 -11t-3 -12t-4.5 -9t-7 -7q3 -3 9.5 -8.5t10.5 -11t5 -11.5q-8 -51 -16.5 -150.5t-21.5 -172.5t-38 -130q2 -52 2 -120q0 -75 -3 -168 q-7 -178 -7 -291v-19q0 -109 16 -278q-21 4 -32 -9.5t-9 -33.5q-37 -15 -61 -15q-5 0 -10 1q-26 4 -48 25t-35.5 44t-32.5 42.5t-40 21.5q1 22 -29 59t-70 74t-90.5 93t-80.5 105q-46 76 -148.5 202.5t-120.5 150.5q-3 8 -8.5 24t-8 21t-8 15.5t-11.5 15t-15.5 10.5 t-23.5 10q4 38 -5 54t-23.5 20t-17.5 10q-10 -18 -14.5 -38.5t-2 -47t4.5 -41.5t9 -46.5t8 -37.5q-2 -9 -12.5 -33t-12.5 -39q-1 -8 -1 -17q-1 -35 11 -98q14 -80 15 -118q0 -15 -6.5 -36.5t-12 -38t-4.5 -39.5t14 -44q-14 -41 -16 -97v-11q0 -50 16 -95q-20 -22 -23 -89 t-9 -91q-4 -2 -12 -2q-10 0 -24 4q-26 6 -44 -2q-11 18 -47 39t-50 47q-4 41 -4 87t2 104t2 92v10q0 35 6 97q4 46 4 81q0 20 -1 37q-1 6 -3.5 23t-4.5 30.5t-1 18.5t13 22t12 25q0 14 -12.5 41.5t-12.5 44.5q0 8 12 27q13 21 13 31q0 22 -12.5 69.5t-12.5 72.5q0 13 6 35 q5 18 9.5 31t3.5 26t-10 21q-4 30 -4 62v28q2 48 9 86q2 16 2 35q-1 25 -5 55q-8 50 -37 99z" />
<glyph unicode="O" horiz-adv-x="1593" d="M86 418q2 8 13 16t12 15q-18 14 -20.5 30t4 45t7.5 47q1 15 -7.5 38t-8.5 30q2 18 16.5 47.5t16.5 44.5q4 21 0.5 39t3 37t27.5 31q-3 12 -3 26q0 38 21 94q29 76 31 99q13 4 33.5 15t29.5 15q-13 31 -12.5 45t10 25.5t21 19t19.5 24.5t5 42q25 3 55 47q-2 3 -9.5 5 t-10.5 3q59 89 108 89q10 0 19 -3l-3 4q-3 5 -4 7t-3 6.5t-1 7t2 6t5.5 6t11.5 4.5q0 2 2 5.5t21 17.5t55 31q15 -23 23.5 -30t11 0t3 18t0.5 23t3 15q24 -2 53 -15t39 -32q1 8 3 19q4 20 8 22q1 0 4 1q9 3 16 7q4 -13 34 -39.5t31 -46.5q7 1 30.5 19t37.5 16q13 -3 27 -3 q21 0 44 7q37 11 64 13q4 -8 46 -21.5t46 -21.5q12 8 23 3.5t19 -15t20 -15t24 3.5q20 -33 67.5 -79t77.5 -84q26 -33 25 -62v-8q3 -3 23 -31.5t37 -32.5q-1 -14 4 -31t2 -35q13 8 26 5q-7 -28 -4 -30t15 -11.5t16 -30.5q4 -17 -2.5 -26t-15.5 -9h-9q-3 -16 9.5 -23t31.5 5 q3 -10 12.5 -45.5t11.5 -44t7 -34.5t5 -39t-1.5 -34t-5.5 -43q0 -4 8 -9l8 -5l-5 -28q-12 -72 -17 -87q4 -10 4 -22q0 -34 -37 -76q-16 -18 -26.5 -64.5t-20.5 -64.5q-13 -24 -50.5 -65t-60.5 -58q-24 -17 -55.5 -49t-54.5 -55.5t-57 -42t-70 -19.5q-7 -1 -11.5 -6 t-7.5 -13.5t-6 -11.5q-19 1 -37.5 0.5t-33.5 -3.5t-25.5 -12t-13.5 -24q-55 0 -116.5 -16.5t-96.5 -20.5q3 14 -10.5 20t-14.5 11q-14 -11 -31.5 -15.5t-51 -5.5t-46.5 -3q4 19 -11 22.5t-41 0t-36 -0.5v23q-14 -10 -35.5 -1t-27.5 23q-2 0 -16.5 10.5t-29.5 16.5t-36 0 q-100 78 -147.5 157.5t-92.5 227.5zM317 395q15 -33 51 -96.5t52 -99.5q48 -47 142 -67q69 -14 138 -14q25 0 49 2q93 7 166 32q9 7 27 22t29.5 24t30.5 17.5t40 11.5q18 29 47.5 59.5t56 55.5t51.5 53t41 63t19 74q3 2 10 7t10.5 8t7 9.5t3.5 14.5q1 24 1 47q0 166 -55 328 q-63 186 -167 279q-69 27 -117 33q-17 2 -31 2q-27 0 -47 -8q-30 -12 -51.5 -28t-49.5 -36.5t-58 -28.5q2 26 -9.5 29.5t-27 -6.5t-31 -13.5t-20.5 7.5q-1 18 2.5 34.5t7 24.5t4.5 15.5t-5.5 13.5t-23.5 14q-9 -21 -48 -47.5t-48 -36.5q-4 -4 -10 -28t-12 -33 q-3 -3 -17 -7.5t-16 -7.5q-94 -144 -132 -342q-22 -114 -22 -223q0 -80 12 -158z" />
<glyph unicode="P" horiz-adv-x="1366" d="M2 1212q1 3 6 12.5t9.5 18t7.5 18.5t1.5 16.5t-8.5 8.5q3 2 31.5 20.5t49 40.5t24.5 48q82 59 123 71.5t155 20.5q14 0 17 14q29 10 49.5 9.5t32.5 -9.5q94 29 195 30q177 0 380 -89q77 -46 132.5 -133.5t61.5 -186.5q0 -7 1 -14q0 -91 -72 -168q-10 -48 -41.5 -90 t-63 -66t-82 -58.5t-73.5 -53.5q-22 -39 -64 -61t-81.5 -28t-85.5 -19t-72 -34q-7 -18 -32 -34.5t-58 -32t-45 -23.5v-14q0 -52 14 -110q16 -66 39.5 -140.5t32.5 -116.5q3 -16 3 -31q0 -42 -23 -72q-30 -39 -99 -38h-4q-37 52 -58 139t-36.5 185t-34.5 149q-16 17 -46.5 38 t-50 41.5t-24.5 49.5q-1 7 -1 14q0 50 67 109l2 -9q6 -4 20 19q12 23 12 45q0 34 -30 66q-1 20 -0.5 31t6 21t8.5 13.5t16 16.5q-21 36 -25 100q-2 23 -2 46q0 40 5 80q8 61 11 125q1 21 1 39q0 36 -4 60q-22 -4 -43.5 -10t-45.5 -16t-40 -25t-18 -33q-15 -15 -15 -28 q2 -17 31 -27q-3 -9 -8 -14q-20 -4 -29 -15q-18 2 -26.5 0.5t-15.5 0t-9 1t-7 3t-8.5 6.5t-14.5 11t-25 17q5 9 1 14.5t-13 15t-11 15.5zM436 1022q2 -31 5 -78t5 -73q1 -20 1 -49q-1 -10 -1 -20q0 -43 -4 -91q20 -11 16.5 -45.5t20.5 -47.5q9 4 32 12t34.5 12.5t31.5 15 t39 24.5q14 9 41.5 20.5t36.5 16.5q7 5 13.5 20.5t15.5 24.5q16 16 52.5 21t55.5 24q16 15 50 37t43 31q32 34 75 118q6 12 19.5 34t22.5 38t12 25q13 38 13 71q0 32 -12 59q-24 55 -77.5 88.5t-119.5 45.5q-36 7 -70 7q-28 0 -54 -5q-49 14 -105 14q-22 0 -46 -2 q-84 -8 -131 -43q13 -28 13 -69t-7.5 -77t-14.5 -82q-6 -40 -6 -69v-8z" />
<glyph unicode="Q" horiz-adv-x="1593" d="M78 690q12 9 16.5 18t4.5 15t-3 21.5t-4 25.5q4 0 22.5 23.5t22.5 23.5q-16 6 -10 22.5t-12 22.5q6 29 15 57t16.5 48.5t22.5 49t22.5 42.5t28 44.5t27.5 40.5t32.5 45t31.5 44q21 19 49.5 40.5t50 41t42.5 47.5q13 1 24.5 6.5t17 10.5t15 16t12.5 14q5 -9 27 4.5t26 9.5 q14 25 57 39q19 5 34 5q19 0 32 -9q19 7 63.5 26t76.5 27q24 6 51 6q10 0 20 -1q4 1 5.5 3.5t2.5 9t1 7.5q77 -18 116 -18q32 0 39 12q17 -6 57.5 -22t71 -27t49.5 -15q9 -20 29.5 -37t39.5 -27.5t33.5 -32t14.5 -50.5q9 -8 31.5 -34.5t38.5 -37.5q-3 -6 -3 -17 q0 -26 21 -79q31 -74 29 -80q2 -25 2 -53q0 -26 -1 -54q-4 -61 -6.5 -89t5.5 -58q-11 -147 -31.5 -246.5t-64.5 -197.5q-10 -3 -23.5 -4t-17.5 2q0 -4 1.5 -13t2 -17t-0.5 -17t-7.5 -16.5t-18.5 -12.5q-14 2 -27 -3t-20 -5q11 -14 8 -35q-16 -5 -26.5 -11.5t-14 -14.5 t-4.5 -16t4 -18l9 -18t13.5 -18.5t14.5 -16.5t14.5 -15.5l12.5 -12.5q21 -13 60 -35t54.5 -32.5t38.5 -34.5t41 -58q-16 -4 -41 -26.5t-54 -40.5q-26 -17 -55 -17h-3q-11 1 -17 4t-8.5 8t-11 13.5t-23.5 17.5q-6 3 -20.5 3t-18.5 3q-26 21 -48.5 63t-43 67t-53.5 22 q-16 -20 -79 -39t-75 -25q-7 -3 -12.5 -13.5t-11.5 -13.5q-40 -27 -170 -35q-34 -1 -59 -1q-75 0 -85 16q-139 12 -243.5 73.5t-167 161t-93.5 224.5t-32 274zM244 590v-12q0 -65 19 -118q21 -58 50.5 -110.5t38.5 -91.5q15 -13 52.5 -50t61 -56.5t66.5 -35.5q30 -12 62 -12 q12 0 24 2q20 10 58 9t61 -11q7 8 27 13.5t38 7t45 3.5t34 3q5 4 16.5 20.5t22.5 23t24 -0.5q5 22 5 40q0 15 -3 26q-9 26 -30 52.5t-42.5 47t-36.5 51.5q-13 26 -13 54q0 6 1 12q29 14 54 13.5t39 6.5q29 3 38.5 -7t14.5 -24.5t18 -19.5q20 -6 37 -23t37 -30t51 -15 q92 123 141 298q44 157 44 329q0 22 -1 43q-6 139 -44.5 214.5t-131.5 115.5q12 -22 20 -40t15.5 -44t8 -47t-6.5 -44.5t-24.5 -41t-50 -33t-78.5 -23.5q0 9 8 21q-26 -3 -53 0q2 13 -3.5 25t-5.5 18q4 9 20.5 18t18.5 11q4 38 -5.5 62t-23 32.5t-40.5 21.5t-43 25 q-11 -6 -33 -2t-31 2q-34 -8 -73.5 -39.5t-74 -63.5t-53.5 -38l-5 14q-2 1 -3 0q-10 -11 -18.5 -38t-12.5 -34q-10 -18 -52 -29.5t-56 -29.5q-14 -17 -34 -57.5t-27 -51.5q-1 -2 -15 -3t-16 -3q-13 -18 -23 -57q-6 -20 -24 -119q-18 0 -18 -20q0 -18 16 -54q-9 -5 -15.5 -7 t-10.5 -2.5t-12 -1t-16 -1.5q-2 -12 3 -42.5t0 -44t-31 -7.5z" />
<glyph unicode="R" horiz-adv-x="1478" d="M25 1251q18 10 48 12t47 7.5t17 25.5q21 10 62.5 19.5t71.5 24.5t46 46q19 5 58 9t63.5 13t42.5 30q20 -8 47 0t43 0q17 2 17 39q48 1 132.5 8.5t136.5 8.5q10 0 20 1q44 1 97 -5q65 -6 115.5 -34t90.5 -78q62 -14 97.5 -44t35.5 -91q4 -9 13.5 1.5t16.5 -1.5 q7 -19 4.5 -29.5t-10 -30t-8.5 -30.5q-1 -4 7 -10.5t7 -12.5q-8 -76 -43.5 -152.5t-85 -140.5t-114.5 -125.5t-128 -108t-130 -87.5q90 -35 164 -43q63 -8 119.5 -38.5t121 -80.5t96.5 -69q30 -18 81 -61.5t85 -65.5q-8 -7 -11.5 -14.5t1 -14t17.5 -8.5q-2 -22 -13.5 -32.5 t-24 -12.5t-24 -12.5t-12.5 -32.5q-33 1 -67 18.5t-54.5 35t-55 50.5t-48.5 45q-35 8 -108.5 57.5t-127.5 57.5q-3 -17 -39 -23q-23 15 -78 30.5t-69 33.5q-53 -7 -124 -8t-113.5 -2t-94 -16.5t-92.5 -49.5q19 -36 31.5 -91.5t15.5 -86t6.5 -108.5t3.5 -80q-27 -6 -56.5 -20 t-39.5 -24q-42 14 -68 40t-37 62.5t-15 69.5t-7 78.5t-8 71.5q-1 9 -11 24t-12 21q-13 53 -14 117v17q0 54 6 98q6 51 12 117q4 50 4 90v26q-4 81 -4 156q0 135 12 249q-15 -8 -28.5 -9.5t-37 0.5t-40.5 1q-16 18 -26.5 39.5t-14 35t-9.5 48t-9 49.5zM330 1128 q26 -28 37.5 -50t12 -37t4.5 -50t13 -73q-11 -7 -17.5 -6.5t-19.5 4t-22 2.5q-5 -22 -5 -80q0 -39 2 -94q3 -75 3 -126q0 -43 -2 -69q8 -9 22 0t27 5.5t12 -32.5q51 28 119.5 61.5t117.5 57t109.5 56.5t106 63.5t96 75t90 94.5t77 118.5t67.5 149.5q-18 42 -63 66.5 t-101 29.5q-33 3 -66 3q-22 1 -44 -1q-53 -4 -101 -14h-14q-51 0 -95 -12q-52 -14 -120 -45t-101 -43q-17 -6 -27 1t-12 7q-27 -31 -53.5 -32.5t-52.5 -29.5z" />
<glyph unicode="S" horiz-adv-x="1366" d="M31 379q11 1 32.5 12t39 20.5t39 14t32.5 -7.5q3 -28 16.5 -47t27.5 -28t26.5 -23t15.5 -33q40 -9 69 -27t62.5 -47.5t59.5 -46.5q2 0 10 2t11.5 2.5t11 2t11.5 1t11 -1t11 -2.5t9 -5t8.5 -8t6.5 -12q6 0 14 7.5t10 13.5q2 0 13 -5t18 -3t8 16q4 0 8 -0.5t6 -1.5t5 -4 l4 -4t4.5 -6t3.5 -6q33 20 72 24q16 2 31 2q21 0 40 -4q32 -6 70 -8q10 -1 20 -1q27 0 52 5q13 3 44.5 34.5t49.5 41.5l-10 53q1 0 13 2.5t19 5t18 7.5t17 13.5t8 20.5q1 11 1 22q0 28 -8 50q-12 32 -42.5 58.5t-55 42.5t-65.5 38q-10 5 -51.5 32.5t-62.5 35.5 q-9 3 -32.5 4.5t-27.5 3.5q-15 5 -33 22.5t-28 22.5q-12 5 -39.5 -6.5t-38.5 -7.5q-23 11 -111.5 34.5t-126.5 47.5q-50 7 -81 33.5t-60 69.5t-53 64q-29 73 -29 146q0 23 3 45q12 96 65 188q53 31 150 60.5t149 68.5q-1 -8 15 -16t26 -8q17 14 41.5 17.5t38.5 2t50.5 -10 t43.5 -9.5q17 24 51 18.5t64.5 -23.5t63.5 -29.5t50 -0.5q8 -4 21.5 -14t26 -16t28.5 -7q5 -10 21.5 -38t26.5 -47t22 -47.5t11 -47t-7 -36.5q-6 -19 -32 -27q-23 -8 -59 -7h-8q6 35 -13.5 60t-46.5 36.5t-60.5 26.5t-47.5 29q-60 10 -106 14t-111 4t-121.5 -17t-99.5 -50 q-6 1 -12 1q-41 -1 -61 -45q-15 -33 -15 -68q0 -19 4 -38q48 -62 93 -92q44 -31 82 -35q25 -3 49 -3q13 0 23 1q9 1 18 1q26 0 54 -4q40 -6 76 -30q7 -1 15.5 3t15.5 3q28 -29 79.5 -42t97.5 -27.5t67 -48.5q25 -2 40.5 -4t35.5 -7.5t31.5 -15t15.5 -24.5q91 -44 143 -130 q43 -71 43 -129q0 -12 -2 -24q-1 -8 -1 -16q-1 -34 17 -71q19 -40 19 -65v-6q-1 -9 -31 -39t-33 -37q0 -15 9 -22q21 -13 -13 -14l-34 -2q-2 -4 -1.5 -21t-1.5 -20q-97 -127 -374 -138q-4 -1 -8 -7.5t-9 -6.5q-10 -1 -25 -1q-42 0 -116 6q-38 3 -66 4q-47 0 -67 -9 q-70 38 -111 38q-20 0 -32 -9q-36 24 -100.5 54.5t-110.5 60t-72 69.5q14 0 14 18q-19 16 -53 23q0 14 1 26.5t-7 18.5t-25 0q12 23 9 38t-12 21q-8 7 -15 23q-5 12 -5 27q0 6 1 14z" />
<glyph unicode="T" horiz-adv-x="1251" d="M-29 1333q3 24 11.5 33.5t17.5 23.5t10 29q36 -7 61.5 -3t35 11.5t28 8.5t39.5 -11q42 37 86 43q17 2 32 2q26 0 50 -7q36 -11 71 -21q17 -5 34 -4q19 0 35 4q34 10 61 53q17 -5 50 -5t52.5 -6.5t26.5 -29.5q13 -1 25 0.5t16 1.5t10 -3.5t16 -14.5q7 2 27 8t28.5 7.5 t23 1t25 -8.5t19.5 -23q13 19 50.5 17.5t69 -9t54.5 6.5q19 -27 40 -29.5t38 29.5q2 -4 13 -4.5t18.5 -7t3.5 -25.5q26 16 54 16t49.5 -10t47 -31.5t40 -38t32.5 -39.5q-1 -21 -16.5 -31.5t-36.5 -17.5t-29 -18q-233 52 -557 55q-16 -8 -11 -37.5t12.5 -54t-11.5 -41.5 q7 -81 10 -272t23 -322q3 -13 -14 -24t-15 -19q10 -79 14.5 -244.5t22.5 -259.5q-9 -9 -13 -14.5t-8 -13.5t-10 -17q-24 -6 -46 -6q-27 -1 -50 9q-41 16 -62.5 46.5t-36 88t-18.5 98.5t-8 108q-9 156 -9 242q0 33 1 55q1 18 7.5 53.5t5.5 59t-13 47.5q14 86 17 246t14 241 q-49 17 -111 17q-3 0 -6 1q-58 1 -106 -9q-52 -10 -125.5 -20t-131.5 -11q-5 2 -32 22t-43 19q-10 28 -10 49q0 5 1 10z" />
<glyph unicode="U" horiz-adv-x="1478" d="M135 998q3 78 3 125q0 28 -1 44q26 52 35 158t18 148q7 -1 19 3.5t16.5 2t1.5 -20.5q28 17 52 20t39 -3t34.5 -12t34.5 -5q3 -28 3 -66q0 -101 -20 -274q-22 -194 -21 -316q0 -28 1 -52q6 -145 37 -306q50 -240 154 -350q11 0 14 -8q39 0 71.5 24t50 52t41 70.5 t36.5 60.5q7 10 48 45.5t48 50.5q97 202 158 508q17 84 29.5 195t16.5 177t13 216q22 19 54 20h5q31 -1 79 -11q52 -12 67 -13q21 -49 25 -109q2 -32 2 -60q1 -26 -1 -48q-1 -14 -1 -28q0 -39 6 -89q-3 -9 -21 -27.5t-27 -19.5q1 -63 7 -142t15.5 -187t14.5 -177 q1 -18 3.5 -57t4.5 -64t6.5 -55.5t10.5 -50.5q6 -29 3.5 -63.5t-9 -63.5t1 -59.5t33.5 -51.5q7 -42 7 -71q1 -22 -3 -36q-8 -34 -41 -65q-10 2 -36.5 10t-38.5 9t-38 -5q-53 12 -71.5 52t-23.5 113t-16 108q24 36 28 82q1 17 1 33q0 29 -4 58q-7 45 -6 54 q-30 -33 -65.5 -107.5t-62.5 -141t-72 -127.5t-97 -79q0 -6 1.5 -10.5t3 -6t0.5 -4t-5 -7.5q-34 -15 -73.5 -27t-96 -26t-66.5 -17q-4 14 -23.5 21.5t-39.5 9.5t-34.5 9.5t-10.5 21.5q-32 2 -61.5 17.5t-54.5 41.5t-44 50t-41.5 56.5t-34.5 47.5v10q-1 35 -17 99 q-20 72 -20 112q-6 8 -17.5 30t-20.5 31q1 19 16 62.5t20 48.5q-38 84 -48 186q-7 68 -7 146q0 38 2 80z" />
<glyph unicode="V" horiz-adv-x="1366" d="M0 1339q2 2 9.5 6.5t10 6.5t6.5 7.5t5 10.5t0 13.5t-4 19.5q24 -8 75.5 -10.5t85.5 -22.5q2 -4 12.5 -31.5t14.5 -37t14.5 -26.5t22.5 -28q-2 -5 -2 -12q0 -18 14 -54q20 -50 8 -59q97 -152 105 -233q21 -40 46 -81t42 -74t37 -89q51 -65 125 -224.5t121 -215.5 q23 36 38 116.5t25 110.5q11 31 52 104t46 109q7 47 36 138t38 130q5 21 26.5 61.5t26.5 51.5q62 176 95 297t49 250q23 -23 80 -24t88 -21q10 -36 10 -74q0 -5 1 -10q1 -34 -3 -58q-4 -28 -18.5 -73t-24.5 -70t-33 -80q-11 -114 -48 -233.5t-102 -279t-83 -210.5 q-11 -31 -21.5 -82.5t-25 -88.5t-44.5 -72q9 -4 12.5 -24.5t-1.5 -37.5q-26 -22 -49.5 -58.5t-39.5 -68t-42.5 -65t-57.5 -52.5q-11 3 -37.5 8.5t-42.5 10t-35 16t-30 27.5q-112 290 -170 412q-13 25 -31.5 70t-25.5 59q-3 7 -15.5 11t-17.5 11q-6 8 -12 39t-13 45 q-16 36 -65.5 112.5t-63.5 108.5q-4 9 -4.5 27.5t-3.5 25.5q-6 12 -24.5 28.5t-24.5 25.5q-18 30 -43 107t-31 91q-4 11 -17.5 31t-15.5 31q-1 2 -2.5 16.5t-3.5 20.5q-1 6 -15.5 21.5t-17.5 23.5q-2 8 0 20t4 20.5t-2.5 17t-17.5 11.5z" />
<glyph unicode="W" horiz-adv-x="1933" d="M17 1447.5q0 6.5 0.5 18t2.5 27.5q14 -2 50 8q30 8 47 8h6q39 -35 66.5 -95.5t55.5 -117.5t68 -88q21 -98 68.5 -215t92.5 -229.5t63 -202.5q24 -31 43.5 -85t30.5 -99.5t37 -90.5t65 -65v25q0 73 14 154q17 95 39.5 168t45 168t28.5 173q24 0 32 -16q-5 21 -5 42 q0 27 8 55q14 50 33 110q18 57 18 111v6q19 -3 32.5 2t20.5 13.5t20 16t32.5 9.5t58.5 -5q22 -80 42.5 -203t43 -220.5t61.5 -174.5q2 -47 19 -106.5t33.5 -99.5t48.5 -110t42 -95q26 11 46 49q17 32 17 63q0 6 -1 13q49 45 84.5 168.5t62.5 164.5q12 103 42.5 236.5 t50.5 247.5q18 100 18 194v27q23 1 48.5 -15t31.5 -18q17 23 35.5 27t31.5 -10q-3 -19 8 -27.5t27 -3.5q3 -1 6 -19.5t19 -21.5q-12 -37 -12.5 -99.5t-5.5 -114t-29 -77.5q8 -25 7 -49t-24 -31q-9 -80 -29 -171t-38.5 -157t-51 -174t-49.5 -170q-26 -29 -51 -83.5t-42.5 -98 t-51 -81t-78.5 -46.5q-24 5 -52.5 15.5t-53 15.5t-60.5 2q-99 91 -143 268q-12 9 -27 36.5t-29 35.5q2 22 -7.5 46.5t-19.5 40.5t-14 36.5t9 34.5q-7 17 -11.5 23.5t-17.5 13.5q1 4 1 15q-1 25 -7 84q-10 84 -27 87q-25 -89 -49 -231q-18 -109 -17 -177q0 -20 1 -37 q-16 -36 -56 -157.5t-79 -181.5q-19 -5 -36 -5q-50 0 -77 41q-9 -2 -10.5 -2.5t-14 2t-14.5 2.5q-1 2 -5 12t-10 13t-18 0q-3 14 2.5 27.5t5.5 19.5q-40 25 -47 31q16 26 -6.5 43t-48.5 6q5 19 -7.5 38.5t-29.5 35t-25.5 40t5.5 52.5q-13 3 -22 11.5t-19 23t-15 20.5 q4 38 3 40.5t-25 6.5q-1 11 -11 53q-7 28 -8 52q0 11 2 22q-31 26 -59.5 120t-36.5 110q16 -6 15.5 -4t1.5 8t14 8q-4 14 -11 18.5t-18.5 3t-13.5 -1.5q17 23 16.5 38t3.5 32q-17 5 -18 3.5t-6 -6t-17 -5.5q3 23 -11.5 52.5t-23.5 48.5t5 57q-8 4 -12.5 14.5t-7 13 t-19.5 -3.5q0 1 1 6t1.5 8t1 9t0 10t-1.5 9.5t-3 8.5t-5 6t-8 4.5t-11 0.5q10 22 -2 54t-30 57t-25 53.5t14 43.5q-10 -8 -45 -2q15 13 -1.5 44t1.5 34q-4 13 -7.5 17t-11 4.5t-12.5 3.5q-1 13 -2 27.5t-1 21z" />
<glyph unicode="X" horiz-adv-x="1366" d="M-33 1530q69 61 130 61q19 0 38 -6q42 -136 197 -213q-18 -28 -6 -51t33.5 -36.5t39.5 -36t13 -48.5q30 29 42 -4q8 -20 2 -26q-1 -1 -3 1q24 -28 37.5 -38t22.5 -11t37 -7t66 -21q-4 -7 -4 -16q0 -19 14 -50q21 -47 40 -59q30 21 57 55t44 63.5t48 61.5t70 51 q-9 31 1 54.5t27.5 36t36 34.5t23.5 49q15 -1 22.5 7t9.5 19t11 21.5t26 12.5q-4 26 8 41.5t28.5 29.5t19.5 31q24 5 47.5 5t45.5 -5q44 -10 78.5 -25t53.5 -14q12 -8 2.5 -48t-0.5 -50q-20 0 -31 -5t-14.5 -11.5t-10 -21t-12.5 -24.5q-12 -18 -47 -38.5t-36 -22.5 q-9 -12 -4 -24t-3 -25q-3 -5 -22.5 -12t-22.5 -11q-23 -27 -36.5 -58.5t-34.5 -55.5q-110 -127 -168 -189q-2 -8 5 -17.5t3 -21.5q-52 -40 -52 -89q0 -46 34 -94q35 -49 78 -96t82.5 -101t45.5 -95q44 -18 82.5 -55t63.5 -72.5t63 -74t80 -58.5q4 -13 -15 -15q-2 -1 -3 -1 q7 -5 45 -21.5t49 -34.5q-17 -8 -16.5 -19.5t-2.5 -27.5q-17 -8 -45.5 -23.5t-49 -22t-54.5 -9.5q-69 43 -136 105.5t-124.5 129.5t-111 133.5t-116.5 136t-120 117.5q-24 -8 -46.5 -41.5t-37 -70.5t-38 -74.5t-48.5 -52.5q2 -13 2 -25q0 -41 -19 -70q-24 -38 -78 -85 q-78 -204 -229 -289q-1 12 -17 18.5t-31 8.5t-23 10.5t6 25.5q-14 3 -25.5 -3.5t-22.5 -4.5q-23 29 -23 70q0 20 6 42q16 70 73 109q-1 1 -10.5 8t-8.5 15q29 10 46 30t22.5 40t21 41t41.5 32q-11 16 -5 30.5t18 23.5t20.5 25.5t3.5 37.5q10 7 19.5 4.5t19.5 3.5 q6 55 46 116.5t91 124t68 99.5q-26 59 -58 104t-64 75.5t-64 59.5t-68 72t-66 97q-20 23 -58 62t-63 67t-51 65q-27 38 -40 76q-11 33 -11 67v11z" />
<glyph unicode="Y" horiz-adv-x="1366" d="M23 1520q8 0 29 4q16 3 27 3h5q11 -1 10 -11q32 4 58 4q19 0 34 -2q35 -6 59 -24.5t36 -41.5t24 -52.5t21.5 -55.5t30 -50.5t49.5 -38.5q31 -65 107.5 -159t104.5 -146q27 -13 54 -41t46.5 -55t46.5 -55t54 -41q34 33 58 71.5t50.5 98.5t30.5 69h25q-1 26 10.5 50.5 t17.5 36t-3 38.5q17 5 26.5 15t11 21.5t1.5 25.5v28q1 21 39.5 55t39.5 40q5 19 40.5 90t39.5 110q26 3 45.5 -3.5t34.5 -6.5q17 -23 23.5 -54t6.5 -47.5t-5 -60t-6 -49.5q-6 -54 -36.5 -116.5t-65.5 -111.5t-72.5 -110.5t-53.5 -107.5q-2 -6 0.5 -24.5t-0.5 -24.5 q-9 -22 -72 -122.5t-79 -152.5q-2 -5 0 -17.5t0 -17.5q-6 -17 -29.5 -45.5t-30.5 -44.5q-22 -51 -74 -149t-71 -140q-6 -13 -21.5 -25t-15.5 -34q-24 -2 -38 -15.5t-25 -35.5t-21 -31q-28 4 -35.5 3.5t-29 -7.5t-35.5 -10q-30 61 -84 82q2 18 28 35t29 20q13 50 38 88t75 76 q-1 8 -1 15q0 32 21 69q28 47 31 76q5 4 8.5 4.5t9 -2t7.5 -2.5q0 24 11.5 49t33.5 60t34 61q-17 17 -79.5 71.5t-104 100.5t-63.5 96q-104 119 -147.5 170.5t-123 154.5t-133.5 189q-1 2 -20.5 30t-26 41t-14.5 39q-6 21 -6 40v10z" />
<glyph unicode="Z" horiz-adv-x="1251" d="M-27 53q5 11 18.5 45t21.5 50t24 33t35 20q18 59 43.5 90t79.5 65q0 4 -2.5 5.5t-8 2.5t-6.5 1q11 9 22.5 31t25.5 37t36 16q12 17 32 50t33 53t37 42t52 33q-4 12 -4 16t1.5 12.5t2.5 18.5q33 12 59 41.5t42 59t43 59t61 40.5q11 44 34 72.5t45.5 40.5t47 39t38.5 68 q81 56 129 147q3 -2 13.5 0.5t23 6.5t15.5 5q-1 2 -8 9.5t-7 11.5q-65 4 -131 4q-172 0 -352 -25q-10 0 -41 -7.5t-31 -12.5q-16 9 -40.5 -2t-37.5 2q-9 -3 1.5 -12.5t-1.5 -18.5h-24q-29 0 -71 -1q-20 -1 -36 -1q-38 0 -68 4q-42 4 -89 21q-9 24 -7 41.5t8.5 45.5t6.5 38 q17 2 50 13t57 18t52 3t46 -26q11 3 12.5 5.5t-1.5 10.5t-3 15q12 1 33 -0.5t30.5 -1.5t20 7.5t14.5 24.5q17 -9 48 -9q20 0 48 4q25 4 47 4q36 0 60 -11q12 -4 16.5 9t5.5 14q22 -13 46 -13q11 0 22 3q13 3 26 3q23 0 48 -10q15 11 33 18t38 4.5t29 -20.5q6 0 6 23 q29 -13 55 -13q24 0 46 11q0 -5 -5 -14t-4 -17q22 23 53 28.5t54 -20.5q12 -1 18 5t4 18q6 -2 18 -11.5t21 -11.5q29 12 55 12q73 0 124 -92q-82 -56 -149 -135t-101 -170q-9 -1 -17 3.5t-12 -3.5q-26 -39 -83 -108.5t-89 -128.5q-18 5 -39 -17.5t-22 -52.5 q-77 -86 -218.5 -258t-199.5 -238q3 -5 11 -12.5t13 -15.5t6 -19q25 18 75 20h27q35 0 68 -3q8 -1 17 -1q38 0 80 15q28 -25 46.5 -29.5t46 -5t60.5 -12.5q33 10 52 6.5t39.5 -1.5t39.5 17q29 -20 78 -26q36 -4 68 -5q13 0 23 1h11q36 0 71 -10q41 -12 59 -46h45 q-2 -29 24 -52t29 -42q-8 5 -12.5 6.5t-9 -5t-6.5 -12.5t-5.5 -15t-5.5 -13q-4 10 -8.5 13t-10.5 -1.5t-8.5 -7.5t-9.5 -12q-9 22 -31 14.5t-22 -28.5q-20 11 -50.5 11.5t-54.5 -4t-49.5 2.5t-40.5 31q-23 -12 -44.5 -14t-37.5 2.5t-43 11t-51 8.5q-14 1 -30 1q-27 0 -63 -3 q-40 -4 -77 -4q-13 0 -27 1q-48 2 -94 21q-147 -18 -228 -18q-27 0 -46 2q-21 -16 -88 -22.5t-88 -24.5q-31 13 -76 24q-8 22 -5.5 40.5t-2 30.5t-23.5 13z" />
<glyph unicode="[" horiz-adv-x="569" d="M82 152q2 8 8 3t12 3q-7 70 6 160.5t13 144.5q1 9 3.5 15t9 14t7.5 10q-1 8 -7 46.5t-7.5 56t1.5 49t13 57.5q0 11 -1.5 26t-2.5 24t-0.5 17.5t5 11.5t12.5 1q-3 38 -4.5 79t0 95.5t2.5 84t5 103t5 92.5q-19 18 -27.5 77.5t-25.5 82.5q-3 21 4.5 31.5t19 12.5t22.5 8.5 t13 19.5q12 1 27 -7t26 -8q0 1 1 7.5t1 11t-2 4.5q52 19 141 12.5t144 -39.5q18 -10 37.5 -56.5t25.5 -55.5q1 -8 -4.5 -17.5t-3.5 -21.5q-16 2 -60.5 8.5t-69.5 9t-56.5 -3t-48.5 -21.5q-3 -3 -14 -3t-19 3q21 -56 26 -129t0 -141q1 -3 3.5 -5t5 -2h6.5t6 -1 q-10 -122 -14 -356.5t-19 -348.5q6 -19 -0.5 -58t-10 -74t14.5 -89q-8 -7 -9 -15t-9 -15q-1 -9 11 -35t9 -47q2 -12 -2 -15t-9 -0.5t-9 6.5q4 -18 2.5 -31.5t1.5 -27.5q2 1 4 -3t4 -11t4.5 -14t5 -12t4.5 -5q-14 -7 -15.5 -20t2.5 -29t1 -23q9 -10 19.5 -17.5t25 -13.5 t24.5 -10t30 -8l27.5 -5.5t31 -4.5t27.5 -4q7 -22 37.5 -49.5t35.5 -55.5q-28 -31 -65.5 -39.5t-67 -3.5t-65.5 -6q-4 -1 -7 -7.5t-8 -6.5q-10 -1 -24.5 2.5t-24.5 2.5t-16 -13q-22 4 -40.5 14t-27.5 19t-25.5 27.5t-25.5 27.5q-7 5 -22.5 8t-18.5 6q-29 38 -33 134.5 t8 146.5q-13 21 -9 96t-11 113z" />
<glyph unicode="\" horiz-adv-x="569" d="M-14 1485q15 2 34.5 11.5t40.5 6.5q14 -3 23.5 -8t17 -12t9.5 -8q19 -6 22 -27q0 -1 21.5 -32.5t17.5 -55.5q12 -26 68 -197q22 -20 39 -73q11 -35 35.5 -157t52.5 -188q-1 -25 2 -49.5t7 -39t12 -39.5t11 -35q10 -34 81 -239t98 -312q-3 -16 -21.5 -34.5t-13.5 -37.5 q-18 4 -48.5 3t-56.5 3q-19 16 -40.5 70t-32.5 96q-1 2 -10.5 10t-10.5 11q-2 11 0 33t0 34q-5 34 -25 102.5t-26 96.5q-11 48 -43 143.5t-43 143.5q-4 21 -11 72.5t-14 78.5q-3 10 -16.5 38t-15.5 44q-3 12 -0.5 44t0.5 44q-5 22 -24 71t-24 66q-49 165 -116 322z" />
<glyph unicode="]" horiz-adv-x="569" d="M-53 -338q8 49 47.5 80.5t87.5 21.5q-1 -12 5.5 -16t17.5 -1t23.5 7t24 7t18.5 0t7 -13q14 1 42 -1.5t41.5 2.5t21.5 24q-12 111 -7 387q0 53 -9 150.5t-11 150.5q0 4 6.5 15t5.5 18q-1 103 5.5 285t7.5 206q9 10 20 27q-6 23 -0.5 78t9 97t-12.5 87q-31 0 -98.5 42 t-85.5 48q-27 9 -40.5 26t-15 31.5t-1.5 39.5t-3 38q16 -7 37.5 -7t48.5 3.5t41 3.5q6 0 34 -9.5t36 -8.5h94.5t94 -16.5t89.5 -51.5q-8 -64 -31.5 -194.5t-34.5 -231.5t-7 -209v-104q-13 -318 32 -807q-5 -29 -6 -120t-13 -148.5t-46 -65.5q-36 5 -84 20t-77 24t-68.5 2 t-75.5 -38q-16 0 -26 7t-13 13t-8.5 5.5t-16.5 -12.5q-19 6 -18.5 20.5t-1.5 15.5q-13 0 -17 -2t-12 -10q-28 21 -39.5 40.5t-12.5 30.5t-5 13z" />
<glyph unicode="^" horiz-adv-x="960" d="M39 692q6 24 13.5 76t18 89t31.5 58q11 77 47 155t73.5 132t73.5 124.5t46 135.5q36 33 49 101q82 -5 142 -37t92 -77t59 -105.5t44 -117.5t47 -119t67 -103q-1 -3 -3.5 -16.5t-4.5 -24.5t-3 -15q4 -5 7.5 -4t11 3t12.5 1q-6 -32 8 -71.5t29 -71t12 -45.5q2 -2 8.5 -6 t9.5 -6.5t7.5 -7t6.5 -9.5t3 -12q-20 -2 -53 -31t-51 -37q-33 8 -69 53t-64 56q5 36 -23.5 102.5t-32.5 91.5q-4 4 -6.5 5t-4 -0.5t-5.5 -3t-10 -1.5q16 121 -25 129q5 0 -4 20t-23 49.5t-16 43.5q-1 -10 -10 9q-4 10 -17 44q-24 59 -38 90q-2 4 -10 -14q-8 -16 -31 -75 q-60 -150 -74 -150q-3 -20 -3 -23.5t4.5 -14t6.5 -22.5q-21 5 -31.5 -3.5t-12.5 -22t-10 -25t-24 -10.5q-2 -11 3 -23t5 -18q-41 -49 -56 -99t-26.5 -114.5t-35.5 -120.5q-42 -4 -75 10.5t-47 30t-38 47.5z" />
<glyph unicode="_" d="M-22.5 -170.5q0.5 11.5 6.5 18.5q7 7 7.5 11.5t-5.5 19.5q5 -1 9.5 -1.5t8.5 0t6 1t6 2.5t5.5 2.5t6.5 3.5t7 4q13 -4 26 -5.5t21 -1.5t24 0.5t25 0.5q-4 -11 -0.5 -14t10 -1t12.5 1.5t5 -8.5q21 19 57 20t58.5 -6t35.5 0q2 -16 20 -8.5t39 15.5t40 -21q0 10 11 17.5 t30 8.5q18 -14 47.5 -19t50.5 -26q6 2 6 25q4 0 31.5 -3.5t48 -3t39.5 6.5q1 -1 10 -9.5t10 -15.5q36 9 51 39q2 0 23 -8t38.5 -5.5t31.5 19.5q4 -4 23.5 -5.5t39 -8t27.5 -22.5q19 7 28 21.5t27 14.5q1 -6 9 -7t15 3t5 11q9 9 37 13.5t34 12.5q4 -10 8 -13t11 -4.5t14 -6.5 q-3 -4 9 -20t24 -28q1 -7 -4.5 -15t-3.5 -17q2 -5 11 -5.5t9 5.5q12 -10 12 -64q-7 0 -12.5 -3t-11 -8t-8.5 -7q-31 4 -94 -7.5t-93 -9.5q-70 8 -130.5 3t-130 -4t-111.5 16q-10 -12 -78 -9.5t-68 -9.5q-6 1 -12.5 10.5t-13.5 10.5q-57 -14 -170 -6q-176 12 -250 32 q-1 7 -4.5 21.5t-5 24.5t-1 21.5z" />
<glyph unicode="`" horiz-adv-x="681" d="M82 1487q7 9 32 24t31 31q17 4 37 2q13 -1 8.5 -16.5t10.5 -16.5q9 -1 19.5 9.5t25.5 7.5q25 1 41 -3.5t22.5 -10.5t8 -13.5t-0.5 -13t-4 -8.5q5 -4 15 -14.5t17.5 -14.5t16.5 0q25 -25 29 -48t-1.5 -39.5t9 -51t58.5 -80.5q0 -15 -8.5 -34t-24.5 -19q-27 0 -48 3.5 t-32 8t-33 14.5q-99 46 -161 122t-68 161z" />
<glyph unicode="a" d="M39 344q7 46 9.5 93t3.5 105.5t3 96.5q11 -1 14.5 0t10 5t10.5 5q-3 10 -0.5 23.5t1.5 26t-9 14.5q11 12 19 13.5t23 -1t30 -0.5q-1 5 -16.5 15t-16.5 28q-4 13 3.5 17t25 2.5t20.5 -1.5q-15 25 -16 38t8.5 19.5t21 12.5t21 23t8.5 45q18 -10 28 -3t7 21q5 11 18 11.5 t23.5 6t11.5 29.5q15 -24 49 -5.5t39 50.5q7 -2 17 -0.5t18.5 4.5t17.5 -2t15 -20q-1 12 3.5 17t10 4.5t10.5 2.5t6 13q51 0 70 -19q21 16 53 16h12q40 -4 79 -18t68 -44t32 -64q37 -3 61 -13.5t35 -22t30.5 -30t41.5 -31.5q-2 -57 -8.5 -145.5t-10.5 -149.5q-3 -42 -4 -94 q0 -23 1 -48q2 -81 14 -152q5 7 13 20.5t13 20.5q8 1 11.5 -6.5t3.5 -17.5t2 -18.5t8 -9.5q7 1 12 0t9 4t6.5 8t4 11t2.5 12.5t1 14v14.5v13.5v12.5q15 -8 20 -16.5t4 -28.5q3 5 11.5 8.5t13.5 22.5q15 12 17.5 7.5t1.5 -20.5q-1 -6 -1 -9v-9q11 -1 17.5 -15.5t12.5 -49 t9 -45.5q-28 -28 -48 -68t-29.5 -68t-39 -54t-80.5 -35q-14 17 -32.5 40t-28.5 35.5t-27 30.5t-37 37q-17 31 -21.5 112t-23.5 121q-12 -57 -38 -95q-19 -26 -29 -7q-33 -56 -69 -100t-83 -80t-97 -54q-42 -15 -92 -15h-20q-62 4 -127 32q-13 19 -42.5 63.5t-45 69t-38 63.5 t-38.5 76.5t-28 77.5zM221 383q6 -21 6.5 -84t22.5 -86q12 10 33.5 -12t45.5 -49t38 -28q23 17 60.5 40t59 38.5t57.5 55t74 100.5q23 100 138 220q17 123 26 229h-2q-30 -1 -70 33q-42 34 -63 39q-3 -1 -21 7q-16 7 -29 7h-3q-23 -1 -38 -2.5t-24.5 -2.5t-22 -9.5 t-16.5 -11t-23 -20t-28 -24.5q1 1 -2 4.5t-7.5 6t-8.5 0.5q-37 -20 -67 -64q-27 -40 -27 -80v-8q-39 -20 -60 -75q-22 -55 -22 -107v-20q0 -40 2 -72q-6 0 -14.5 -12.5t-14.5 -12.5z" />
<glyph unicode="b" d="M78 1359q0 64 4 126q15 4 29 4q13 1 25 -3q24 -8 38 -20.5t31 -22t33 -5.5q20 -70 27 -156q6 -71 6 -130q-1 -12 -1 -24v-24q0 -58 6 -130q8 -86 29 -155q8 19 25 33.5t34 23t34.5 25t25.5 39.5q20 2 33 -25q40 25 89 29q23 2 48 3q28 0 58 -3q36 -3 60 -3q15 0 25 1 q18 -26 50.5 -36t62 -9t60 -12t44.5 -45q35 -13 55.5 -72.5t36.5 -126t39 -88.5q16 -41 17 -83v-7q0 -39 -10 -73q-11 -38 -32 -77t-47 -71.5t-58 -64.5t-61 -56.5t-60 -46.5q-34 -25 -118.5 -55.5t-103.5 -38.5q-14 5 -60 4.5t-50 9.5q-8 -22 -39.5 -29t-66 -13t-46.5 -24 q-8 5 -20.5 14t-21.5 10.5t-32 0.5q-18 28 -31.5 56t-23 49t-16.5 51t-11 45t-7 50.5t-4 47.5t-2.5 55.5t-2.5 57.5q-30 98 -59 98h-2q1 8 8 24t16 34l11 22q-7 58 -17.5 146t-17.5 144.5t-15.5 133t-13 135.5t-7.5 126t-3 131zM356 489q-1 -5 -1 -10q0 -23 11 -61 q13 -46 12 -72q-1 -21 -4.5 -60.5t-3 -54.5t9.5 -39t30 -45q3 14 26.5 12.5t47.5 -6t40 8.5q-5 4 -10 6.5t-7 4t-3 5.5q0 3 7 11.5t7 11.5q13 8 58.5 5.5t54.5 10.5q9 -24 49 -24q7 10 6 12t-4.5 10t-1.5 18q10 0 25 6.5t22.5 8.5t20.5 -6q16 36 34 54.5t58 35.5q1 7 -2 11 t-8 7t-7 6q33 0 59.5 47.5t37.5 94.5q-31 102 -86.5 164.5t-115.5 82.5q-51 17 -108 17h-20q-68 -4 -122 -24t-99 -48q5 -30 5 -59.5t-2 -46t-8 -49t-8 -46.5z" />
<glyph unicode="c" horiz-adv-x="1024" d="M74 524q3 58 36 137.5t33 120.5q27 11 48.5 37.5t33 54t27.5 58t31 45.5q-4 -4 15 4q11 5 38 18l33 15q3 2 14 -0.5t21.5 2.5t17.5 24q24 -5 31.5 2t8 20.5t5.5 16.5q130 24 197 33q228 -113 260 -379q-33 -44 -86 -57q-31 19 -55.5 66t-37.5 90t-38.5 77t-61.5 35 q-13 -5 -97 -40t-118 -42q-21 -41 -49 -83.5t-65.5 -93t-49.5 -67.5q-14 -72 -14 -140q0 -156 72 -292q46 -37 249 -80q121 36 181.5 78.5t109.5 139.5q17 -9 29 -9q23 0 29 33q80 -12 122 -52q26 -25 25 -61q0 -23 -10 -49q-131 -110 -264 -171t-308 -72q-21 14 -82.5 19 t-80.5 13q-128 77 -192 225q-59 136 -59 294q0 15 1 30z" />
<glyph unicode="d" d="M47 393q-1 10 -1 20q0 73 38 155q44 92 108.5 159.5t126.5 91.5q-2 19 -2 29.5t1.5 14.5t6 12.5t7.5 17.5q11 -1 34 -9.5t37 -4.5q0 7 -2 18t-2 18q7 15 27 16t43.5 -5t47.5 -9.5t42.5 8t24.5 42.5q15 -3 46 -3t56 -4.5t45 -17.5q-2 34 -2 56q0 16 1 28q3 26 1 46t-16 52 q23 66 25 136q1 27 1 49q0 37 -2 66q-1 8 -1 17q0 43 16 109q7 8 47.5 14t44.5 23q15 -7 25.5 -15t17 -19.5t10.5 -20.5t5.5 -27t2 -29.5t1 -36.5t1.5 -40q2 -26 2 -55q-1 -17 -1 -37q-2 -50 -17 -60q15 -38 22 -98t7 -95q0 -6 1 -13q-1 -36 -3 -106q-2 -84 -2 -93 q22 -55 30 -145q4 -45 4 -83.5t-4 -70.5q52 -187 51 -283v-25q23 -32 27 -86q0 -7 1 -13q0 -44 -21 -69q-22 -3 -46 -11.5t-38 -15t-33 -6.5t-37 11q-1 14 -10 31.5t-11.5 27t7.5 31.5q-17 0 -19 8q5 15 5 30q0 18 -7 34q-15 -40 -88.5 -95.5t-93.5 -82.5q-13 10 -31 10 q-82 -29 -156 -38q-36 -4 -67 -4q-33 0 -61 4q-56 10 -102.5 32.5t-77.5 56.5t-53 74t-31 84q-9 42 -9 82q0 46 12 88q3 9 -4.5 14t-7.5 10zM215 332q11 -30 21.5 -66.5t16 -53t17.5 -36t33.5 -31t58.5 -22.5q7 2 23 2q20 0 55 -3q19 -1 33 -1q34 0 43 8q3 1 14.5 11 t23.5 18.5t26 15.5t25 4.5t16 -16.5q4 27 29 48t62 39.5t48 26.5q-2 13 -3.5 99t-19.5 129q23 9 23 69q0 53 -11 105q-11 54 -22 86q-20 -2 -61 2t-54 8q-322 -112 -397 -368q16 -2 16 -20t-6 -33t-10 -21z" />
<glyph unicode="e" d="M-18 416q0 25 6 49t12 36t19.5 35.5t17.5 30.5q28 -7 41.5 -3t30 1t36.5 -20q9 0 18 13.5t19 12.5q6 52 31.5 104.5t55 89.5t68.5 86.5t60 84.5q12 7 42 18t49 25.5t24 40.5q16 -10 16 -29q8 21 33.5 32t51 18t30.5 18q38 -9 67 -9q12 0 24 2q22 3 50 3q18 1 38 -1 q52 -4 100 -28q13 -36 48.5 -61t41.5 -66q2 -15 2 -31q0 -19 -3 -37q-6 -34 -16 -58.5t-32.5 -56t-37 -47.5t-44 -47t-39.5 -42q-11 -2 -25.5 -2.5t-21 -1t-13 -8t-10.5 -23.5q-27 -3 -54 -22.5t-45.5 -40.5t-42.5 -35t-48 -9q-1 -3 -12 -19t-13 -28q-14 14 -30.5 14.5 t-30.5 12.5q-13 -24 -47.5 -35.5t-66.5 -14t-58 -18.5t-27 -49q2 9 10 -31l4 -20q32 -64 120 -90q59 -17 126 -17q34 0 70 4q27 3 59.5 14.5t73.5 30t65 27.5q25 8 71.5 16.5t61.5 12.5q5 2 20.5 22t20.5 21q6 2 21 -7.5t20 -7.5q21 4 33 16t15.5 24t11 24t20.5 16 q17 -28 26.5 -60t12.5 -54t8 -74q-158 -103 -323 -158.5t-377 -62.5q-283 79 -293 303q-3 7 -22 18q4 21 4 38q0 16 -4 28q-6 24 -25 35t-40 15.5t-52 12t-53 19.5zM346 545q46 1 84 13t61 27t57 30t70 20q20 36 60 59q32 18 58 18q6 0 12 -1q7 18 24 34t35 28.5t35.5 27 t28.5 35.5t10 47q-49 17 -96 19q-15 1 -28 1q-29 1 -55 -3q-36 -6 -78 -28t-68 -39t-64 -54.5t-57 -58t-56 -63.5q-1 -9 -11 -35.5t-18 -49.5q-5 -16 -5 -23q0 -3 1 -4z" />
<glyph unicode="f" horiz-adv-x="569" d="M-34 635q-1 2 -1 5q0 7 6 17q-14 33 -14 61q0 32 18 56q5 7 10 12.5t13 9.5l13 6.5t17 6.5t17 6q16 7 37 12t49.5 10t38.5 7v23q0 41 -2 99q-4 74 -7 128q-2 32 -2 50q0 12 1 17q3 24 20.5 93t22.5 145q15 26 64.5 60.5t64.5 60.5q14 -6 37 2q7 2 14 2q18 0 41 -13 q62 -35 120 -86.5t87 -72.5q-9 -19 -1.5 -28t20.5 -25q12 -15 12 -29q0 -30 -25 -59q-19 -21 -25 -3q-1 4 -7.5 -1.5t-15 -8t-18.5 15.5q13 13 -7 16q-3 1 -10 2q-29 3 -34 11q-7 9 -8.5 18t-5.5 14.5t-19 14.5q-13 8 -20 16.5t-9 13t-4.5 8.5t-11 3t-24.5 -4t-49 -12 q-36 -23 -47 -111q-6 -55 -6 -107q0 -30 2 -59q6 -78 18 -149q2 -9 6 -15t10 -8t10 -2.5t13 0t12 0.5q5 0 25.5 -3.5t29.5 -2.5h10q30 0 95 -8q4 -4 10.5 -11t9 -9.5t7 -7.5t7 -7t6.5 -6t7 -6t7 -5.5t9 -7t10.5 -7.5t12.5 -9q-13 -29 -44 -47.5t-60 -24.5t-79.5 -14 t-74.5 -14q-29 -34 -31 -132v-23q0 -86 10 -159q12 -82 29 -163q18 14 30 -30q10 -33 10 -67q0 -32 -9 -65q-21 -75 -78 -82q-10 0 -50.5 4.5t-56.5 3.5q1 21 -4 54.5t-6.5 52t6.5 49.5q-24 45 -24 84q0 37 14 88q-27 25 -31 77q-2 18 -2 35q0 34 6 67q7 40 7 79v17 q-2 47 -25 65q-11 3 -20 0.5t-27.5 -11t-26.5 -10.5q-10 -3 -15 -2t-5.5 5.5t-0.5 9t1 7.5t-2 3q-8 -2 -24.5 -9t-22.5 -8t-25 0q-4 4 -13 7t-14.5 4.5t-8.5 9.5z" />
<glyph unicode="g" d="M85 -79q0 33 24.5 64t74.5 58q0 -5 20.5 -10.5t31.5 -5.5q8 -84 72.5 -149t151.5 -94q69 -24 146 -24q21 0 42 2q101 8 177 60q32 55 39 127q4 36 4 66.5t-4 55.5q-7 50 -25.5 139t-23.5 120q-2 -1 -10 -11q-34 -44 -46 -29q-4 6 -7 19q-50 -32 -121 -55t-151 -32 q-20 -2 -40 -2q-59 0 -116 18q-78 25 -127 84q-45 55 -62 170q-6 43 -6 84q0 69 18 131q33 97 125 197.5t197 139.5q48 19 236 72q17 -4 50 -22.5t58 -20.5q12 -25 32.5 -45.5t33.5 -30t18.5 -23t-10.5 -30.5t-56 -45q-26 16 -62.5 17t-68.5 32h-7q-54 0 -99 -14 q-47 -14 -85.5 -45.5t-64 -59.5t-61.5 -74t-57 -69q-2 -21 -7.5 -57.5t-7 -54t-2 -45t5.5 -43.5t18 -36t33.5 -36t53.5 -31q28 -6 58 -6q13 0 26 1q44 4 75 12t65.5 23.5t57.5 28.5t49.5 28t41.5 22q2 20 3 38.5t0 39t-1 31t-3 34t-3.5 28t-5.5 33t-5 29.5q10 8 25.5 26 t29 29t29.5 13q11 1 21 1q31 0 51 -12q27 -15 34.5 -45.5t9.5 -72.5v-19q0 -33 -4 -68q-2 -27 -3 -40v-10q0 -42 20 -156q3 -16 17.5 -36.5t17.5 -29.5q3 -12 3.5 -27t0 -25t-1.5 -29q-2 -21 -2 -28q0 -16 6 -83q1 -6 -3.5 -10.5t-9.5 -5.5l-5 -1q2 -20 9.5 -64.5 t12.5 -79.5q3 -25 3 -40q0 -7 -1 -12v-15q0 -63 -23 -115q-26 -58 -70 -94t-103.5 -60t-118.5 -34q-53 -8 -108 -8h-11q-99 4 -101 4q-56 7 -53 25q1 5 5 10q-7 2 -32 6.5t-47.5 10t-33.5 10.5q-6 3 -33.5 11.5t-37.5 18t1 25.5q-20 2 -43 14.5t-36 7.5q-14 -5 -22.5 7 t-16 34.5t-13.5 30.5q-28 35 -42 67t-14 65z" />
<glyph unicode="h" d="M119 1220q-8 80 -8 146q0 81 12 141q30 15 49 17h4q16 0 26 -11q10 -12 15 -26.5t12 -38.5t15 -39q1 -13 -2.5 -30t-3.5 -25q0 -18 15 -45.5t15 -30.5q5 -17 -5 -49q-5 -17 -5 -37q0 -18 4 -39q27 -118 35.5 -306t9.5 -196q14 38 23.5 58.5t41 65t79.5 93.5q6 6 24 17.5 t30 24t15 28.5q1 0 72 12q38 7 68 8q27 0 47 -6q12 -16 63.5 -26.5t65.5 -24.5q6 -6 14 -33t16 -37q12 -14 44.5 -66t37.5 -71q2 -7 -4 -19.5t-4 -19.5q3 -7 15.5 -18.5t15.5 -18.5q21 -54 30 -217t19 -202q1 -6 6.5 -26.5t8 -30.5t6 -31t3.5 -33v-13v-17q0 -18 -5 -29 t-13.5 -23.5t-21.5 -19.5t-32 -11.5t-44 -3.5q-50 52 -67 149.5t-20.5 238t-15.5 210.5q-6 14 -17 44t-19.5 50.5t-25.5 46t-37.5 40t-54.5 22.5q-19 5 -42 5q-17 0 -35 -3q-31 -11 -69.5 -55t-59.5 -78t-53 -88q-6 -10 -9 -34.5t-8.5 -41.5t-19.5 -18q-14 -60 -23 -142 q-6 -100 -6 -137.5t6 -144.5q-42 -45 -86 -72q-23 9 -40 26t-25.5 42t-13.5 47.5t-5 56.5t0.5 54t3.5 55.5t4 46.5q-6 -11 -12 -7t-6 13q-4 60 -7.5 169t-9.5 192.5t-18 150.5q20 22 1 39q-5 4 -5 2q19 31 15.5 43.5t-16 29.5t-11.5 29q8 47 8 111q0 73 -10 167z" />
<glyph unicode="i" horiz-adv-x="454" d="M78 231q0 -14 16 -36t12 -35q-19 -63 -19 -86q0 -22 34 -58q3 -4 6 -8.5t4.5 -7t4 -4.5t6.5 -2.5t10 0.5t16 4q-16 -30 -2 -44q8 -8 21 -8q7 0 16 3q84 45 106 125q-12 59 -12 138q1 22 1 47q4 110 18 205t17 210v31q0 96 -16 169q-11 4 -35 16t-37 16.5t-32 7.5 t-35.5 -5t-32.5 -26q14 -39 11.5 -53t-14.5 -37.5t-13 -40.5q-4 -44 -4.5 -129t-3.5 -119q-3 -26 -22 -124.5t-21 -148.5zM102 1415q62 17 84 82q3 -2 15.5 -9.5t15.5 -9t13.5 -5.5t16.5 -4t16.5 0.5t21.5 3.5q13 -1 19 -10.5t7 -20t8 -21.5t21 -14q7 -23 7 -46 q1 -16 -3 -32q-8 -39 -26 -71t-57 -48q-29 -12 -64 -12q-13 0 -27 2q-71 89 -71 177q0 19 3 38z" />
<glyph unicode="j" horiz-adv-x="454" d="M-132 -249q3 -51 28 -101.5t63 -73.5q42 -5 63.5 -14.5t47.5 -13.5q17 -4 55 -4q16 0 37 1q10 3 44 -1q15 -2 24 -2q13 0 18 3q9 4 13 28.5t9 29.5q3 -16 10 -18.5t14.5 3.5t16.5 19q-6 11 -2 26q6 38 21 48q12 9 24 -7q15 29 19 50t-13 26q1 4 9 11.5t9.5 12.5t-9.5 17 q38 91 45 209q2 31 2 63q0 88 -14 179q-19 124 -43 234.5t-53 232.5t-38 190q-18 5 -56.5 25.5t-66.5 23.5q-3 -21 -3 -49q0 -72 18 -193q26 -169 54 -357q23 -155 23 -254q0 -21 -1 -40q-13 -268 -91 -321q-7 -5 -22.5 -16t-20.5 -14t-16.5 -9t-17 -4t-14 5.5t-15.5 14.5 t-14 27q-13 29 -6.5 50t5 46.5t-23.5 44.5q-69 0 -102 -39q-31 -34 -31 -79q0 -5 1 -10zM44 1343q-1 3 -1 7q0 6 2 16q16 2 31 2q-5 16 -5 29q0 28 20 42q22 16 53 16q10 0 22 -2q46 -7 86 -32q-7 -24 9 -60t25 -63q2 -8 2 -17q0 -25 -18 -62q-19 -3 -48.5 -15t-59.5 -18 q-17 -4 -37 -4q-13 0 -27 2q-32 23 -48 67q-5 16 -5 28q0 22 18 34q-1 3 -9 13t-10 17z" />
<glyph unicode="k" horiz-adv-x="1024" d="M98 1561q41 -4 90.5 -40t79.5 -44q31 -111 42 -247.5t17 -302t21 -282.5q39 30 103 93t117.5 117.5t121.5 107.5t123 75q25 -20 40 -64t24 -59q-9 -24 -30 -44t-41.5 -32t-41.5 -32t-31 -43q-8 -1 -14 3.5t-10 4.5q-13 -18 -20 -36t-23 -40q-20 -27 -93 -80.5t-86 -74.5 q-4 -7 -4 -27t-4 -25q-6 -8 -17.5 -18t-15.5 -15t-4.5 -13.5t10 -18.5t33.5 -25q46 -30 115 -56.5t125 -45t125.5 -58t124.5 -94.5q27 -28 34 -46.5t8.5 -32t16.5 -29.5q-22 -8 -22 -24.5t-8 -22.5q-7 6 -14 8.5t-11.5 2t-14.5 -3t-16 -3.5q-25 18 -95.5 50t-136.5 67 t-93 67q-27 2 -70 26q-43 22 -91 44q-43 20 -82 20h-7q-25 -36 -29 -96q-1 -19 -2 -39q0 -43 6 -89q5 -48 5 -75q0 -11 -1 -18q-22 -8 -47 -8q-33 -1 -71 15q-66 28 -76 85q-4 23 1 59.5t11 69t6.5 66t-15.5 60t-52 40.5q9 43 25 91t25 86q7 31 7 68v17q-1 37 -11.5 105 t-13.5 106q-1 13 -1 30q0 27 3 67q3 35 3 66q0 25 -2 48q-4 51 -27 92q4 34 4 73q-1 72 -13 160q-13 95 -12 162q0 28 2 52z" />
<glyph unicode="l" horiz-adv-x="454" d="M110 139q2 35 6.5 90.5t4.5 89.5q1 39 13 128q10 72 10 116q0 11 -1 19q-15 356 -15 550q0 43 1 78q1 29 -7 158q-4 77 -5 122q0 30 2 46q4 2 9 2q10 0 22 -8q18 -11 33.5 -27t38 -29t42.5 -10q60 -421 60 -946q0 -242 -13 -506q-5 -15 -13 -22t-15 -8.5t-11 -10 t-2 -26.5q-9 -1 -17 -1q-42 0 -70 13q-34 15 -49 39q-14 24 -20 66q-4 29 -4 54q-1 12 0 23z" />
<glyph unicode="m" horiz-adv-x="1705" d="M96 1010q38 25 67.5 26.5t48 -19.5t31.5 -51t21.5 -76.5t13.5 -86.5t11 -90t12 -80t16 -30q19 0 55 100q15 44 35 111l3 11q22 43 80 98.5t73 104.5q25 26 65 30q16 2 30 2q22 0 40 -4q30 -6 60 9q19 -15 52.5 -32.5t55.5 -34.5t35 -44q6 -11 9 -40t10 -42q0 -1 5 -1.5 t11 -2.5t8 -6q7 -13 10.5 -43t6.5 -39q14 -28 14 -96v-25q15 56 37 111.5t37.5 89.5t47.5 88t40.5 67t44.5 68h6q18 -1 60 7q32 6 54 6q14 0 23 -2q13 -3 28.5 -20.5t30.5 -8.5q9 -18 41 -60.5t44 -76.5q6 -18 6 -37q0 -18 -5 -37q7 -2 21.5 3t15.5 11q21 -59 30.5 -110.5 t9.5 -97.5t-1 -109q2 -13 12 -2q4 5 5 10q14 -9 17.5 -20.5t0 -22l-6.5 -19.5t-0.5 -16t15.5 -10q6 -46 -21 -54q-12 -3 -12 3q3 -7 9.5 -13.5t18.5 -17t22 -22.5q-13 -27 -13 -62q1 -14 3 -30q8 -55 14 -91q1 -6 1 -12q0 -33 -28 -80q0 -14 31 -20q-5 -6 -18.5 -19.5 t-21 -25.5t-11.5 -29q-11 -1 -22 -1q-35 -1 -67 13q-44 18 -68 50q-25 30 -36 66q-4 13 -4 26q0 21 12 38q-12 52 -14 117q-1 24 0 48q0 39 2 76q2 42 1 86v35q-1 62 -18.5 129t-54.5 128q-12 38 -27 38q-13 0 -29 -26q-7 -12 -20 -38q-19 -38 -26 -42q0 -1 8.5 -8.5 t7.5 -17.5q-45 -57 -90 -195.5t-86 -193.5q4 -20 4 -45q0 -14 -2 -30q-4 -43 -6.5 -60t-12 -65.5t-16.5 -90.5q-19 -6 -36 -6.5t-29.5 2t-26.5 13.5t-21.5 17.5t-19 24t-15.5 24t-15 25.5q0 33 -1 114.5t-1.5 113.5t-3 98.5t-7.5 106.5t-13.5 98t-21 112t-30.5 113h-15 q-37 -1 -58 -13q-20 -12 -20 -44q0 -8 1 -17q-11 -3 -22 -12t-16 -10.5t-22 4.5q-1 -6 -4 -16l-4.5 -15t0.5 -12t8 -13q-18 -20 -44.5 -77t-49.5 -78q2 -11 2 -23q0 -26 -10 -50q-14 -35 -37.5 -73.5t-30.5 -66.5q-11 -40 -21.5 -128t-28 -157.5t-52.5 -109.5q-5 -1 -12.5 2 t-12 6t-7 -0.5t-1.5 -16.5q-68 36 -127 92q-7 120 -38 438.5t-40 508.5z" />
<glyph unicode="n" d="M76 1038q19 -7 29.5 8.5t15.5 16.5q16 -7 40.5 -14t38.5 -16t27 -29q-5 -38 -6 -74v-15q0 -30 3 -65q4 -43 8 -75t12.5 -91t13.5 -98q1 10 6.5 29t15 36t17.5 13q3 10 7.5 58.5t16.5 84.5t37 43q1 32 13.5 58.5t27 42t32 37.5t26.5 44q11 3 72.5 27.5t103.5 25.5 q27 -13 85 -30.5t103 -37t70 -46.5q51 -125 87 -235q35 -110 62 -238q26 -122 25 -241q1 -7 1 -13q-2 -126 -34 -240q-14 -10 -51 -3q-9 1 -9 -2q0 -1 1 -3q-15 -6 -44 25.5t-48 33.5q1 103 3 201v26q0 86 -11 182q-13 111 -42 191q-14 38 -36 79t-53 80q-32 38 -64 60 q-24 16 -50 16q-10 0 -20 -2q-36 -8 -67 -54q-17 -27 -45.5 -109t-40.5 -107q-45 -93 -88 -223q0 -1 -5.5 -2t-11 -2.5t-6.5 -3.5q-29 -77 -36.5 -219.5t-33.5 -206.5q-24 -15 -46 -15h-2q-22 0 -38 9q-18 9 -34 26.5t-27 35.5t-21 38q-16 638 -30 983z" />
<glyph unicode="o" d="M48 424q0 12 -1 25q0 68 12 137q14 -1 19 7t4.5 20t4.5 25t19 19q29 105 103 196.5t174 135.5q18 19 29.5 29.5t32 22t42.5 14.5q4 1 18 7t21 8q6 2 24 5q7 1 13 1q10 0 17 -3q21 3 42 3q140 0 238 -120q72 0 72 -63q19 -5 20.5 -5t20.5 5q12 -17 49.5 -60t54.5 -71 q32 -82 32 -167q0 -197 -169 -415q-13 -2 -15 14q-1 1 -1 1.5v1.5q-14 -33 -41 -61.5t-61 -57t-52 -51.5q-8 1 -14 1q-49 0 -58 -51q-36 -9 -58.5 -14t-56 -10t-59.5 -2.5t-45 12.5q-3 -2 -6 -7.5t-7 -7.5q-2 -1 -5 -2q-3 0 -6 1q4 10 0.5 13t-9.5 2t-11.5 0.5t-4.5 8.5h-5 q-71 0 -119 28q-50 29 -93 93q-58 18 -96 68t-52.5 117t-16.5 147zM234 431q-1 -11 -2 -24q0 -34 8 -75q10 -57 36 -119q11 -18 23.5 -30.5t31 -19t31 -10.5t40 -4h39.5t48 3l48 4q2 12 27.5 23.5t27.5 23.5q29 -5 57.5 7.5t47.5 30.5t45.5 39t50.5 29q3 15 8 27.5t13.5 25 t14 21t18.5 20.5t17.5 17t20.5 18.5t20 16.5q4 17 11.5 50.5t9.5 48.5q3 16 6 42q2 20 2 39v13q-1 26 -6 61q-13 8 -36.5 32.5t-47.5 41.5t-51 16q1 4 1.5 7.5t0.5 5.5t0.5 4t0.5 3v2.5t-0.5 3t-0.5 3t-0.5 5t-1.5 7.5q-34 6 -82 8t-83.5 9t-72.5 30q-32 -15 -89.5 -68 t-96.5 -67q-14 -30 -40.5 -77t-43 -77.5t-32 -77.5t-19.5 -89z" />
<glyph unicode="p" d="M94 905q21 13 50.5 15t57 -10.5t38.5 -39.5q3 7 11 28t13.5 34t16 35t19.5 36t23 31t28.5 26.5t33.5 15.5t39 5q-14 17 10 45q5 -2 13 -2q24 0 71 18q49 18 81 18q7 0 13 -1q17 -2 36.5 -19.5t31.5 -21.5q17 -7 54.5 -20t65 -22t25.5 -9q3 2 10.5 0t18 -6.5t18.5 -9 t21 -11t16 -8.5q20 -41 59 -107.5t53 -99t26 -106.5q9 -55 9 -128q0 -24 -1 -50q-22 -10 -42.5 -60.5t-37.5 -112t-21 -69.5q-14 2 -27 -7t-24 -11q-8 -6 -32.5 -25.5t-30.5 -24t-27 -20t-29 -20t-27 -16t-31 -15.5t-32.5 -12.5t-38.5 -12.5t-41.5 -9t-50.5 -9q-20 3 -59 37 t-76 62q-30 23 -50 23q-5 0 -9 -1q1 -5 16.5 -177t30.5 -256q1 -7 5 -28t5.5 -31.5t4.5 -30.5t2.5 -32t-1.5 -29t-6 -27.5t-12 -21.5t-19 -17.5t-28 -9.5q-8 -2 -19 -5t-15.5 -4t-11.5 -2q-3 -1 -6 -1t-6 1q-5 1 -11.5 3t-14.5 6q-1 2 -2 6t-2 6q20 12 12 27 q-3 8 -14.5 19.5t-14.5 15.5q-12 50 -20 133t-14.5 187.5t-10.5 142.5q-7 67 -34 220.5t-36 258.5q-3 36 -26.5 140.5t-26.5 172.5zM346 528q19 -47 19 -72q0 -20 -13 -26q30 -21 59 -37.5t48.5 -25.5t55 -24t58.5 -26q39 10 74.5 26.5t50 25t53 37.5t44.5 34 q30 -1 48.5 18.5t24.5 43.5t11.5 51.5t11.5 36.5q-9 12 -8.5 37t10.5 49q-3 42 -4.5 60t-6.5 37t-7.5 24t-14.5 28.5t-22 44.5q-7 1 -20.5 7.5t-21 9t-18.5 -3.5q-4 5 -17 30.5t-16 30.5q-12 2 -22 0t-17.5 -5t-12.5 -0.5t-7 13.5q0 2 1.5 11t-2.5 16.5t-19 13.5 q-10 -9 -21 -9q-19 0 -39 24q-7 -8 -28 -3q-15 4 -28 4q-6 0 -11 -1q-116 -61 -154.5 -120t-52.5 -183q-8 -53 -8 -83q0 -34 22 -94z" />
<glyph unicode="q" d="M56 398q-2 31 -2 62q0 65 10 130q16 97 57.5 182t97.5 139q21 14 53.5 48t57 60t59.5 41q18 7 36 7q16 0 32 -6q14 9 30 13.5t28 5.5q5 1 10 1q10 0 23 -1q20 -3 29 -4.5t33.5 -7.5t30.5 -7q29 -7 62 -44t54 -83q14 -29 14 -60q0 -16 -4 -32q-11 -48 -62 -72 q2 14 -4.5 20.5t-17.5 7t-24 -0.5v8q0 57 -25 87q-28 32 -70 32q-2 1 -4 1q-41 0 -82 -13q-44 -14 -79 -38q1 -4 -10.5 -24t-1.5 -35q-61 -34 -94 -73.5t-39.5 -70t-16.5 -73.5t-26 -72q-14 -26 -13 -50t11 -40.5t22 -15.5q-2 -26 2.5 -43.5t12 -25t14.5 -13.5t11 -16t1 -27 q23 27 47 27q15 0 31 -11q17 -15 15 -24q20 2 53 27t78 38q10 42 45 86t74 88t53 78q18 -5 36 2t38 29t29 33t30 41q11 -2 20 -4t17.5 -5.5t14 -5t12.5 -7t10 -8t10.5 -10t10 -10.5t11.5 -14t13 -16q-16 -44 -27.5 -84t-18.5 -67t-12.5 -75.5t-7.5 -71t-6.5 -93t-7.5 -105.5 q18 4 21.5 -3.5t0 -21.5t0.5 -30q6 8 17.5 24.5t20.5 29t21.5 28.5t23.5 25t23 14.5t23 2.5t21 -16q14 14 30 13.5t27.5 -8t28 -18t28.5 -13.5q-11 -9 -11.5 -19t2.5 -27t1 -34q-43 -27 -79 -62.5t-55.5 -62.5t-54 -77.5t-55.5 -78.5q3 -14 3 -28q0 -23 -7 -47 q-12 -38 -22.5 -58.5t0.5 -60.5q-15 -24 -25.5 -36.5t-24.5 -20.5q-13 -7 -28 -7q-1 0 -2 1q-17 0 -43 7q-25 127 -35 234.5t-10 165t5.5 181.5t6.5 194q-39 -28 -74.5 -71t-48.5 -83q-28 -9 -90.5 -36t-118.5 -40q-46 -11 -105 -11q-14 0 -28 1q-76 50 -119.5 134 t-51.5 180z" />
<glyph unicode="r" horiz-adv-x="681" d="M18 838q10 -3 24.5 13t29.5 36q14 19 46 33q20 8 43 9q13 0 27 -3q8 -2 18 -32t17.5 -65t14 -65t6.5 -31q43 8 98 170q28 1 57 18t46.5 34t43.5 27t48 -3q37 19 61 27q14 4 29 4q11 0 22 -2q26 -6 43 -14.5t56 -32.5q17 -15 24 -38t9 -48t5 -33q-16 0 -25.5 -6.5 t-27.5 -24.5q-35 7 -70 7h-13q-42 -2 -87.5 -26.5t-85 -63.5t-75 -106.5t-58.5 -154.5q-5 -17 -5 -33q0 -39 28 -74l-13 -45q-1 -26 13.5 -82t20.5 -98q1 -10 0 -22q0 -38 -13 -97q-62 -34 -78 -45q-66 15 -100 59q-23 29 -23 61q0 16 6 32q-2 5 -8.5 19.5t-9 23t-6 21 t-2 22t7.5 16.5q-4 19 -23.5 117t-31 152.5t-32.5 131t-40 122.5q2 10 2.5 17.5t0.5 12.5t-2 13t-3.5 12t-6.5 16t-8 19z" />
<glyph unicode="s" horiz-adv-x="1024" d="M57 790q11 56 66 72q-3 14 2.5 27.5t5.5 21.5q15 4 22.5 7t13.5 5t9 9l4.5 10.5t4.5 19t5 25.5q8 3 14 5t7.5 2t3.5 1t2 1.5t2 4t4 7.5q13 -5 31.5 -6.5t35.5 9t19 31.5q10 -8 29 -2t38 17.5t38 6.5t28 -34q10 2 12.5 7.5t0.5 11t-1.5 12t5.5 10.5q2 -1 10 -4t9.5 -3.5 t8 -2.5t8.5 -1.5t7 -0.5t8 0l7.5 2.5t8.5 4t9 5.5q2 -18 4.5 -20.5t10.5 4.5t15 8q8 -5 3.5 -14t-3.5 -19q13 -3 17 3.5t6 17t8 12.5q29 -9 43 -14.5t30 -19t27 -34.5q3 1 5.5 3t3 6.5t0.5 7v8.5v8q40 -14 65 -29.5t59 -44.5t60 -47q2 -12 2 -22q0 -83 -103 -117 q0 5 -8 24.5t-8 24.5q-80 71 -192 89q-35 6 -70 5q-74 1 -144 -25q-104 -38 -165 -118q44 -62 98 -93t98.5 -35.5t119.5 -12t132 -23.5q-3 -13 18 -27.5t21 -21.5q90 -6 177.5 -60t138.5 -137q2 -21 2 -42q0 -80 -26 -142q-32 -78 -96.5 -122.5t-148 -65.5t-188.5 -21 q-8 1 -54 3t-71.5 4t-72 8.5t-77.5 16t-65 26.5t-55 40q-15 -3 -25.5 0.5t-21.5 13t-15 11.5q5 29 -9 57t-13 33q15 19 26.5 55.5t26 56.5t45.5 19q21 -5 8 -24q14 7 26.5 8.5t18 0.5t23 -8.5t22.5 -9.5q-8 -28 -20.5 -50t-24.5 -15q24 -45 77.5 -58.5t132 -14t118.5 -11.5 q10 10 14 25q11 -1 21 -1q48 0 90 19q50 23 106 68q0 5 1.5 14.5t2 15.5t0 12.5t-5 9t-12.5 1.5q-4 7 -1 12.5t9 10t6 3.5q1 0 -11 18t-29 38t-27 24q-1 0 -12.5 -6t-18.5 -2q-4 2 -22 14t-42 21q-84 35 -180 63q-16 4 -38.5 4.5t-52.5 -4.5q-45 -7 -69 -7q-8 0 -14 1 q-2 0 -10 12t-12 13q-18 6 -32.5 17t-21 20t-19.5 30t-20 31q-8 2 -17 -4.5t-21 -3.5q-27 30 -45 84q-12 34 -11 69q0 20 4 41z" />
<glyph unicode="t" horiz-adv-x="569" d="M-61 924q68 61 167 61q18 6 27.5 22.5t11 32.5t3 50t4.5 55q6 41 27.5 111t25.5 118q59 -2 137 -31q18 -25 20 -64v-16q0 -30 -6 -57q-8 -34 -15.5 -74.5t-6.5 -62.5q42 20 82 29q31 7 63 7h17q40 -2 74 -26.5t55 -70.5q-26 -45 -73 -71t-122.5 -48t-101.5 -33 q-27 -178 -27 -425q0 -114 6 -243q0 -6 17 -14.5t33.5 -17.5t15.5 -17q40 19 77.5 21t61 -5.5t66.5 -25.5q-4 -36 -23.5 -65t-45.5 -46t-63 -29.5t-67 -18t-68 -9.5q-20 32 -58 32q-8 0 -17 -1q-52 49 -76 129q-24 77 -24 158v7q1 85 6 182q5 98 13 180q3 35 3 68 q0 46 -6 89q-17 9 -58.5 -7.5t-48.5 -17.5q-27 13 -48.5 38.5t-31 45.5t-26.5 60z" />
<glyph unicode="u" d="M90 961q17 13 26.5 59t16.5 59q14 3 27 3q36 0 68 -20q44 -26 74 -69q-13 -24 -5 -54t5 -48q-1 -10 -11.5 -30t-11.5 -30q-3 -19 7 -40t9 -43q0 -12 -11.5 -21.5t-13.5 -21.5q-1 -4 -1 -13q0 -31 10 -125q3 -47 12 -111t11 -67q1 -20 4.5 -39.5t12 -46t13.5 -41t20 -52 l21 -52.5q103 60 178.5 132.5t134.5 174.5q60 101 86 241q20 107 21 235q0 38 -2 79q24 12 45.5 14.5t42.5 -5t36 -15.5t37 -23l9 -6q20 -62 24 -129q1 -24 2 -46q0 -38 -5 -70q-7 -50 -12 -112q-3 -35 -3 -64q0 -24 2 -44q3 -30 7.5 -105.5t10.5 -111.5q6 -43 38.5 -144.5 t37.5 -162.5q-19 -20 -41 -24q-10 -2 -23 -2q-17 0 -38 3q-39 5 -60 4q8 17 -4.5 26.5t-31.5 19.5t-23 24q1 31 1 60q0 138 -32 206q-12 -31 -67 -88.5t-64 -91.5q-23 -13 -52 -36t-51.5 -42.5t-53.5 -39.5t-61 -30.5t-72 -10.5q-1 0 -2 -1q-40 0 -86 15q-16 4 -31 15 t-32 26.5t-20 17.5q-94 201 -117 405q-16 138 -16 322q0 88 4 187z" />
<glyph unicode="v" horiz-adv-x="1024" d="M33 1071q13 3 16 14h2q19 0 45 -17q26 -18 56 -13q58 -52 101.5 -142t67.5 -177t66.5 -201t95.5 -197q35 51 65.5 154.5t39.5 125.5q4 0 16.5 11.5t16.5 11.5q4 24 10.5 47t19.5 49t20.5 42t27 46.5t25.5 40t30.5 44.5t27.5 40q3 16 -10 44t-10 44q6 11 19 15.5t25 4.5 t21.5 6t10.5 21q14 -9 36.5 -21.5t33.5 -19t24 -20.5q12 -14 16 -28q3 -11 3 -28v-11q-1 -25 -11 -58q-8 -31 -39.5 -75.5t-38.5 -57.5q-17 -34 -57 -142.5t-68 -154.5q-15 -24 -20 -68t-10 -57q-7 -17 -32.5 -61t-31.5 -72q-2 -13 -14.5 -94.5t-24.5 -124.5q-15 -1 -27 -20 t-28 -19q-5 10 -24.5 15.5t-38.5 15.5t-23 30q6 1 11 29l1 2q-33 15 -59 56.5t-41 85.5t-41.5 96.5t-57.5 83.5q2 2 6.5 9.5t10 13.5t10.5 7q-3 1 -22 17t-37 16q-9 74 -42.5 161t-68 154t-65 156.5t-35.5 169.5z" />
<glyph unicode="w" horiz-adv-x="1478" d="M-12 1053q1 0 40.5 1t59.5 0t51 -7t47 -17q32 -115 69 -225t64 -180.5t87 -223.5q0 -3 11.5 -13t25 -24t25.5 -45.5t13 -72.5q15 24 59.5 150t90.5 171q13 70 29 114t31 65.5t41.5 69t51.5 110.5q27 -1 40.5 -6t33 -19.5t35.5 -23.5q10 -19 16 -47.5t14 -44t27 -21.5 q-18 -18 -5.5 -56.5t34.5 -71.5t45.5 -79.5t26.5 -79.5q9 0 27 -34t26 -54q52 73 83.5 172.5t41.5 181.5t23.5 189t29.5 170q32 10 65 10q61 0 123 -35q4 -35 4 -71q0 -78 -19 -160q-28 -121 -76 -264t-64 -238q-34 -28 -59.5 -88t-52.5 -115t-70 -78q-40 24 -77.5 68 t-71 107.5t-57 114t-55.5 127t-45 106.5q-35 -48 -71.5 -141.5t-63 -179t-69.5 -172.5t-93 -128q-15 1 -28.5 13.5t-36.5 3.5q-68 64 -141.5 204.5t-112.5 180.5q-7 62 -42.5 141.5t-41.5 116.5q-2 16 0.5 40t-0.5 33q-5 18 -27 46t-30 47q-5 11 -14 45t-19 53 q-44 81 -49 164z" />
<glyph unicode="x" horiz-adv-x="1024" d="M-1 1006q-4 9 -4 18q0 18 15 33q18 2 35 2q27 0 51 -5q38 -8 60.5 -21t41.5 -38.5t27 -42.5t19 -46q7 -17 10 -25q30 -29 101 -106t114 -116q2 7 15.5 38.5t13.5 41.5q38 1 56.5 21.5t22 49.5t6.5 57.5t17.5 49t46.5 21.5q-4 5 -4 14q0 24 27 82q37 80 78 96 q105 -28 134 -51q25 -20 19 -45q-43 -33 -69 -74t-37 -76t-40 -83.5t-75 -91.5q0 -18 1 -40.5t0.5 -30t-2 -19.5t-8 -20.5t-15.5 -20t-27 -29.5q66 -85 199.5 -228t203.5 -235l-5.5 -11t-7.5 -14.5l-9 -16.5t-10.5 -17t-11.5 -16t-13 -14t-14 -10t-15 -4.5t-16 1.5 q-39 11 -84 53.5t-85.5 96t-81.5 107t-86 95t-85 51.5q-20 -10 -40 -27t-33 -31t-32.5 -43.5t-26 -40.5t-26.5 -47t-22 -40q-10 -18 -33 -67t-38.5 -77t-42 -57t-54.5 -35q2 0 0 1q-21 5 -38 2q-5 -1 1 -3q-26 8 -38 26.5t-20 46.5t-18 42q21 19 29.5 46.5t8.5 49t10.5 44 t35.5 34.5q4 12 -3 21.5t-5 17.5q12 4 22.5 11.5t22.5 18t20 15.5q-1 4 -5.5 5t-12 1.5t-10.5 1.5q23 23 44 60.5t35 69.5t40 64.5t59 49.5q-22 52 -67 109t-87 100t-85 100t-62 109q-27 13 -38 41z" />
<glyph unicode="y" horiz-adv-x="1024" d="M59 862q-1 15 -1 32q0 44 5.5 108t5.5 101q0 14 -1 25q24 -3 63.5 -12.5t63.5 -9.5q69 -162 84 -305q-9 0 -12.5 -3t-5 -11t-3.5 -11q12 -93 41 -205q2 -8 8.5 -32.5t10 -37t14 -33t23 -32t33.5 -22t48 -13.5q-4 4 7 15.5t31 23.5t38 17q51 44 76.5 89t29 78t12 84.5 t25.5 94.5q-2 19 -7 56t-6.5 49t-4 37.5t-2.5 41t0.5 39t1.5 51.5q13 -2 23.5 -11t9.5 -22q16 -3 29 4t16 -1q11 -1 24.5 -15t34.5 -10q19 -46 40.5 -148t35.5 -143q52 -60 52 -152q0 -14 -1 -28q17 -41 24 -106t20 -117.5t50 -89.5q-3 -39 -3 -73q0 -31 2 -59q3 -30 3 -64 q0 -30 -2 -62q-4 -70 -24 -125q-48 -126 -173 -208q-123 -81 -267 -81h-3q-13 0 -43.5 8t-53 11t-62.5 -5q-10 10 -52.5 28.5t-50.5 43.5q-16 -10 -24.5 -10t-13 6t-17.5 24.5t-29 34.5q-10 9 -42 32t-41 41.5t-3 51.5q-3 -2 -6 -7t-7 -7.5t-11 -1.5q0 8 1 28.5t1 33 t-2.5 28.5t-8.5 28q35 17 70 17q1 0 3 -1h4q34 0 59 7q12 -8 17.5 -25.5t19.5 -21.5q-16 -31 -27 -31q-3 -18 9.5 -34t44.5 -40.5t36 -27.5q97 -23 176 -23q56 0 103 12q112 27 219 128q5 25 5 32.5t-5 30.5q33 60 35 137q1 10 1 21q0 63 -13 113q-15 58 -37 132t-27 105 q-23 -12 -40 -35.5t-24.5 -42t-19.5 -55.5q-34 -7 -64.5 -29t-50 -41.5t-55.5 -30.5q-19 -6 -42 -6q-19 0 -40 4q-114 22 -189 123q-8 12 -15 53t-17 58q-4 6 -18 11.5t-17 10.5q-17 34 -28.5 109t-14.5 88q-5 22 -33 84t-29 96z" />
<glyph unicode="z" horiz-adv-x="1024" d="M26 950q10 33 1 47q8 -3 11 2t3 13q27 5 50 2t49.5 3t45.5 25q62 14 118 20q31 3 65 3q29 0 61 -2q70 -5 100.5 -8t121 -17.5t108.5 -17.5q26 11 62 12h5q35 0 69 -15q38 -16 54 -50q-8 -21 -46 -52t-42 -63q-82 -53 -151 -124t-150.5 -173t-124.5 -149q8 -8 8 -31 q-58 -48 -102.5 -107t-58.5 -114q11 1 35 -4t43 -4t30 16q61 -7 195.5 -12.5t214.5 -21.5t149 -58q4 1 18 7t23 7q17 -19 19.5 -25t1.5 -28q22 1 28 -5q3 -4 3 -8q-1 -4 -3 -8q-4 -8 2 -16q-24 -3 -59 -15.5t-59 -20.5q-15 -5 -33 -5q-10 -1 -22 1q-32 4 -62 30 q-25 -9 -56 -9q-29 -1 -65 7q-34 8 -60 8q-30 0 -48 -10q-48 9 -105 9q-19 0 -39 -1q-80 -4 -141 -15t-134 -16q-23 -2 -43 -2q-45 0 -81 8q2 12 6.5 30t3.5 22.5t-4 31.5q38 44 91 158.5t77 146.5q33 13 59.5 41.5t42 58t39.5 62.5t49 51q13 37 41.5 72t62 64t67.5 57.5 t63.5 63t44.5 69.5q-65 16 -123 24t-130 8t-109.5 -2t-135.5 -8q-16 -4 -59 -30q-13 0 -39.5 5t-46.5 3q-12 17 -12 36q-1 11 3 23z" />
<glyph unicode="{" horiz-adv-x="684" d="M20 612q5 18 24 30t32 5q39 28 106 52.5t118.5 55t84.5 87.5q11 18 8 51.5t10 44.5q-10 28 -21 114.5t-30 114.5q11 40 -3.5 125.5t-14.5 96.5q17 20 62 61.5t65 69.5q32 3 59.5 -3.5t55 -26t39 -29.5t40.5 -38q-5 -22 -27.5 -31t-53 -11.5t-39.5 -6.5q-38 -50 -50 -117 q26 -76 38.5 -207t31.5 -196q-1 -32 -13 -82.5t-14 -62.5q-23 -14 -69.5 -49t-86.5 -59.5t-81 -37.5q1 -24 8 -40.5t24.5 -29.5t27 -18t34.5 -16q4 -6 13 -23.5t17 -25.5t19 -7q28 -62 36 -128.5t0 -131.5t-19.5 -126.5t-21.5 -135.5t-7 -135q1 -7 15 -15.5t9 -27.5 q16 -6 83 -16t94 -25q3 -1 3.5 -13.5t2.5 -13.5q4 -4 18 -6t15 -2q16 -11 17 -27.5t-5 -41.5q3 -13 -11 -23t-32 -8t-25 18q8 9 5.5 13.5t-15.5 13.5q-21 1 -45 -6t-38 -13t-28.5 -2.5t-23.5 21.5q-51 -7 -102.5 28.5t-82.5 94.5t-40.5 128.5t22.5 129.5q-4 16 1 32t8.5 21 t-3.5 10q3 24 12.5 62.5t16.5 72t13 72t4 76t-13 70.5q-9 6 -45.5 27.5t-48.5 29.5t-42 27.5t-44.5 33.5t-35.5 35t-35.5 43t-25.5 47z" />
<glyph unicode="|" horiz-adv-x="532" d="M147.5 -330q4.5 39 24.5 62q-1 54 -1.5 143t-1.5 133.5t-5.5 117.5t-13.5 150q1 2 7.5 17.5t14.5 19.5q-37 174 -10 394q0 4 6.5 36t5 54t-15.5 32q-2 13 9.5 21t12.5 14q-21 59 -22.5 118.5t12.5 157t16 126.5q13 -3 16.5 -0.5t7 8t7.5 6.5q-20 74 -14.5 139.5 t30.5 112.5q22 -5 53 -25.5t56 -25.5q6 -137 -1 -394.5t-7 -326.5q-1 -46 4 -137.5t4 -137.5q0 -21 -3 -79t-3 -88.5t6.5 -73.5t22.5 -74q-17 -46 2.5 -168.5t5.5 -179.5q13 -43 18 -83.5t0.5 -83t-29 -75t-67.5 -47.5q2 13 -18 20t-29 -6q-5 2 -5 5t2.5 8t2.5 8 q-56 -2 -80.5 30.5t-20 71.5z" />
<glyph unicode="}" horiz-adv-x="684" d="M-6 -371q2 12 6 24t7 20t10.5 19t11 15.5t12.5 16.5l12 16q83 -6 123 -23q27 27 52.5 57t57 71.5t53 83.5t36.5 85.5t12 86t-25 77.5q4 7 4 15.5t3 17.5q-7 -7 -11 8q-7 33 -17 39q-3 1 -7 2q-6 55 7.5 103.5t34 78t50 70.5t43.5 70q-63 40 -110 93.5t-60 110.5 q6 13 2 21.5t-14.5 26t-12.5 28.5q-6 33 8.5 103.5t16.5 95.5q13 137 -31 315q-1 0 -16.5 4.5t-23.5 5.5t-24 2.5t-31.5 -2t-31.5 -10.5q-6 17 -22 31t-30.5 22.5t-25.5 26.5t-10 45q14 9 36 10t40 11q15 -3 42 -6.5t43 -7t36.5 -12t36.5 -26.5t28 -45q58 -23 96 -103.5 t21 -143.5q18 -35 18.5 -96.5t-7.5 -118.5t-5 -122.5t25 -107.5q8 3 17.5 -3.5t13.5 -11.5t10 1q3 -1 4 -4t1 -8.5t1 -8.5q25 -7 42.5 -18t42.5 -33t36 -31q4 -8 11 -23.5t11 -24t11 -17t14 -10.5q-17 -35 12 -35q-72 -55 -120 -108t-91 -132q6 -24 25.5 -74t21.5 -90 q2 -8 8 -4t11 -4q18 -66 -11 -157.5t-71 -122.5q2 -15 -3 -32t-3 -30q-25 -6 -38 -20t-24.5 -38t-23.5 -38q-5 1 -11.5 0t-14 -3t-11.5 -3q-1 -7 3.5 -15.5t2.5 -19.5q-24 -9 -69 -43t-89 -39q-5 22 -28 17t-25 -23q-7 1 -17.5 10t-17.5 10q0 10 -4 19.5t-12.5 17t-16 13.5 t-20 12t-18.5 8.5t-17 6.5z" />
<glyph unicode="~" horiz-adv-x="1196" d="M53 692q186 171 326 223q24 -9 29.5 -10.5t25 -4.5t37.5 1q98 -64 229 -125q22 -11 45 -26.5t35.5 -25.5t32 -20t34.5 -9.5t42 5.5q61 19 97.5 85.5t33.5 158.5q14 -4 28 -18.5t30 -23t40 -1.5q2 -9 22 -56t19 -69q-3 -44 -45 -119t-80 -104q-7 -5 -75.5 -26t-73.5 -21 q-15 -2 -76.5 14.5t-91.5 32.5q-4 3 -10 14.5t-11 14.5q-3 2 -13.5 0t-12.5 0q-10 7 -22.5 25.5t-20.5 23.5q-7 4 -24.5 6t-24.5 6q-6 5 -10 20.5t-9 20.5q-14 12 -36 15.5t-38.5 9t-23.5 22.5q-19 8 -32.5 8.5t-21.5 -5.5t-14 -14t-15 -18t-20 -16t-32 -7t-29 -7 q-16 -11 -71.5 -59t-90.5 -66q-9 9 -26 6q-4 6 -16 22t-17.5 24.5t-12.5 23.5t-9.5 32t-0.5 37z" />
<glyph unicode="&#xa1;" horiz-adv-x="681" d="M180 -155q0 6 2.5 14t4.5 13.5t5.5 13.5t5 11.5t5 10.5t4.5 8q-9 80 -3.5 202.5t-0.5 209.5q-5 13 11 15.5t17 6.5q-4 81 -0.5 120t16 112t15.5 106q52 14 162 -35q-2 -22 2.5 -54.5t6 -48.5t-10.5 -40q15 -14 17 -29.5t-4 -47t-7 -54.5q-1 -40 9.5 -116t10 -135.5 t-23.5 -104.5q17 -44 18.5 -116.5t-3.5 -162.5t-3 -133q13 3 11 -14q-3 -31 -28 -66q-5 -7 -9 -10q-148 5 -230 153q-9 18 3 75.5t7 62.5q-4 4 -6.5 9.5t-3 11.5t-0.5 12zM225 954q1 4 4.5 12.5t5 13t2.5 11.5t-1 13.5t-7 13.5q15 5 23 18t15 32.5t12 27.5q182 -8 182 -135 q-5 -3 -13 -15.5t-16 -15.5q3 -7 10 -2t13 -2q-24 -37 -57.5 -51t-65.5 -6.5t-61 30t-46 55.5z" />
<glyph unicode="&#xa2;" d="M40 661.5q-3 22.5 6 45.5t20 41.5t29 46t28 47.5q7 13 12.5 42.5t11.5 37.5q3 4 16 8t15 8q6 10 20.5 44t28.5 44q53 40 114 63t112 19q11 -1 22.5 2.5t19.5 7.5t20.5 12t19.5 11q-11 36 -8.5 74t7 54.5t15 54t16.5 71.5q19 1 34.5 11.5t24.5 21t28 16.5t44 -2 q29 -36 35.5 -75t-3 -74t-12.5 -81.5t7 -95.5q30 -19 81.5 -43t88.5 -43.5t76 -47.5t64 -68t34 -91q-26 3 -31.5 3.5t-21 -4.5t-27.5 -7q-6 18 -35.5 31.5t-36.5 23.5q-36 -6 -64.5 3t-56 24t-51.5 18q-22 -12 -34 -35.5t-14.5 -55.5t-2 -58t4 -61.5t3.5 -47.5 q1 -52 -8.5 -134t-12.5 -132t13 -143q111 32 180.5 91t88.5 134q17 0 42.5 3t46.5 3t44 -6q-9 -11 -11.5 -26t7.5 -29q4 -10 14 -10t23.5 5t17.5 5q4 -9 13.5 -24t10.5 -17q-31 -77 -78.5 -136.5t-108.5 -100.5t-126.5 -68.5t-146.5 -48.5q-5 -366 -105 -453q-9 -1 -12.5 11 t-11.5 13q-13 -4 -26 -4t-23 2t-22 9t-19 11.5t-19 16t-17 17t-17.5 19t-16.5 18.5q1 39 8.5 104t13.5 113.5t4 103.5t-18 90q-71 12 -126.5 47t-116.5 91t-95 79q-4 24 -13 55t-13 48.5t-4 47.5t8 66q-2 10 -8 23.5t-10.5 23t-3 21t12.5 20.5q-16 23 -19 45.5zM284 617 q5 -52 11.5 -84t19.5 -76l-8 -25q-1 -5 0 -8q12 -49 66 -94t102 -64q11 59 25 288t32 382q-35 17 -81.5 -6t-78.5 -67.5t-32 -84.5q-33 -26 -47 -67.5t-9 -93.5z" />
<glyph unicode="&#xa3;" d="M0 637q20 0 20 25q26 8 78.5 7t71.5 15q28 -12 92 -12t84 -19q6 14 18 14.5t17 4.5q-3 4 -3.5 6.5t0 4.5l1.5 6t2 7q-10 3 -16.5 29t-18.5 55t-35 39q5 58 -10 117t-33 97.5t-26 96.5t12 115q-2 6 -14 6q-5 34 13.5 69.5t43.5 59.5t62.5 58t54.5 53q15 -4 41.5 -0.5 t42.5 5.5t32 -9q31 13 63 12t40 -33q16 23 43 20t49 -16.5t52 -25t52 -6.5q26 -42 60.5 -76.5t62.5 -58t68.5 -84.5t79.5 -156q0 -26 -31.5 -43t-36.5 -25q-64 16 -69 86q-10 -12 -25.5 -9t-22.5 20q0 7 8 14t5 18q-20 67 -69.5 119.5t-111 80t-134.5 24.5t-136 -43 q-22 -26 -36 -57.5t-20.5 -61.5t-5 -69.5t5 -69t16 -73t21.5 -69.5t27 -70t27 -63.5t28.5 -61t24.5 -51.5q72 -13 126 -9.5t87.5 14t77 7.5t94.5 -28q5 5 25 13t29 8q2 -13 14.5 -21.5t25.5 6.5q24 -25 19 -31t-17.5 -14.5t-7.5 -21.5q-49 -43 -184 -54q-2 0 -11 1 q-60 8 -59 -3l2 -4q3 -5 -2 -8.5t-20 -6t-22 -3.5t-23 -2q-28 -3 -59.5 0.5t-53.5 2.5t-45 -16q-1 -41 -22 -101t-25 -81q5 -10 13 -11.5t25.5 3.5t22.5 6q29 -8 104 -15.5t126 -27.5t86 -69q38 -5 81 -28.5t77 -66.5t32 -90q-12 5 -19 -0.5t-14 -18.5t-14 -18 q-13 1 -13 3.5t7 13.5q1 3 2 4.5t2 3.5t1.5 3.5t0.5 2.5q-9 -5 -20.5 -24t-20.5 -25q-7 -2 -15.5 3t-19.5 1q-23 41 -63.5 69t-94.5 54t-81 47q-30 0 -104.5 -7.5t-118.5 -4.5q-24 -11 -51.5 -35.5t-47.5 -46t-48 -43t-53.5 -27.5t-64.5 2q-6 22 -22 55t-21.5 60.5t0.5 66.5 q23 11 42.5 26.5t34.5 37.5t26 42t21.5 50t16 50t15 54.5t14.5 51.5q1 17 -8.5 23t-22 4t-27.5 -6t-19 -3q-5 0 -18.5 9.5t-18.5 11.5q-18 5 -49.5 -6t-51.5 -11q-67 1 -99 36t-44 120z" />
<glyph unicode="&#xa4;" d="M29 319q6 22 36 48.5t33 52.5q4 -1 8 -7.5t9 -6.5q9 21 18.5 29.5t26.5 8.5q-5 20 1.5 37t14 25.5t1.5 20t-32 26.5q5 23 -7.5 50t-28.5 48.5t-24.5 53t5.5 63.5q-12 20 -11 45t7.5 42t13.5 45t6 54q16 -10 17 -16q26 32 27.5 64.5t-15 63t-37 60t-39.5 66.5t-22 70 q31 -1 57 -5t48 -14t36 -16.5t32.5 -24t26 -25t27.5 -30.5t27 -31q13 3 37.5 3.5t39 7.5t31.5 28q33 -10 73.5 -2t66 14.5t69.5 -12.5q5 1 11.5 7t11.5 7q6 -2 20.5 -8t21.5 -8.5t20 -5.5t21.5 -3t20 2.5t21.5 8.5q6 -15 31.5 -25t29.5 -14q13 12 71 75.5t91 86.5 q20 13 39 17t42 -1.5t38.5 -12t45 -21t44.5 -21.5q-1 -28 -18.5 -65.5t-20.5 -49.5q-39 -4 -70.5 -28.5t-49 -52.5t-39.5 -57.5t-42 -39.5q-1 -12 10 -20t13 -11q10 -84 11 -167t-16.5 -162.5t-56.5 -102.5q-3 -13 -3.5 -22.5t-4.5 -24.5q14 -10 23.5 -33.5t21.5 -43 t33 -23.5q11 -50 -4 -83.5t-57 -39.5q-18 14 -58.5 41t-62 45.5t-27.5 36.5q-12 1 -22.5 -8.5t-22.5 -8.5q8 13 6 25q-2 -1 -8.5 -3t-9 -3t-9 -2.5t-9.5 -2t-9 -0.5t-10.5 1.5t-10 3.5t-10.5 6q-35 -21 -111.5 -19.5t-144.5 19.5q-5 1 -12.5 6.5t-12.5 11.5l-5 5 q-25 -3 -56 -32t-56.5 -60t-52 -55t-52 -18.5t-46.5 50.5q-21 6 -44 33t-33 34zM282.5 762q-4.5 -33 6 -83.5t10.5 -57.5q9 0 13.5 -5t4.5 -10t5 -6.5t16 6.5q-3 -12 -2.5 -16.5t5 -15t5.5 -15.5q19 -9 39.5 -25t35 -28.5t41.5 -24t62 -14.5q0 8 1.5 13.5t5 7.5t6.5 2 t8.5 -2t8.5 -4t8 -5t7 -4q61 19 78 33q31 26 23 84q16 1 23.5 4.5t10.5 7t15 19.5q5 -1 16.5 0t16.5 0q-2 13 4 26.5t9 18t-5 16.5q10 1 14 4.5t3 7.5t2 7.5t12 3.5q0 120 -60 217q-3 -4 -9 -2.5t-16.5 6t-15.5 4.5q2 9 4.5 14t4 5.5t2.5 2t1 4.5t-2 11q-117 43 -192 30 q1 -9 -2 -14.5t-5 -7t-14 -6t-18 -6.5q0 6 -3.5 8t-10 2.5t-9.5 1.5q-4 -26 -16 -31q-12 11 -25 6.5t-20.5 -14.5t-22.5 -20t-32 -11q1 -17 -9 -37t-14 -30.5t8 -32.5q-28 -12 -32.5 -45z" />
<glyph unicode="&#xa5;" d="M-8 1522q4 2 24.5 11t26.5 17q62 -21 107 -6q25 -12 42.5 -35t35 -56t26.5 -46q10 -13 38.5 -31.5t37.5 -29.5t25 -46t28 -47q4 -4 19 -7t18 -7q18 -22 34.5 -72t24.5 -65q5 -6 16.5 -13.5t14.5 -9.5q2 -49 27 -86.5t32 -64.5q6 5 15.5 0t16.5 -18t7 -29q20 21 32.5 38.5 t17.5 29t16 38.5t24 53q9 19 38 48.5t38 44.5q3 5 3 22t3 23q4 8 19.5 20t19.5 19q6 11 11 37t12 38q2 4 14 8t14 7q15 20 30 62t30.5 71t38.5 35q38 10 91.5 -13t57.5 -63q-2 -19 -20.5 -54t-16.5 -67q-14 -24 -46 -57.5t-58 -69t-37 -78.5q-4 -18 -41 -61t-43 -56 q-3 -6 0 -16t0 -14q-8 -12 -31 -32.5t-44.5 -46t-32.5 -56.5q43 8 104.5 11t145 3h98.5q10 -5 31 -28.5t44 -24.5q-3 -16 4 -35.5t5 -34.5q-49 -28 -109.5 -37t-109.5 -5t-110.5 3t-107.5 -14q-46 -34 -30 -209q19 -7 55.5 -2t60 7.5t50.5 -17.5q40 16 67 16 q13 -15 48.5 -37.5t49.5 -38.5q-5 -41 -33.5 -59.5t-69 -19.5t-82 3.5t-81 4t-57.5 -12.5q-4 -45 -4.5 -108t-2 -95t-16 -72.5t-45.5 -74.5q-32 15 -47 8t-39 4q-38 16 -51 50t-7.5 74.5t6 90t-10.5 97.5q-44 20 -116 18.5t-134.5 2t-95.5 36.5q0 21 6.5 54t7.5 44 q112 39 264 8q14 23 62 33q-3 17 -3 84t-10 90q-40 16 -82 6t-92.5 -21.5t-70.5 -2.5q-16 -7 -23 -39q-18 8 -60 14.5t-61 18.5q-4 33 16.5 64.5t22.5 49.5q10 1 15.5 1.5t7.5 1t2.5 1l1 1l1.5 1.5t5.5 2t11.5 3q4 11 2 18t0.5 14.5t14.5 12.5q32 3 63 -6q11 -5 8 -9 q47 14 101 15t90 16q-2 8 -4.5 22t-3 17.5t-3.5 12t-4.5 10.5l-6 8t-10 10t-13.5 10q3 17 -3 31.5t-13.5 23t-23 22.5t-22.5 21q0 60 -45 82q3 20 -5 39t-19 30t-25.5 23t-17.5 15q-8 9 -21.5 36t-23.5 40q-7 9 -30 26t-34 33t-4 33q-105 152 -135 207z" />
<glyph unicode="&#xa6;" horiz-adv-x="532" d="M158 1427q19 30 20.5 69t-6.5 77q112 -48 154 -78q15 -74 18 -154.5t-1 -212.5t-3 -210q0 -10 9 -110t-1 -134q-5 -6 -16.5 -17.5t-19 -22t-11.5 -22.5q-26 0 -47.5 7.5t-36 19t-25.5 31t-17 36.5t-9.5 44t-4.5 46.5t0.5 49.5t3 46.5t4 45.5t3.5 39q1 5 -3.5 23.5 t-4.5 23.5q0 43 11.5 118.5t12.5 108.5q1 19 -5 44t-11.5 43t-4.5 40.5t13 40.5q-1 3 -3.5 5t-5 2h-7t-6.5 1zM171 -297.5q2 -40.5 7 -75t25 -65t53 -47.5q14 -6 40.5 -0.5t43.5 -8.5q23 31 34.5 91.5t12.5 110t-0.5 130t-1.5 103.5q2 10 16 0q-10 52 -18.5 196t-34.5 232 q-25 8 -51 25t-52.5 24.5t-72.5 3.5q18 -84 19.5 -184t-8.5 -251.5t-11 -205.5q-3 -38 -1 -78.5z" />
<glyph unicode="&#xa7;" d="M40 616q-1 30 6.5 75t8.5 52q10 1 20 7t14.5 7t21.5 -5q-7 31 18.5 65t28.5 53q11 -4 14 -14q8 1 17.5 14t11.5 23q15 12 42 16t41 14.5t13 43.5q-1 6 -11 12.5t-19 8t-11 -2.5q-4 22 -11.5 63t-11 61.5t-5.5 58t-1 79.5q15 3 23.5 14.5t10 22t3 28.5t2.5 25q7 1 14 -3.5 t11 -4.5q16 83 131 113q1 7 -3 15.5t-3 15.5q69 60 172.5 51t198.5 -51t159 -97q-2 -19 13.5 -46.5t31.5 -50t20.5 -55.5t-18.5 -65q-27 7 -52.5 28t-45 44.5t-39.5 45t-44.5 32.5t-51.5 4q-49 27 -101.5 35t-102.5 -16t-71 -85q-25 0 -46.5 -30t-26 -67.5t9.5 -70.5 q12 -21 61.5 -61t87.5 -66q21 -14 64.5 -26t60.5 -23q14 -8 50 -41.5t68 -58.5t46 -21q13 -15 30.5 -43t35.5 -48.5t45 -35.5q10 -22 38 -74t43 -84.5t25 -80.5t2 -90q-5 -32 -26 -60.5t-44 -57t-30 -58.5q15 4 28.5 -3t19 -17.5t1.5 -16.5q8 -19 26 -52t24 -57.5t1 -62.5 q-3 -29 -35.5 -71.5t-33.5 -74.5q-54 -10 -78 -71q-35 -5 -77.5 -29t-77.5 -51t-81.5 -53.5t-90 -36t-103.5 1.5q-27 -19 -50.5 -22.5t-39.5 3.5t-46.5 18.5t-60.5 16.5q-18 28 -50.5 63.5t-52.5 63.5t-22 57q2 6 6 12t7.5 9.5t6 7.5t-0.5 8.5t-11 9.5q6 15 15 14t24 3 q3 15 -3.5 29.5t-4.5 27.5q3 3 9 8.5t9.5 9t7.5 9.5t5 12q4 -1 11 -1.5t9.5 -1t6.5 -2t5.5 -4t3 -6.5t1.5 -10q11 2 15.5 6.5t6.5 13.5t4 13q13 -3 23.5 4t23.5 4q2 -5 3.5 -12t2.5 -9.5t7 -6t18 -4.5q-1 -14 -10.5 -32t-11.5 -24q0 -3 2.5 -5t5.5 -2h7.5t6.5 -1 q-7 -10 -10.5 -19.5t-1.5 -22t3.5 -20t8 -25.5t8.5 -25q136 17 257 88.5t198 175.5q-7 12 -72 73q-39 -18 -104 -14.5t-90 37.5q-18 54 -65.5 89.5t-99 50.5t-121.5 40t-114 53q-18 57 -94 113q-5 22 -10 58t-10.5 54.5t-18.5 24.5q-14 19 -15 49zM236 551q67 -69 138 -115 t132.5 -68t116.5 -36t108 -31t88 -41q23 33 43.5 103t22.5 108q0 19 -5.5 28.5t-19.5 21.5t-22 22q-151 167 -242 200q-12 -31 -30.5 -41t-40.5 -4t-44 17t-47 20.5t-43 7.5q-2 -14 -8 -16q-40 -10 -64 -27.5t-32.5 -34t-21.5 -36.5t-29 -31q4 -17 4 -23.5t-4 -23.5z" />
<glyph unicode="&#xa8;" horiz-adv-x="681" d="M31 1417q24 24 39 78q23 -17 60 -11t48 -7q5 0 11 6t16 4q-2 -28 47 -70q15 0 18 13q3 -1 9 -8.5t18 -4.5q-14 -23 -32 -72t-39.5 -82.5t-57.5 -48.5q-31 11 -68 51t-63 52q18 82 -6 100zM408 1317q10 12 13 33.5t3 37.5t11.5 28.5t37.5 13.5q10 13 9.5 34t2.5 37 q21 3 21 -12q52 12 95 -16.5t52.5 -75t-18.5 -99.5h-19q-1 -19 -10.5 -36t-16 -23.5t-27 -22t-23.5 -18.5q-1 1 -8 7.5t-9 8t-8.5 6.5t-10 7t-10 5t-13 4.5t-13.5 2.5q0 14 -5 22.5t-7 16.5q-20 0 -21 -4q-7 6 -7.5 20t-18.5 23z" />
<glyph unicode="&#xa9;" horiz-adv-x="1509" d="M16 709q3 115 50 262q4 14 3.5 41t4.5 32q3 4 16 10.5t16 14.5q3 7 3 32.5t4 31.5q2 3 12 11.5t13 17.5t-1 28q151 92 193 172q5 -5 19 1.5t25 13.5t11 5q41 39 77.5 49t84.5 5q6 0 6 24q7 -3 16.5 -1t17.5 1t7 -8q2 3 10.5 11.5t11.5 16.5t2 21q15 3 22 -15t17 -18 q12 -2 17.5 3.5t9 15.5t6.5 14q19 -20 44.5 -24.5t49.5 1t47.5 10.5t46 -0.5t37.5 -27.5q29 4 62.5 -10t58.5 -33.5t57.5 -34.5t61.5 -12q-3 -14 4 -19t18 -4.5t19 -7.5t6 -26q11 -4 16 -4t13 2t20 2q12 -30 26 -44.5t38 -21.5q-1 -20 16 -40.5t43 -43.5t37 -39 q-13 -12 -8 -29t16 -29t21 -33t8 -42q3 -5 5 -4.5t8 3t12 1.5q-2 -13 1.5 -28t2.5 -23t-13 -14q10 -8 23.5 -30.5t17.5 -27.5q-14 -21 -6 -93t4 -103q-12 -8 -24 -8q9 -72 -9.5 -137t-46 -104.5t-73 -99t-68.5 -98.5q-7 -1 -14 3.5t-11 4.5q-3 -3 -4 -7.5t-1.5 -13.5 t-2.5 -19q-21 1 -44.5 -13t-45 -32.5t-44 -36.5t-50 -27t-55.5 -2q-13 -26 -54.5 -39t-72.5 -2q-19 -38 -67.5 -47t-113.5 -10t-100 -17q-21 29 -70.5 35.5t-80.5 -2.5q-189 90 -301.5 276.5t-133.5 432.5zM195 766q6 -23 11.5 -72.5t18.5 -72.5q-23 -41 -0.5 -114 t68.5 -142q57 -86 92 -113q13 -8 16 -22.5t7 -18.5q3 -3 14.5 -0.5t17.5 0.5q7 -3 24 -16t25 -15q67 -26 149.5 -26t156.5 30h4q47 4 65 9q5 12 43.5 28t80.5 41t56 57q-72 -29 -155 -48t-101 -9q-27 -16 -47.5 -15.5t-32 11t-25.5 21t-27.5 14t-37.5 -9.5q-8 12 -44.5 21 t-51.5 20q-91 65 -112 133q-2 8 0 28.5t0 28.5q-5 17 -17 46.5t-16.5 45t-1.5 34t20 30.5q-18 25 -16.5 58t13.5 58.5t16 53t-9 39.5q20 22 26.5 48t23.5 46q0 -7 19 -2q34 9 33 40q0 8 -3 17q26 3 37 15t22.5 31t30.5 32q5 9 14.5 11.5t17 -0.5t7.5 -7q11 8 32.5 27t29 23 t25.5 8.5t42 2.5q8 15 32 14.5t37 -20.5l29 -4q28 -4 51 -11t52 -31t44 -62q13 3 20 -2.5t8.5 -10.5t4.5 -20q1 -1 21.5 -8.5t34 -15.5t28 -33t15.5 -60q-3 -27 -1 -45t-2 -36.5t-18 -34.5q-19 3 -76 16q4 1 4 -4q0 -12 -14 -19q-4 -2 -8 -2q-3 2 -10 6.5t-10 7.5t-7.5 8 t-5.5 11.5t0 15.5q7 2 10 8t1 17t-4.5 19.5t-7.5 23.5l-7 21q-3 -14 -16 -17q-12 13 -30 39.5t-30 38.5t-43.5 20.5t-79.5 4.5q-32 -18 -58.5 -43t-38 -40t-42.5 -57q-1 -2 -11 -3t-12 -5q-6 -9 -6.5 -35t-6.5 -38t-28 -1q3 -24 -7 -58t-11 -52q1 -4 5.5 -18t6 -21.5 t3.5 -18.5t0 -18t-7 -10q12 -48 33.5 -81t45 -51t58 -25t63.5 -7t71 8.5t70 17t71 21.5q4 1 6 2q20 14 46 39.5t53 44t69 31.5q-4 -11 7 -10q7 1 27 8q34 10 34 2q-4 -3 12 -22.5t6 -24.5q18 -2 38.5 22.5t43 61t33.5 47.5q7 91 1.5 143t-28.5 135q-16 -9 -22 -4.5t-9.5 15 t-5.5 10.5q-1 69 -51 129t-92 45q-6 38 -36 63t-74.5 44.5t-59.5 31.5q-15 5 -19 0.5t-16 -2.5q-5 11 -10 16.5t-12.5 7t-14 1t-20.5 -2t-27 -1.5q-5 -3 -22 -5q-1 16 -8 19t-16 -1.5t-16 -3t-8 14.5q-21 -3 -34.5 -0.5t-29.5 -0.5t-32 -15q-35 13 -75 1t-68 -30.5 t-63.5 -39.5t-61.5 -25q-1 -5 0.5 -18t0.5 -22t-9 -10q-7 0 -13.5 10t-19.5 7q1 -26 -11.5 -44t-27.5 -30.5t-18 -22.5q6 -4 -8 -29.5t-3 -39.5q-6 0 -15 -3t-14 -4t-10 1q-14 -14 -27 -67t-38 -64q1 -12 4 -34.5t3.5 -32.5t-4.5 -24t-17 -24z" />
<glyph unicode="&#xaa;" horiz-adv-x="757" d="M12 1020q22 143 25 203q7 -1 9.5 -0.5t7 3t7.5 3.5q-2 8 0 17.5t1 18.5t-7 11q8 8 14 9t16 -0.5t21 -0.5q-1 3 -11.5 11.5t-10.5 21.5q-1 4 -1 7t2.5 4.5t5 2t7 0t8 -0.5t7.5 -0.5t6 -0.5q-11 18 -11.5 28t6 15t14.5 9.5t14 16.5t5 32q13 -7 20.5 -1.5t4.5 15.5q3 6 10 8 t12.5 1.5t10.5 5.5t6 20q8 -11 21 -7.5t25.5 18.5t14.5 30q5 -1 12 -0.5t13 2t12.5 -2t9.5 -14.5q0 14 11 16t12 11q37 0 49 -12q18 14 46 10t55.5 -16t48 -35t22.5 -49q34 -3 53 -11.5t40 -27.5t36 -29q-1 -45 -8 -107.5t-12 -105t-6.5 -105.5t8.5 -108q3 5 10 10.5 t10 11.5q8 1 10 -5.5t3 -14t6 -8.5q14 -2 16.5 7t0 19.5t3.5 16.5q13 -8 17.5 -5t5.5 21q12 -8 12 -47q10 2 12.5 6t0.5 11.5t1 19.5q10 8 11.5 4.5t1.5 -14.5v-7v-6q8 -1 10.5 8.5t9.5 4.5q10 -9 6 -39t0 -47q-20 -21 -35 -52t-24 -53.5t-31 -43t-57 -27.5q-81 99 -113 129 q-3 31 0.5 49t3.5 28.5t-12 36.5q-6 -35 -27 -49q-13 -8 -20 6q-143 -249 -344 -157q-9 14 -39 59.5t-45 69.5t-35 64.5t-31 76.5zM154 1034q7 -24 5.5 -44.5t0.5 -44t14 -36.5q9 7 20 -4t24.5 -26t23.5 -15q17 13 63 42.5t77 54.5t52 55q12 49 37.5 100t58.5 80 q19 123 21 150q-21 -1 -51 23.5t-45 27.5q-1 0 -15 5.5t-22 4.5h-23t-18 -2.5t-12.5 -3t-12 -6.5t-11 -8.5t-14.5 -13.5t-18 -17q1 1 -1 4t-5 4.5t-6 -0.5q-24 -14 -43 -54t-18 -75q-38 -21 -50 -85.5t-6 -115.5h-26z" />
<glyph unicode="&#xab;" d="M125 539q23 70 67.5 139.5t92.5 103.5q1 39 20 70.5t41 49.5t41 49t21 69q22 6 36 26t25.5 47t22.5 40q42 3 72 -9.5t62.5 -39t47.5 -35.5q-47 -103 -173 -286t-169 -286q39 -65 94 -133.5t97 -114t112 -116.5q12 -59 0 -154q-13 -7 -24 -4t-21.5 0t-14.5 -18 q-40 13 -73.5 43t-53.5 60t-50 64.5t-60 53.5q4 15 -8 25.5t-6 27.5q-5 6 -43 47.5t-53 61t-42 59t-41 78.5t-20 82zM528 569q8 7 16 4.5t15 4.5q8 52 30.5 100t53 87t61.5 76.5t61 84t46 94.5q22 8 36.5 31t28.5 48t33 34q31 1 50 -16.5t35.5 -39.5t37.5 -28 q11 -39 -41.5 -153t-109.5 -189q-2 -2 -12.5 0t-12.5 0q-5 -7 -7 -27t-7 -27q-6 -9 -27.5 -19.5t-26.5 -19.5q-10 -15 -17.5 -45.5t-12.5 -38.5q-1 -1 -11.5 -7t-18.5 -15.5t-9 -22.5q0 -11 7.5 -25t20 -27.5t23.5 -24t21.5 -19.5t11.5 -10q7 -6 26 -21.5t25 -22l18 -19.5 t18.5 -26.5t12.5 -31.5q51 -10 53 -53q51 -20 72.5 -57t16 -71t-28.5 -57q-58 -6 -76 -22q-76 71 -210.5 206t-184.5 183q-49 113 -17 182z" />
<glyph unicode="&#xac;" horiz-adv-x="1196" d="M72 838q-50 49 2 99q46 44 127 53q60 7 100 -15q2 8 14.5 14t18 9t-3.5 16q4 13 7 -2q1 -3 1 -6q46 1 119 9.5t121 6.5t96 -23q5 3 12.5 12t9.5 11q17 -13 38.5 -15t39.5 3t41.5 9.5t40.5 2.5q7 -1 14 -11.5t9 -11.5q9 -8 25 0t28 7q7 0 25.5 -1.5t31 -2t29.5 4t29 15.5 q50 -37 68 -74.5t7 -101.5q-7 -45 -7.5 -103.5t2.5 -110t-4.5 -106.5t-27.5 -92q-15 -11 -37.5 -10.5t-40.5 -1.5t-28 -19q-10 15 -18 33t-12.5 42.5t-8 44t-3.5 52.5t-1 50.5t1.5 55.5t3 51t4 53t3.5 46q-29 17 -68.5 24.5t-64 7.5t-77 -4t-64.5 -5q-15 -1 -52 7.5t-55 6.5 q-60 -5 -229 -11t-266 -19z" />
<glyph unicode="&#xad;" horiz-adv-x="681" d="M36 503q-2 21 10.5 54t14.5 43q54 18 120.5 21.5t111 -1t110.5 -14.5q12 2 38.5 9t40.5 9.5t33.5 -1t33.5 -17.5q6 1 11.5 4.5t11 10t8.5 8.5q31 -19 49 -65.5t28 -61.5q-12 -29 -31 -44.5t-47 -19.5t-51.5 -3t-63 5.5t-61.5 5.5q-23 -6 -28 -12q-35 15 -138.5 12 t-177.5 15q-21 21 -23 42z" />
<glyph unicode="&#xae;" horiz-adv-x="1509" d="M-23 664q18 54 22 133.5t16.5 150.5t54.5 133q13 20 56 58t58 57q5 8 10 27.5t13 25.5q14 15 45.5 32t54.5 36t29 47q30 3 55 14t53.5 30t42.5 26q65 -11 101 14q29 -16 81 -11.5t70 25.5q58 -28 208 -72t165 -49q7 -6 33 -27t36 -29t32 -25t36 -26t33.5 -20t36.5 -18 q16 -38 40 -74.5t56 -78.5t49 -68q-8 0 -8 8q2 -20 18.5 -59t34.5 -56q-2 -36 6 -76.5t31 -52.5q-7 -26 -7.5 -65t2.5 -75t-8 -71.5t-40 -54.5q1 -38 -21.5 -78.5t-44 -62.5t-70 -64.5t-61.5 -54.5q-152 -139 -512 -221q-19 22 -59 16q-120 -35 -244 23q-4 -1 -7.5 -8 t-8.5 -7q-105 16 -190 67t-142.5 128t-93.5 169t-53 200q4 13 7 29t0 34t-16 21zM147.5 590q3.5 -98 47 -182.5t124.5 -135.5q0 -2 9 -21t8 -22q13 -2 32.5 -12t33.5 -17.5t38 -10t47 9.5q-54 102 -67 203t8 231q1 10 -11.5 13t-13.5 9q5 19 20.5 74.5t24.5 88t17 77t8 74.5 q21 17 52 47.5t54 55t56.5 48.5t65 36t74 10t87.5 -23q7 -17 33 -31t55 -23.5t59.5 -31t43.5 -51.5q11 -26 11 -82.5t3 -69.5q-69 -101 -133 -146.5t-156 -54.5q1 -30 -30 -52.5t-62 -35.5t-31 -18q41 0 78 -15t62 -37t53 -45t50.5 -38t54.5 -17.5t65 17.5q-6 -1 9 -9 q11 -6 44 -21q57 -28 57 -32l38 30q47 34 53 40q67 62 112 179t25 232q-46 46 -29 76q-19 10 -30.5 40t-27.5 53t-50 22q-5 23 -23 40t-37.5 27t-37.5 28t-23 42q-13 -1 -24 4.5t-15.5 7.5t-22.5 -6q-106 66 -151 84q-39 16 -117 24.5t-121 -1.5q-138 -29 -186 -62 q-3 -2 -16 0t-15 0q-27 -20 -49.5 -65.5t-43.5 -88.5t-46 -59q-8 -5 -28 -21t-34 -24q-2 -30 -28.5 -76t-32.5 -75q-24 -113 -20.5 -211zM565 184q13 5 43 5.5t54 -2t24 -5.5q9 15 23.5 15.5t34 -7t26.5 -8.5q1 18 25 25.5t28 13.5q1 7 -3.5 15.5t-4.5 15.5q-18 -4 -41 19 t-42.5 53t-48 56.5t-54.5 27.5q-6 -6 0 -90.5t4 -96.5q-22 0 -56 -21q-18 -12 -12 -16zM612 721q4 13 26.5 21t43.5 -3q32 4 71.5 24t69 50.5t39 63.5t-24 68t-114.5 59q-44 -35 -89.5 -142.5t-21.5 -140.5z" />
<glyph unicode="&#xaf;" horiz-adv-x="681" d="M7 1262q-4 19 0 33t13.5 36t12.5 35q59 18 131.5 21.5t121 -1t122.5 -14.5q13 2 41.5 9t43.5 9.5t36 -1t36 -17.5q7 1 13 4.5t12 9.5t10 9q25 -15 37.5 -34.5t23 -46.5t25.5 -46q-13 -29 -33.5 -44.5t-51.5 -19.5t-56.5 -3t-68.5 5.5t-68 5.5q-25 -5 -33 -12 q-38 15 -151.5 12t-194.5 15q-18 16 -22 35z" />
<glyph unicode="&#xb0;" horiz-adv-x="819" d="M129 1286q20 15 33.5 37t30 63.5t20.5 51.5q8 3 33.5 8.5t42.5 10.5t36.5 17t28.5 29q44 7 80.5 0.5t85.5 -24t82 -25.5q8 -24 23.5 -46t24 -44t9.5 -61q16 14 19 -19q1 -6 1 -20q1 -18 3 -19q1 0 2 2q13 -22 8 -34t-14.5 -43t-7.5 -60q-6 -1 -10 -2t-7.5 -2t-6.5 -3 l-4.5 -3t-3 -4t-2.5 -4t-2 -5.5t-1 -6t-1 -7.5t-1 -8q-18 -17 -35.5 -29t-43.5 -27t-34 -20q-24 -12 -69 -53q-4 2 -22.5 4.5t-23.5 9.5q-55 -14 -97.5 -13t-73 22.5t-51.5 52.5t-33 76t-16.5 93t-2.5 105zM260.5 1199q3.5 -20 16 -50.5t38.5 -65.5q139 -6 205 69 q50 57 29 121q-20 67 -102 91q-19 5 -41 8q-4 -21 -17.5 -27t-28.5 -3t-30 0t-21 -17q-19 -29 -26.5 -42t-16.5 -38.5t-5.5 -45.5z" />
<glyph unicode="&#xb1;" horiz-adv-x="1196" d="M55 85.5q-9 35.5 15 72.5q140 -11 415 13.5t363 25.5q134 0 192 8q43 -22 52 -55q31 1 39 -12.5t28 -12.5q3 -28 -13 -44.5t-37 -22t-38 -19.5t-16 -39q-10 7 -21 3t-23 -2.5t-16 15.5q-8 -22 -45 -24t-78.5 -2t-54.5 -15q-42 10 -85.5 11t-110.5 -4.5t-84 -6.5 q-35 -1 -93.5 3.5t-108.5 4t-95 -13.5q-12 -1 -18 5t-5 18q-32 -14 -68.5 -4t-60.5 36t-33 61.5zM84.5 775.5q-7.5 35.5 1.5 96.5q1 1 10.5 8t13 9t13 5.5t15.5 3t15.5 -4.5t18.5 -12q2 9 17.5 10.5t40 -3t47.5 -10t48 -12t33 -8.5q15 -5 15 14q54 -20 82.5 4.5t31 76.5 t1.5 116t-5.5 123t9.5 98q52 -7 87.5 -33.5t52 -65.5t25.5 -87.5t7 -98.5t-2 -100q14 -19 36.5 -28t52 -7.5t51.5 5.5t55 12t42 10q6 -12 14 -14.5t16 1.5t19.5 6t24.5 -1q12 -4 27.5 -19t26 -25.5t25 -14.5t25.5 12q9 -13 9.5 -27t4.5 -17.5t23 -2.5q-2 -22 -30 -39.5 t-29 -40.5q-89 -29 -229 -37t-152 -10q13 -57 -8 -119q1 -4 11.5 -15.5t13 -22.5t-4.5 -38q-3 -22 -5 -48t-3 -39.5t-4.5 -29.5t-11.5 -26.5t-22.5 -22.5t-37.5 -24q-44 14 -72.5 61.5t-37 105t-11 120t5.5 106.5q-22 14 -60.5 19t-78 2.5t-84.5 -3t-79.5 4t-63.5 23 t-36.5 54z" />
<glyph unicode="&#xb2;" horiz-adv-x="681" d="M27 858q13 0 39 11.5t32 7.5q33 32 82 75t78.5 69t67 66.5t62.5 77.5t50 90t43 115q0 3 -29 27t-20 39q-8 -7 -17.5 -12.5t-27.5 -13t-25 -11.5q-5 -2 -16.5 -18t-19.5 -21q-6 -4 -22 -6.5t-21 -5.5q-5 -4 -10 -17t-9 -16q-9 -7 -28 -12.5t-27.5 -13.5t-5.5 -25 q-27 -4 -38.5 -3.5t-23.5 -0.5q9 21 -30 16q2 28 2 35t-6 27.5t-9 37.5q53 83 136.5 120t211.5 58q36 -21 59 -37t49 -40.5t39 -55.5t13 -67q0 -24 -11.5 -60.5t-12.5 -56.5q-34 -14 -31 -72q-16 -17 -29.5 -43.5t-21.5 -47t-25.5 -41.5t-42.5 -32q4 -5 0.5 -22t-0.5 -27 q-4 0 -17 6.5t-16 6.5q-3 -18 -46 -52t-62 -36q27 -25 69 -26.5t85.5 7t88.5 13t90.5 -16t80.5 -72.5q-18 -77 -44.5 -89t-97.5 5q-30 5 -73.5 5t-96 -2.5t-74.5 -2.5q-28 1 -70.5 6.5t-71.5 4.5t-60 -13q-50 29 -74 64.5t-16 97.5z" />
<glyph unicode="&#xb3;" horiz-adv-x="681" d="M33 1444q15 2 91.5 13t118 15.5t106.5 4t114 -12.5q19 7 36.5 7.5t34 -6.5t30 -15.5t28 -23.5t24.5 -26t23 -28t20 -24q5 -22 -14.5 -37.5t-11.5 -30.5q-62 -23 -109 -94q-11 2 -22.5 -1.5t-23.5 -13t-19 -16t-20.5 -20.5t-16.5 -17q51 -14 86 -38t50.5 -46t37 -52 t43.5 -48q-1 -43 -37.5 -87.5t-42.5 -68.5q-19 7 -28.5 2.5t-0.5 -22.5q-32 -2 -65.5 -14.5t-42.5 -34.5q-7 -1 -10.5 9.5t-10.5 10.5q-8 -3 -24 -11t-29.5 -14.5t-29.5 -11.5t-29.5 -4.5t-22.5 8.5q-22 -22 -77 -17.5t-72 30.5q-24 3 -21 -21q-15 30 -47 49q0 7 -0.5 24 t-0.5 29t3 25.5t9.5 19.5t19.5 6t33 -10q5 1 6.5 11t7.5 10q44 -35 108 -30.5t123.5 29.5t102.5 60q2 11 -3.5 27t-13 32t-8.5 21q-17 1 -49 13.5t-60.5 23.5t-72.5 7.5t-88 -29.5q-3 2 -6.5 7.5t-6.5 11t-6.5 9.5t-7.5 4t-8 -6q-5 39 -4 60t12 61q12 6 41 0.5t39 3.5 q0 -3 19.5 1t43 13t31.5 17q9 7 89 52.5t98 76.5q-12 7 -45 17t-80 18.5t-98 -0.5t-84 -39q-10 1 -28.5 2.5t-39 -6t-25.5 -23.5q-82 23 -67 158z" />
<glyph unicode="&#xb4;" horiz-adv-x="681" d="M231 1199q-2 16 1.5 40t3.5 25q36 35 49.5 60t10 39t-9 26t-2 26.5t24.5 34.5q10 -4 29 16t37 7q-3 7 24 34h25h20q8 -20 19 -20q5 0 9.5 5t6.5 9.5t4 3.5q26 -4 39 -8q7 -2 29.5 4.5t28.5 5.5q2 -3 2 -22t6 -25q-6 -61 -39.5 -115t-89.5 -92q-1 -1 -18 -2.5t-23 -21.5 q-5 -11 -13 -16t-24.5 -8.5t-24.5 -6.5q-3 -1 -12.5 -4.5t-12 -4t-11 -3t-12.5 -3t-12.5 -2t-15.5 -1.5t-16.5 0.5t-19.5 1.5q-11 1 -13 17z" />
<glyph unicode="&#xb5;" d="M92.5 560.5q0.5 91.5 13.5 164.5t28.5 173.5t17.5 176.5q11 7 17.5 20.5t11.5 36.5t7 31q13 -3 82 -4.5t101 -17.5q1 -85 -16.5 -220.5t-32.5 -242t-9.5 -238t43.5 -235.5q166 -29 330 110q37 77 60.5 168t28 193t-26.5 186q9 30 9.5 75t7.5 81t34 65q2 0 5 -4.5t6.5 -9 t7.5 -7.5t9 0t11 13q21 -2 33.5 -13.5t20.5 -16.5t46 2q2 -8 6 -14t14 -15l9 -8q-12 -66 -9 -104.5t10.5 -85t6.5 -68.5v14q3 -45 -1.5 -138.5t-7.5 -167.5t11.5 -153t52.5 -119q18 -113 -36 -151q-41 -28 -95 6q-64 40 -82 134l-4 30q-107 -107 -217 -163.5t-254 -55.5 q-1 -17 -1 -21t4 -16.5t5 -16.5q-11 -14 -13.5 -50t-0.5 -78.5t1.5 -91t-6.5 -86t-25.5 -65t-55.5 -27t-96 27.5q-21 69 -23.5 155.5t7 161t13 165.5t-5.5 169q-3 18 -13 43t-16.5 41t-9.5 42.5t9 49.5q-23 78 -22.5 169.5z" />
<glyph unicode="&#xb6;" horiz-adv-x="1099" d="M-39 793.5q5 63.5 25 117.5q2 11 -9 18.5t-8 20.5q37 60 23 76q14 18 44.5 62.5t50.5 72t53.5 67t62.5 64t68 46.5t79 30q7 11 35.5 21t34.5 24q53 8 176 33t174 31q13 9 27 12.5t24 4t26.5 -6t22 -9.5t24 -14t19.5 -12q118 7 205 -57q34 -26 49 -75.5t0 -84.5 q-14 1 -27 12t-37.5 21.5t-66.5 13.5q-13 1 -41 3.5t-50 4t-32 0.5q-19 -2 -32.5 -17t-19 -41t-8 -54t-0.5 -66.5t4 -67.5t6 -67.5t5 -58.5q6 -78 9 -170q7 -138 32 -345t41 -398t8 -370q-23 1 -32.5 -2t-26.5 -18q-11 -1 -18.5 5.5t-10.5 14t-6.5 20.5t-5.5 17 q8 -25 -2.5 -49t-26.5 -31q-14 15 -29.5 38t-39.5 44q-4 91 -7.5 204.5t-5.5 172.5t-9 146t-19 182q-19 -5 -65.5 -12.5t-82.5 -17t-67 -25.5q-3 -1 1.5 -27t4 -57t-15.5 -45q1 -2 3 -9t4 -13t5 -12.5t6.5 -10.5t7.5 -3q-18 -55 -21.5 -123.5t-1 -115t-12 -93t-51.5 -73.5 q-29 6 -44 10.5t-39 14.5t-39 27t-23 40q24 131 26.5 250.5t-10.5 214.5q-75 8 -136.5 42.5t-102 84t-67 111.5t-35 127.5t-3.5 129zM116 657q16 -89 87 -151q2 10 49 10q-4 -22 9.5 -21.5t29 7.5t22.5 -8q32 106 6 231q-7 34 5.5 98.5t-5.5 100.5q14 5 14 26t-7 35 q7 -1 21.5 11.5t19.5 23.5q-16 15 -20 55t-17 60q-64 -55 -116.5 -134t-83 -167t-14.5 -177zM502.5 657q-11.5 -73 5.5 -155q17 4 75.5 10.5t80.5 11.5q55 48 34 199q-10 65 0 254q1 49 -13 129t-15 125q-12 -12 -22 -6.5t-16 16t-7 19.5q0 3 -34.5 -4t-41.5 -9 q-28 -21 -34.5 -49.5t2 -55.5t8.5 -60t-15 -62q20 -73 12 -181.5t-19.5 -181.5z" />
<glyph unicode="&#xb7;" horiz-adv-x="569" d="M164 793q5 9 28 27.5t25 37.5q70 -7 113 -19.5t61.5 -26t21 -37t-3.5 -42t-17 -50t-15 -52.5q-16 5 -27.5 -4.5t-25 -23t-31.5 -15.5q-78 30 -108.5 76t-20.5 129z" />
<glyph unicode="&#xb8;" horiz-adv-x="681" d="M92 -272q16 13 41.5 17.5t46.5 -6t21 -36.5q32 -11 58 -12.5t46.5 6t34 16t30 21.5t25.5 18q29 82 -73 82q-10 -1 -33.5 10.5t-44.5 1.5q-9 -4 -11.5 1.5t-3 15.5t-2.5 12q7 98 39 141q3 4 8 14t10 17t9 10q5 2 19 2.5t16 1.5q45 12 100 -20q-1 -14 -5 -25.5t-7.5 -17.5 t-14 -20t-16.5 -23q7 -12 33 -27q5 -3 19 -3.5t18 -2.5q78 -47 73 -131q13 -23 17.5 -38t-7 -45t-46.5 -64q-7 -7 -20 -21t-19.5 -20t-18.5 -15t-22 -11.5t-24 -2.5t-30 6q-9 3 -19 -3t-18.5 -14t-11.5 -9q-59 -7 -116.5 0t-92.5 26q9 35 -1.5 78t-6.5 70z" />
<glyph unicode="&#xb9;" horiz-adv-x="681" d="M203 1327q48 42 101.5 112t105.5 115q8 -4 26.5 -13t24.5 -12t18 -10t17 -12.5t11.5 -14t10.5 -19.5q9 -24 -9.5 -84t-16.5 -78q-14 -24 -18 -63.5t13 -80.5q-13 1 -20 -11.5t-12 -14.5q5 1 9.5 -12t1 -27t-16.5 -15q12 -18 6.5 -32.5t-17 -33.5t-10.5 -26 q11 -62 -5 -170.5t-67 -132.5q-12 -6 -24.5 -6.5t-22 1t-25 5.5t-24.5 6q-16 55 -16 117.5t9 106.5t22.5 104.5t17.5 91.5q-1 -1 7.5 15.5t16.5 33.5t5 17q0 4 3.5 25t2.5 30q-18 18 -39.5 2t-55.5 -4q-7 15 -11.5 45.5t-18.5 44.5z" />
<glyph unicode="&#xba;" horiz-adv-x="747" d="M30.5 1105q0.5 31 12.5 50q5 14 -12 14q5 12 30 62.5t35.5 81t9.5 55.5q11 3 29.5 10.5t26.5 10.5q33 71 98.5 106t142.5 32t154 -38q8 -8 13.5 -15.5t8 -11.5t6.5 -14t7 -16q12 -2 22 4t21 4q1 -2 13 -34.5t26 -55t31 -31.5q-5 -33 12 -86q-7 -22 -7 -74.5t-6 -91.5 t-28 -47q-6 -41 -23.5 -73t-36.5 -50.5t-42 -46.5t-37 -57q-13 -3 -80 -40t-101 -38q-9 -1 -41.5 11t-54.5 3q-71 33 -128.5 92t-94.5 127q1 32 -3 79t-3.5 78zM185.5 1088q-8.5 -79 26 -142.5t95.5 -83.5q9 -4 32.5 8t35.5 21l38 20q38 20 52 35q40 45 64.5 118t16 148.5 t-60.5 110.5q13 24 3 44.5t-31 27.5q-16 -2 -58.5 -23t-66.5 -26q4 -29 -12.5 -54t-38.5 -30q0 -26 -15 -35l-5 -2.5l-4 -2t-3 -1t-4 1t-4 4.5q-52 -60 -60.5 -139z" />
<glyph unicode="&#xbb;" d="M35 18q-4 26 14.5 53.5t39.5 52.5t22 42q58 52 154 180t114 150q-1 44 -23 81t-61 80q-12 54 -45.5 115.5t-67.5 109t-68 109t-48 115.5q30 7 50.5 2.5t41.5 -25.5q53 21 103.5 -19.5t70.5 -105.5q87 -79 123 -221q32 -34 42.5 -46.5t31 -41t29 -56t11.5 -61.5 q4 -3 8 -8.5t6.5 -7t8 -2t14.5 3.5q9 -26 -8.5 -65t-13.5 -60q-83 -46 -92 -117q-8 -8 -31 -8q-4 -33 -21.5 -56t-41.5 -46.5t-36 -50.5q-18 -6 -35.5 -24.5t-30 -37.5t-31.5 -35.5t-40 -19.5q0 -13 8 -16q-17 -2 -44 -18t-48 -19q-13 8 -30 27t-34.5 31.5t-41.5 14.5z M416 1151q36 -3 39 31q62 -13 110 -43.5t81 -72t60.5 -83.5t64.5 -88t77 -76q-10 -6 -11.5 -8.5t3 -4t9.5 -4.5t7.5 -9.5t-2.5 -18.5q19 -13 32 -42t20 -56.5t23 -52.5t40 -33q-1 -19 17 -53.5t34.5 -62t12.5 -56t-42 -43.5q3 -13 -2.5 -25.5t-5.5 -19.5q-15 -2 -27 -8 t-21.5 -17.5t-14.5 -19t-14 -24.5t-13 -23q-14 14 -39 -6t-45 -53.5t-21 -55.5q-29 6 -48 -13t-27 -45.5t-25.5 -49.5t-42.5 -23v-37q-14 -3 -25 -7t-21 -6t-30 -3q4 15 -5.5 25t-10.5 13q-12 2 -21 -9t-24 -7q-28 37 -29.5 95t29.5 104q4 6 22 11t23 11q8 8 50.5 67.5 t72.5 78.5q27 18 37.5 36t-0.5 25q-10 4 10.5 29.5t46.5 47.5t27 17q2 1 -4 10t-8 20.5t16 25.5q-15 54 -42.5 102t-59.5 85t-68 72.5t-70.5 72t-64 76t-51 92t-29.5 112.5z" />
<glyph unicode="&#xbc;" horiz-adv-x="1708" d="M160 1331q48 41 103 110t110 113q6 -3 20.5 -9.5t19 -8.5t16 -8t15.5 -8.5t11.5 -8.5t11.5 -10.5t8.5 -11t7.5 -14.5q10 -24 -9 -83.5t-17 -76.5q-15 -23 -19 -62t15 -79q-13 1 -21.5 -12t-11.5 -15q5 1 9.5 -11.5t0.5 -26t-18 -15.5q13 -18 7.5 -32t-17.5 -32t-11 -24 q11 -62 -5 -168.5t-67 -132.5q-12 -6 -26 -6.5t-23.5 2t-25.5 6.5t-25 6q-16 54 -16 115t8.5 104t23 103.5t19.5 90.5l10 22q24 42 19 42q0 4 3.5 24.5t2.5 28.5q-18 18 -40.5 3t-55.5 -5q-7 14 -12.5 45t-20.5 45zM238 25q39 46 69.5 126.5t71.5 124.5q1 3 8 22t8.5 23.5 t8 21.5t9.5 22.5t10 19t12 19.5t13.5 16t16 15.5t18 11.5t21.5 10q41 101 83.5 166.5t108.5 111.5q3 26 11 47t25 42.5t25.5 30.5t35 32.5t30.5 27.5q16 50 56.5 92.5t83.5 67.5q-4 13 6 27q1 3 6.5 17t8 19.5t8.5 15t13.5 14.5t16.5 8q26 29 91.5 119t109.5 132 q14 -9 31 -15t26.5 -11t13.5 -15q11 -19 0.5 -36.5t-20.5 -26t2 -23.5q-78 -54 -80 -133q-2 0 -9.5 -0.5t-10 -1t-8.5 -2.5t-9 -5.5t-6 -9t-4 -13.5q-16 5 -26.5 -7t-15 -30t-15.5 -33.5t-29 -15.5q-8 -34 -33 -68t-49 -56.5t-44.5 -55t-21.5 -66.5q-14 3 -29.5 -24 t-8.5 -44q-1 -6 -16 -6.5t-17 -5.5q1 -9 -4 -22t-2 -25q-77 -64 -168 -232q-18 2 -30 -15t-24 -19q-16 -56 -64.5 -133t-62.5 -142q2 -6 -4 -18.5t0 -18.5q-1 -6 -20 -6q-14 -34 -23 -54t-27 -50t-35 -46t-44 -27t-57 -9q7 22 0.5 36t-22 40.5t-19.5 42.5zM1034 457 q36 -65 80 -101t107 -32q-3 -24 12 -33q24 12 46 11t36.5 -16.5t21 -35t-1 -45t-28.5 -47.5q1 -1 4.5 -1t5.5 -1t2 -4q-13 -6 -20.5 -26.5t-9.5 -44t-3 -54.5v-11q13 -1 26 -11.5t20 -19t20 -11t26 11.5q12 -31 35 -45q20 34 60 45q14 42 44 178t62 211q21 0 27 12 q-11 13 -12.5 33t3 40t8.5 48.5t1 50.5q11 0 20 6q1 50 27 118t33 105q-99 51 -160 58q-41 -173 -41 -293q-13 3 -23.5 -14.5t-17 -41t-20 -47t-31.5 -30.5q-23 -8 -94 19t-68 48q12 6 15 43t-9 45q13 25 41 63t40.5 69t8.5 75q-21 10 -28 14t-10 6.5t-9 9.5t-14 15 q-10 -20 -26 -11q-3 4 -1 5q-22 1 -38 -16t-23.5 -40t-21 -48.5t-30.5 -36.5q2 -26 -5.5 -48.5t-20.5 -15.5q-1 -9 -3.5 -19t-5 -18.5t-8 -21.5t-8.5 -20t-10.5 -21.5t-10 -20t-11 -21t-9.5 -17.5z" />
<glyph unicode="&#xbd;" horiz-adv-x="1708" d="M160 1331q48 41 103 110t110 113q6 -3 20.5 -9.5t19 -8.5t16 -8t15.5 -8.5t11.5 -8.5t11.5 -10.5t8.5 -11t7.5 -14.5q10 -24 -9 -83.5t-17 -76.5q-15 -23 -19 -62t15 -79q-13 1 -21.5 -12t-11.5 -15q5 1 9.5 -11.5t0.5 -26t-18 -15.5q13 -18 7.5 -32t-17.5 -32t-11 -24 q11 -62 -5 -168.5t-67 -132.5q-12 -6 -26 -6.5t-23.5 2t-25.5 6.5t-25 6q-16 54 -16 115t8.5 104t23 103.5t19.5 90.5l10 22q24 42 19 42q0 4 3.5 24.5t2.5 28.5q-18 18 -40.5 3t-55.5 -5q-7 14 -12.5 45t-20.5 45zM238 25q39 46 69.5 126.5t71.5 124.5q1 3 8 22t8.5 23.5 t8 21.5t9.5 22.5t10 19t12 19.5t13.5 16t16 15.5t18 11.5t21.5 10q41 101 83.5 166.5t108.5 111.5q3 26 11 47t25 42.5t25.5 30.5t35 32.5t30.5 27.5q16 50 56.5 92.5t83.5 67.5q-4 13 6 27q1 3 6.5 17t8 19.5t8.5 15t13.5 14.5t16.5 8q26 29 91.5 119t109.5 132 q14 -9 31 -15t26.5 -11t13.5 -15q11 -19 0.5 -36.5t-20.5 -26t2 -23.5q-78 -54 -80 -133q-2 0 -9.5 -0.5t-10 -1t-8.5 -2.5t-9 -5.5t-6 -9t-4 -13.5q-16 5 -26.5 -7t-15 -30t-15.5 -33.5t-29 -15.5q-8 -34 -33 -68t-49 -56.5t-44.5 -55t-21.5 -66.5q-14 3 -29.5 -24 t-8.5 -44q-1 -6 -16 -6.5t-17 -5.5q1 -9 -4 -22t-2 -25q-77 -64 -168 -232q-18 2 -30 -15t-24 -19q-16 -56 -64.5 -133t-62.5 -142q2 -6 -4 -18.5t0 -18.5q-1 -6 -20 -6q-14 -34 -23 -54t-27 -50t-35 -46t-44 -27t-57 -9q7 22 0.5 36t-22 40.5t-19.5 42.5zM987 160 q13 0 41 12t35 8q35 34 98 88.5t95.5 86.5t75 83t71.5 110.5t51 135.5q0 3 -30 28t-21 40q-15 -15 -72 -37q-2 -2 -14.5 -18t-22.5 -23q-6 -4 -23 -6.5t-22 -5.5q-5 -4 -9 -17.5t-9 -17.5q-8 -5 -28 -11.5t-28.5 -15.5t-5.5 -27q-28 -3 -40 -1.5t-23 -0.5q5 12 -5.5 15.5 t-27.5 1.5q4 17 4 29.5t-2 20t-6.5 23t-7.5 29.5q29 46 68 78.5t89 52t94 30.5t107 21q36 -20 60.5 -37t50.5 -42t39.5 -56.5t13.5 -68.5q-1 -24 -13.5 -61.5t-13.5 -59.5q-33 -11 -30 -72q-20 -21 -36 -58.5t-34.5 -67t-50.5 -42.5q4 -8 0 -23.5t0 -25.5q-6 -1 -19.5 4.5 t-15.5 5.5q-3 -18 -47 -53t-63 -37q28 -25 70.5 -26.5t87 8t90 14t92.5 -16.5t83 -75q-19 -78 -46 -90.5t-99 4.5q-31 5 -75.5 5t-98.5 -2.5t-76 -2.5q-29 1 -73 6.5t-73.5 4.5t-60.5 -13q-52 29 -77 66t-17 100z" />
<glyph unicode="&#xbe;" horiz-adv-x="1708" d="M92 1473q18 2 79 12t99.5 14.5t94 4t96.5 -12.5q16 7 31 7.5t29 -6t25.5 -15t24 -22.5t21 -25t20 -27t17.5 -23q4 -21 -13 -35.5t-10 -29.5q-55 -20 -94 -90q-9 2 -18.5 -1t-20 -12.5t-16 -15t-17.5 -20.5t-14 -17q43 -13 73 -35.5t43 -43.5t32 -49.5t38 -45.5 q-1 -41 -32 -83t-37 -66q-15 7 -23.5 2t-1.5 -23q-29 -2 -57 -13t-35 -32q-5 -1 -7 2t-2.5 7t-2.5 7.5t-6 4.5q-4 -2 -20 -12t-26 -15t-24.5 -10.5t-25.5 -4.5t-19 9q-18 -21 -66 -17.5t-63 29.5q-9 1 -14 -4t-3 -14q-18 32 -41 45q1 9 0 20t-0.5 22.5t1.5 22.5t4.5 19 t9 12.5t16.5 3t25 -9.5q4 1 5 10.5t5 9.5q38 -34 93 -29t106 28.5t88 56.5q1 9 -1.5 21t-6 20t-9 20t-6.5 14q-14 1 -41 14t-51.5 23t-62.5 7t-76 -29l-5 10q-14 28 -22 19q-1 -1 -2 -3q-4 35 -3 56.5t11 58.5q10 6 35 1.5t33 2.5q0 -3 17 1t37 13t26 17q10 9 77 50.5 t83 70.5q-8 7 -37.5 17.5t-69 18.5t-84 -1t-72.5 -37q-9 6 -40 0.5t-39 -25.5q-69 21 -58 150zM238 25q39 46 69.5 126.5t71.5 124.5q1 3 8 22t8.5 23.5t8 21.5t9.5 22.5t10 19t12 19.5t13.5 16t16 15.5t18 11.5t21.5 10q41 101 83.5 166.5t108.5 111.5q3 26 11 47t25 42.5 t25.5 30.5t35 32.5t30.5 27.5q16 50 56.5 92.5t83.5 67.5q-4 13 6 27q1 3 6.5 17t8 19.5t8.5 15t13.5 14.5t16.5 8q26 29 91.5 119t109.5 132q14 -9 31 -15t26.5 -11t13.5 -15q11 -19 0.5 -36.5t-20.5 -26t2 -23.5q-78 -54 -80 -133q-2 0 -9.5 -0.5t-10 -1t-8.5 -2.5 t-9 -5.5t-6 -9t-4 -13.5q-16 5 -26.5 -7t-15 -30t-15.5 -33.5t-29 -15.5q-8 -34 -33 -68t-49 -56.5t-44.5 -55t-21.5 -66.5q-14 3 -29.5 -24t-8.5 -44q-1 -6 -16 -6.5t-17 -5.5q1 -9 -4 -22t-2 -25q-77 -64 -168 -232q-18 2 -30 -15t-24 -19q-16 -56 -64.5 -133t-62.5 -142 q2 -6 -4 -18.5t0 -18.5q-1 -6 -20 -6q-14 -34 -23 -54t-27 -50t-35 -46t-44 -27t-57 -9q7 22 0.5 36t-22 40.5t-19.5 42.5zM1034 457q36 -65 80 -101t107 -32q-3 -24 12 -33q24 12 46 11t36.5 -16.5t21 -35t-1 -45t-28.5 -47.5q1 -1 4.5 -1t5.5 -1t2 -4q-13 -6 -20.5 -26.5 t-9.5 -44t-3 -54.5v-11q13 -1 26 -11.5t20 -19t20 -11t26 11.5q12 -31 35 -45q20 34 60 45q14 42 44 178t62 211q21 0 27 12q-11 13 -12.5 33t3 40t8.5 48.5t1 50.5q11 0 20 6q1 50 27 118t33 105q-99 51 -160 58q-41 -173 -41 -293q-13 3 -23.5 -14.5t-17 -41t-20 -47 t-31.5 -30.5q-23 -8 -94 19t-68 48q12 6 15 43t-9 45q13 25 41 63t40.5 69t8.5 75q-21 10 -28 14t-10 6.5t-9 9.5t-14 15q-10 -20 -26 -11q-3 4 -1 5q-22 1 -38 -16t-23.5 -40t-21 -48.5t-30.5 -36.5q2 -26 -5.5 -48.5t-20.5 -15.5q-1 -9 -3.5 -19t-5 -18.5t-8 -21.5 t-8.5 -20t-10.5 -21.5t-10 -20t-11 -21t-9.5 -17.5z" />
<glyph unicode="&#xbf;" horiz-adv-x="1251" d="M127.5 6.5q-2.5 44.5 5.5 92.5t25 94t39 67q5 0 13.5 -3.5t14.5 -2.5q-22 10 4 38q25 27 46 27q13 -1 12 -18q26 30 116 84.5t109 67.5q10 7 43 7.5t45 6.5q17 9 27 21t12 27.5t1.5 29t-3 33.5t-2.5 32q-9 9 -21 15q4 7 2 29t-2 32q2 2 11 5t10 9q31 0 54.5 -11.5 t47.5 -30.5t41 -27q0 -21 16 -52.5t30.5 -55.5t14.5 -51t-26 -46q-9 -31 -33 -53.5t-54 -43.5t-44 -42q-132 -26 -230 -97.5t-130 -191.5q-6 -50 9 -96t32.5 -69.5t56.5 -66t51 -57.5q80 -7 154 23t126 83t83 123.5t32 143.5q-12 12 -41 12q21 6 24.5 33.5t16.5 36.5 q16 -14 39 -21.5t36.5 -9t47.5 -4.5q0 -15 5 -20t15.5 -5t14.5 -2q6 -22 10 -27.5t17 -13.5q-6 -14 -27 -14q5 -6 9 -21t10.5 -24.5t21.5 -9.5q3 -22 -5 -51.5t-1 -65.5q-7 -1 -15.5 -11.5t-19.5 -8.5q9 -24 -6 -52.5t-41 -31.5q-30 -104 -131 -138q1 -3 1 -8v-8.5t2 -6.5 t5 -3q-29 -19 -115 -37.5t-125 -52.5q-10 20 -33.5 23.5t-41.5 -9.5q-1 10 -16 15.5t-17 11.5q-5 -1 -10.5 -12.5t-18.5 -8.5q-13 -2 -13 4q4 7 13 10q-3 11 -11 14.5t-17 2.5t-16.5 4.5t-8.5 19.5q-12 3 -18.5 -6.5t-16.5 -7.5q-1 6 3 14t3 15q-32 8 -72 50.5t-71 51.5 q4 7 5 13.5t-2 11.5t-5.5 8t-10 7t-11 5.5t-12.5 5t-11 4.5q1 19 -21.5 54t-38 68.5t-2.5 56.5q-13 19 -15.5 63.5zM537 967q52 131 110 157q8 3 11.5 -0.5t5.5 -10.5t4 -9q52 27 106 -21q45 -41 49 -95q3 -61 -59 -77q-19 -36 -39.5 -57t-56.5 -25q-10 15 -34 26.5t-48 8.5 q2 16 -15.5 54t-33.5 49z" />
<glyph unicode="&#xc0;" horiz-adv-x="1366" d="M14 111q12 -28 53 -72t46 -64q38 9 63 47t35 79.5t22.5 96t24.5 81.5q-2 -7 14 12q3 3 8 9l9 11q-1 -2 -4.5 1.5t-7 8t-3.5 5.5q-1 7 2.5 12t7.5 7t8 3l5 2q19 31 67 52t115 20q-1 13 14 21.5t17 11.5q79 10 218.5 59.5t176.5 58.5q37 -25 74 -115.5t57 -107.5 q15 -36 39.5 -102t39.5 -104t43 -88t61 -89q-4 13 3.5 16t22 1.5t19.5 -0.5q9 5 2.5 17t5.5 15q-1 -10 5 -14.5t17 -1.5q22 30 23.5 58t-9 46.5t-23 45.5t-13.5 49q-2 47 -42.5 125t-41.5 122q-90 104 -76 177q3 18 19.5 34t33 26.5t27 30t4.5 44.5q-21 -11 -27.5 0t-3.5 39 q-56 7 -69 32q-8 -1 -17 -1.5t-12 -1t-8 -2t-10 -4t-13 -7.5q-38 38 -68 95.5t-47.5 110t-45.5 117t-60 109.5q6 17 -5.5 41.5t-0.5 48.5q-31 19 -45 27t-37.5 19t-38.5 14t-34.5 2t-37.5 -8v-50q-4 1 -9.5 5.5t-12.5 3.5q-27 -66 -51 -90.5t-86 -53.5q-4 -27 8 -63 q-1 0 -12 -5t-19 -3q-5 -15 4.5 -25t10.5 -14q-11 2 -22.5 -5t-23.5 -4q-1 -7 3.5 -17.5t4.5 -18t-12 -13.5q-1 3 -3.5 7t-3.5 5.5t-2.5 4t-2.5 3.5t-3.5 2l-5 2t-5.5 1q-18 -14 -20.5 -36.5t3.5 -51.5q-17 4 -22 -10t-2 -30.5t-4 -23.5q-18 -13 -26 -23.5t-10.5 -28 t11.5 -36.5q-10 2 -14.5 -4.5t-4.5 -9.5t-10 6q9 -22 7.5 -32t-7.5 -21t-6 -15q-7 2 -11.5 10.5t-12.5 10.5q1 -19 0 -23t-8 -5.5t-9 -4.5q13 -11 17 -47q-4 -5 -12.5 -13.5t-11.5 -13t-5.5 -15.5t6.5 -21h-55q2 -12 -3 -17.5t-14 -9t-12 -6.5q5 -29 2.5 -54.5t-8.5 -44.5 t-4.5 -41.5t16.5 -43.5q-22 -3 -44 -39q-16 -27 -4 -26q1 0 3 1q-30 -33 -35 -54.5t5 -64.5h-23q-10 -13 -6.5 -17.5t10 -14.5t4.5 -23q-22 -3 -23.5 -26t-15.5 -31zM371 643q8 -1 17 3t11 5q-5 11 -2 24t9 34.5t6 31.5q19 34 78.5 156.5t103.5 179.5q5 -6 11.5 -4t10.5 4 t9.5 9.5t8 12.5t7 13t6.5 12q4 -3 18.5 13t16.5 24q17 -9 29 -48.5t30 -41.5q2 -37 38 -101.5t71.5 -132t38.5 -112.5q-18 12 -52 0.5t-44 -29.5q-35 9 -95 -1t-105 -24.5t-113.5 -38.5t-80.5 -28q-31 3 -28 39zM424 1858q7 9 32 24t31 31q17 4 37 2q13 -1 8.5 -16.5 t10.5 -16.5q9 -1 19.5 9t25.5 7q25 1 41 -3.5t22.5 -10.5t8 -13.5t-0.5 -13t-4 -8.5q4 -3 15 -14t18.5 -14.5t16.5 0.5q21 -21 26.5 -39t3 -33t-2.5 -32.5t15.5 -47t51.5 -67.5q0 -15 -8.5 -34.5t-24.5 -19.5q-27 0 -48.5 4t-31 8t-33.5 15q-99 46 -161 122t-68 161z" />
<glyph unicode="&#xc1;" horiz-adv-x="1366" d="M14 111q12 -28 53 -72t46 -64q38 9 63 47t35 79.5t22.5 96t24.5 81.5q-2 -7 14 12q3 3 8 9l9 11q-1 -2 -4.5 1.5t-7 8t-3.5 5.5q-1 7 2.5 12t7.5 7t8 3l5 2q19 31 67 52t115 20q-1 13 14 21.5t17 11.5q79 10 218.5 59.5t176.5 58.5q37 -25 74 -115.5t57 -107.5 q15 -36 39.5 -102t39.5 -104t43 -88t61 -89q-4 13 3.5 16t22 1.5t19.5 -0.5q9 5 2.5 17t5.5 15q-1 -10 5 -14.5t17 -1.5q22 30 23.5 58t-9 46.5t-23 45.5t-13.5 49q-2 47 -42.5 125t-41.5 122q-90 104 -76 177q3 18 19.5 34t33 26.5t27 30t4.5 44.5q-21 -11 -27.5 0t-3.5 39 q-56 7 -69 32q-8 -1 -17 -1.5t-12 -1t-8 -2t-10 -4t-13 -7.5q-38 38 -68 95.5t-47.5 110t-45.5 117t-60 109.5q6 17 -5.5 41.5t-0.5 48.5q-31 19 -45 27t-37.5 19t-38.5 14t-34.5 2t-37.5 -8v-50q-4 1 -9.5 5.5t-12.5 3.5q-27 -66 -51 -90.5t-86 -53.5q-4 -27 8 -63 q-1 0 -12 -5t-19 -3q-5 -15 4.5 -25t10.5 -14q-11 2 -22.5 -5t-23.5 -4q-1 -7 3.5 -17.5t4.5 -18t-12 -13.5q-1 3 -3.5 7t-3.5 5.5t-2.5 4t-2.5 3.5t-3.5 2l-5 2t-5.5 1q-18 -14 -20.5 -36.5t3.5 -51.5q-17 4 -22 -10t-2 -30.5t-4 -23.5q-18 -13 -26 -23.5t-10.5 -28 t11.5 -36.5q-10 2 -14.5 -4.5t-4.5 -9.5t-10 6q9 -22 7.5 -32t-7.5 -21t-6 -15q-7 2 -11.5 10.5t-12.5 10.5q1 -19 0 -23t-8 -5.5t-9 -4.5q13 -11 17 -47q-4 -5 -12.5 -13.5t-11.5 -13t-5.5 -15.5t6.5 -21h-55q2 -12 -3 -17.5t-14 -9t-12 -6.5q5 -29 2.5 -54.5t-8.5 -44.5 t-4.5 -41.5t16.5 -43.5q-22 -3 -44 -39q-16 -27 -4 -26q1 0 3 1q-30 -33 -35 -54.5t5 -64.5h-23q-10 -13 -6.5 -17.5t10 -14.5t4.5 -23q-22 -3 -23.5 -26t-15.5 -31zM371 643q8 -1 17 3t11 5q-5 11 -2 24t9 34.5t6 31.5q19 34 78.5 156.5t103.5 179.5q5 -6 11.5 -4t10.5 4 t9.5 9.5t8 12.5t7 13t6.5 12q4 -3 18.5 13t16.5 24q17 -9 29 -48.5t30 -41.5q2 -37 38 -101.5t71.5 -132t38.5 -112.5q-18 12 -52 0.5t-44 -29.5q-35 9 -95 -1t-105 -24.5t-113.5 -38.5t-80.5 -28q-31 3 -28 39zM573 1569q-2 16 1.5 40t3.5 25q36 35 49.5 60t10 39.5t-9 26 t-2 26.5t24.5 35q10 -4 29 15.5t37 6.5q-4 7 24 35h25h20q8 -20 19 -20q5 0 9.5 5t6.5 9.5t4 3.5q26 -4 39 -8q7 -2 29.5 4.5t28.5 5.5q2 -3 2 -22.5t6 -24.5q-6 -61 -39.5 -115t-89.5 -92q-3 -3 -11.5 -2.5t-17 -3.5t-12.5 -19q-5 -11 -13 -16t-24.5 -8t-24.5 -6 q-3 -1 -16 -5.5t-16.5 -5.5t-14.5 -4t-18.5 -3h-20t-26.5 1q-11 1 -13 17z" />
<glyph unicode="&#xc2;" horiz-adv-x="1366" d="M14 111q14 8 15.5 31t23.5 26q2 13 -4.5 23t-10 14.5t6.5 17.5h23q-10 43 -5 64.5t35 54.5q-8 -3 -7 4q1 19 26 44q14 14 26 16q-15 21 -16.5 43.5t4.5 41.5t8.5 44.5t-2.5 54.5q3 3 12 6.5t14 9t3 17.5h55q-9 10 -6.5 21t5.5 15.5t11.5 13t12.5 13.5q-4 36 -17 47 q2 3 9 4.5t8 5.5t0 23q8 -2 12.5 -10.5t11.5 -10.5q0 4 6 15t7.5 21t-7.5 32q10 -9 10 -6t4.5 9.5t14.5 4.5q-14 19 -11.5 36.5t10.5 28t26 23.5q7 7 4 23.5t2 30.5t22 10q-6 29 -3.5 51.5t20.5 36.5q4 -1 7 -1.5t4.5 -1.5t3.5 -3.5t3 -4t4 -6.5t4 -8q12 6 12 13.5t-4.5 18 t-3.5 17.5q12 -3 23.5 4t22.5 5q-1 4 -10.5 14t-4.5 25q8 -2 19 3t12 5q-12 36 -8 63q62 29 86 53.5t51 90.5q7 1 12.5 -3.5t9.5 -5.5v50q18 7 37.5 8t34.5 -2t38.5 -14t37.5 -19t45 -27q-11 -24 0.5 -48.5t5.5 -41.5q32 -45 60 -109.5t45.5 -117t47.5 -110t68 -95.5 q8 5 13 7.5t10 4t8 2t12 1t17 1.5q13 -25 69 -32q-3 -28 3.5 -39t27.5 0q6 -25 -4.5 -44.5t-27 -30t-33 -26.5t-19.5 -34q-14 -73 76 -177q1 -44 41.5 -122t42.5 -125q1 -22 13.5 -49t23 -45.5t9 -46.5t-23.5 -58q-11 -3 -17 1.5t-5 14.5q-12 -4 -6 -15t-2 -17 q-5 -1 -19.5 0.5t-22 -1.5t-3.5 -16q-33 39 -61 89t-43 88t-39.5 104t-39.5 102q-20 17 -57 107.5t-74 115.5q-37 -9 -176.5 -58.5t-218.5 -59.5q-2 -3 -17 -11.5t-14 -21.5q-67 1 -115 -20t-67 -52l-5 -2q-4 -1 -8 -3t-7.5 -7t-2.5 -12q0 -1 3.5 -5.5t7 -8t4.5 -1.5l-9 -11 q-20 -21 -22 -21q-12 -27 -24.5 -81.5t-22.5 -96t-35 -79.5t-63 -47q-5 20 -46 64t-53 72zM371 643q-3 -36 28 -39q12 4 80.5 28t113.5 38.5t105 24.5t95 1q10 18 44 29.5t52 -0.5q-3 45 -38.5 112.5t-71.5 132t-38 101.5q-18 2 -30 41.5t-29 48.5q-2 -8 -16.5 -24 t-18.5 -13q-2 -4 -6.5 -12t-7 -13t-8 -12.5t-9.5 -9.5t-10.5 -4t-11.5 4q-44 -57 -103.5 -179.5t-78.5 -156.5q0 -10 -6 -31.5t-9 -34.5t2 -24q-2 -1 -11 -5t-17 -3zM372.5 1578.5q2.5 8.5 9.5 15t13 12t5 10.5t-13 8q-1 6 16 24.5t17 22.5q4 0 17 -4t20.5 -5.5t11.5 1.5 q-2 8 -9 23t-11 16q1 4 11.5 21t20.5 40t13 45q6 2 14 -10t16 -14q-1 8 11 47.5t12 44.5q16 11 41 8t46 -12t59.5 -8.5t80.5 18.5q10 4 21 -5.5t22.5 -26.5t16.5 -21q16 -34 42 -59t71.5 -52.5t51.5 -31.5q5 -6 7 -47.5t16 -43.5q-1 -11 -22.5 -21.5t-24.5 -17.5 q-40 12 -87.5 52t-72.5 47q-7 28 -18 43.5t-30.5 20.5t-34 5t-45.5 -3.5t-46 -4.5q-35 -35 -48.5 -71t-17.5 -39q-18 -4 -30.5 -14t-18.5 -20t-16 -30q-40 16 -49 -20q-38 10 -59.5 20.5t-26.5 19t-2.5 17z" />
<glyph unicode="&#xc3;" horiz-adv-x="1366" d="M14 111q12 -28 53 -72t46 -64q38 9 63 47t35 79.5t22.5 96t24.5 81.5q-2 -7 14 12q3 3 8 9l9 11q-1 -2 -4.5 1.5t-7 8t-3.5 5.5q-1 7 2.5 12t7.5 7t8 3l5 2q19 31 67 52t115 20q-1 13 14 21.5t17 11.5q79 10 218.5 59.5t176.5 58.5q37 -25 74 -115.5t57 -107.5 q15 -36 39.5 -102t39.5 -104t43 -88t61 -89q-4 13 3.5 16t22 1.5t19.5 -0.5q9 5 2.5 17t5.5 15q-1 -10 5 -14.5t17 -1.5q22 30 23.5 58t-9 46.5t-23 45.5t-13.5 49q-2 47 -42.5 125t-41.5 122q-90 104 -76 177q3 18 19.5 34t33 26.5t27 30t4.5 44.5q-21 -11 -27.5 0t-3.5 39 q-56 7 -69 32q-8 -1 -17 -1.5t-12 -1t-8 -2t-10 -4t-13 -7.5q-38 38 -68 95.5t-47.5 110t-45.5 117t-60 109.5q6 17 -5.5 41.5t-0.5 48.5q-31 19 -45 27t-37.5 19t-38.5 14t-34.5 2t-37.5 -8v-50q-4 1 -9.5 5.5t-12.5 3.5q-27 -66 -51 -90.5t-86 -53.5q-4 -27 8 -63 q-1 0 -12 -5t-19 -3q-5 -15 4.5 -25t10.5 -14q-11 2 -22.5 -5t-23.5 -4q-1 -7 3.5 -17.5t4.5 -18t-12 -13.5q-1 3 -3.5 7t-3.5 5.5t-2.5 4t-2.5 3.5t-3.5 2l-5 2t-5.5 1q-18 -14 -20.5 -36.5t3.5 -51.5q-17 4 -22 -10t-2 -30.5t-4 -23.5q-18 -13 -26 -23.5t-10.5 -28 t11.5 -36.5q-10 2 -14.5 -4.5t-4.5 -9.5t-10 6q9 -22 7.5 -32t-7.5 -21t-6 -15q-7 2 -11.5 10.5t-12.5 10.5q1 -19 0 -23t-8 -5.5t-9 -4.5q13 -11 17 -47q-4 -5 -12.5 -13.5t-11.5 -13t-5.5 -15.5t6.5 -21h-55q2 -12 -3 -17.5t-14 -9t-12 -6.5q5 -29 2.5 -54.5t-8.5 -44.5 t-4.5 -41.5t16.5 -43.5q-22 -3 -44 -39q-16 -27 -4 -26q1 0 3 1q-30 -33 -35 -54.5t5 -64.5h-23q-10 -13 -6.5 -17.5t10 -14.5t4.5 -23q-22 -3 -23.5 -26t-15.5 -31zM338.5 1632.5q-3.5 20.5 3.5 53.5q3 15 9 27.5t10.5 17.5t9 9t4.5 5q-4 27 23 31l10 -1q0 -1 -2 -1 q17 44 57 4q-2 17 -2 18t-2.5 4.5t-3.5 5.5q6 4 24 10t31 15q1 0 8 -1.5t15 -3.5t19 -5.5t19 -8t15 -10t7.5 -12t-3.5 -14.5q11 -4 18 11t19 11q1 -2 18 -10t38.5 -21t33.5 -26t36 -12.5t42 -14.5q6 6 27 11.5t42 15.5t31 31q0 2 2.5 13t3.5 19.5t1 22.5t-3 28q16 20 33 21 t29 -9t27 -22t24 -14q1 -4 -13 -22q-5 -7 0 -7q11 -19 12.5 -36.5t-7.5 -35.5t-12.5 -22.5t-14.5 -19.5q8 -11 -3.5 -29.5t-27.5 -34.5t-16 -18q-3 -1 -16.5 -2.5t-25.5 -5t-16 -9.5q-8 -5 -15.5 -7.5t-21 -4.5t-26.5 -6q3 6 0.5 14.5t-2.5 11.5q-13 -25 -26 -24t-22 11 t-22 -3q-30 -5 -51.5 3t-36 23.5t-30 31.5t-43.5 28.5t-66 13.5q-8 -8 -15.5 -13t-12.5 -7t-14 -5.5t-17 -6.5q0 -6 -19 -27t-22 -31q-4 -3 -14 -4.5t-22.5 1.5t-22 13.5t-13 31zM371 643q8 -1 17 3t11 5q-5 11 -2 24t9 34.5t6 31.5q19 34 78.5 156.5t103.5 179.5 q5 -6 11.5 -4t10.5 4t9.5 9.5t8 12.5t7 13t6.5 12q4 -3 18.5 13t16.5 24q17 -9 29 -48.5t30 -41.5q2 -37 38 -101.5t71.5 -132t38.5 -112.5q-18 12 -52 0.5t-44 -29.5q-35 9 -95 -1t-105 -24.5t-113.5 -38.5t-80.5 -28q-31 3 -28 39z" />
<glyph unicode="&#xc4;" horiz-adv-x="1366" d="M14 111q14 8 15.5 31t23.5 26q2 13 -4.5 23t-10 14.5t6.5 17.5h23q-10 43 -5 64.5t35 54.5q-8 -3 -7 4q1 19 26 44q14 14 26 16q-15 21 -16.5 43.5t4.5 41.5t8.5 44.5t-2.5 54.5q3 3 12 6.5t14 9t3 17.5h55q-9 10 -6.5 21t5.5 15.5t11.5 13t12.5 13.5q-4 36 -17 47 q2 3 9 4.5t8 5.5t0 23q8 -2 12.5 -10.5t11.5 -10.5q0 4 6 15t7.5 21t-7.5 32q10 -9 10 -6t4.5 9.5t14.5 4.5q-14 19 -11.5 36.5t10.5 28t26 23.5q7 7 4 23.5t2 30.5t22 10q-6 29 -3.5 51.5t20.5 36.5q4 -1 7 -1.5t4.5 -1.5t3.5 -3.5t3 -4t4 -6.5t4 -8q12 6 12 13.5t-4.5 18 t-3.5 17.5q12 -3 23.5 4t22.5 5q-1 4 -10.5 14t-4.5 25q8 -2 19 3t12 5q-12 36 -8 63q62 29 86 53.5t51 90.5q7 1 12.5 -3.5t9.5 -5.5v50q18 7 37.5 8t34.5 -2t38.5 -14t37.5 -19t45 -27q-11 -24 0.5 -48.5t5.5 -41.5q32 -45 60 -109.5t45.5 -117t47.5 -110t68 -95.5 q8 5 13 7.5t10 4t8 2t12 1t17 1.5q13 -25 69 -32q-3 -28 3.5 -39t27.5 0q6 -25 -4.5 -44.5t-27 -30t-33 -26.5t-19.5 -34q-14 -73 76 -177q1 -44 41.5 -122t42.5 -125q1 -22 13.5 -49t23 -45.5t9 -46.5t-23.5 -58q-11 -3 -17 1.5t-5 14.5q-12 -4 -6 -15t-2 -17 q-5 -1 -19.5 0.5t-22 -1.5t-3.5 -16q-33 39 -61 89t-43 88t-39.5 104t-39.5 102q-20 17 -57 107.5t-74 115.5q-37 -9 -176.5 -58.5t-218.5 -59.5q-2 -3 -17 -11.5t-14 -21.5q-67 1 -115 -20t-67 -52l-5 -2q-4 -1 -8 -3t-7.5 -7t-2.5 -12q0 -1 3.5 -5.5t7 -8t4.5 -1.5l-9 -11 q-20 -21 -22 -21q-12 -27 -24.5 -81.5t-22.5 -96t-35 -79.5t-63 -47q-5 20 -46 64t-53 72zM371 643q-3 -36 28 -39q12 4 80.5 28t113.5 38.5t105 24.5t95 1q10 18 44 29.5t52 -0.5q-3 45 -38.5 112.5t-71.5 132t-38 101.5q-18 2 -30 41.5t-29 48.5q-2 -8 -16.5 -24 t-18.5 -13q-2 -4 -6.5 -12t-7 -13t-8 -12.5t-9.5 -9.5t-10.5 -4t-11.5 4q-44 -57 -103.5 -179.5t-78.5 -156.5q0 -10 -6 -31.5t-9 -34.5t2 -24q-2 -1 -11 -5t-17 -3zM373 1788q24 24 39 78q23 -17 60 -11.5t48 -7.5q5 0 11 6.5t16 4.5q-2 -28 47 -70q15 0 18 12q2 0 8.5 -8 t18.5 -4q-14 -23 -32 -72t-39.5 -82.5t-57.5 -48.5q-31 11 -68 51t-63 52q18 82 -6 100zM750 1688q10 12 13 33t3 37t11.5 28.5t37.5 13.5q10 13 9.5 34.5t2.5 37.5q21 3 21 -12q52 12 95 -16.5t52.5 -75t-18.5 -99.5h-19q-1 -19 -10.5 -36t-16 -23.5t-27 -22t-23.5 -18.5 q-1 1 -8 7.5t-9 8t-8.5 6.5t-10 7t-10 5t-13 4.5t-13.5 2.5q0 14 -5 22.5t-7 16.5q-20 0 -21 -4q-7 6 -7.5 20t-18.5 23z" />
<glyph unicode="&#xc5;" horiz-adv-x="1366" d="M14 111q14 8 15.5 31t23.5 26q2 13 -4.5 23t-10 14.5t6.5 17.5h23q-10 43 -5 64.5t35 54.5q-8 -3 -7 4q1 19 26 44q14 14 26 16q-15 21 -16.5 43.5t4.5 41.5t8.5 44.5t-2.5 54.5q3 3 12 6.5t14 9t3 17.5h55q-9 10 -6.5 21t5.5 15.5t11.5 13t12.5 13.5q-4 36 -17 47 q2 3 9 4.5t8 5.5t0 23q8 -2 12.5 -10.5t11.5 -10.5q0 4 6 15t7.5 21t-7.5 32q10 -9 10 -6t4.5 9.5t14.5 4.5q-14 19 -11.5 36.5t10.5 28t26 23.5q7 7 4 23.5t2 30.5t22 10q-6 29 -3.5 51.5t20.5 36.5q4 -1 7 -1.5t4.5 -1.5t3.5 -3.5t3 -4t4 -6.5t4 -8q12 6 12 13.5t-4.5 18 t-3.5 17.5q12 -3 23.5 4t22.5 5q-1 4 -10.5 14t-4.5 25q8 -2 19 3t12 5q-12 36 -8 63q62 29 86 53.5t51 90.5q7 1 12.5 -3.5t9.5 -5.5v50q18 7 37.5 8t34.5 -2t38.5 -14t37.5 -19t45 -27q-11 -24 0.5 -48.5t5.5 -41.5q32 -45 60 -109.5t45.5 -117t47.5 -110t68 -95.5 q8 5 13 7.5t10 4t8 2t12 1t17 1.5q13 -25 69 -32q-3 -28 3.5 -39t27.5 0q6 -25 -4.5 -44.5t-27 -30t-33 -26.5t-19.5 -34q-14 -73 76 -177q1 -44 41.5 -122t42.5 -125q1 -22 13.5 -49t23 -45.5t9 -46.5t-23.5 -58q-11 -3 -17 1.5t-5 14.5q-12 -4 -6 -15t-2 -17 q-5 -1 -19.5 0.5t-22 -1.5t-3.5 -16q-33 39 -61 89t-43 88t-39.5 104t-39.5 102q-20 17 -57 107.5t-74 115.5q-37 -9 -176.5 -58.5t-218.5 -59.5q-2 -3 -17 -11.5t-14 -21.5q-67 1 -115 -20t-67 -52l-5 -2q-4 -1 -8 -3t-7.5 -7t-2.5 -12q0 -1 3.5 -5.5t7 -8t4.5 -1.5l-9 -11 q-20 -21 -22 -21q-12 -27 -24.5 -81.5t-22.5 -96t-35 -79.5t-63 -47q-5 20 -46 64t-53 72zM371 643q-3 -36 28 -39q12 4 80.5 28t113.5 38.5t105 24.5t95 1q10 18 44 29.5t52 -0.5q-3 45 -38.5 112.5t-71.5 132t-38 101.5q-18 2 -30 41.5t-29 48.5q-2 -8 -16.5 -24 t-18.5 -13q-2 -4 -6.5 -12t-7 -13t-8 -12.5t-9.5 -9.5t-10.5 -4t-11.5 4q-44 -57 -103.5 -179.5t-78.5 -156.5q0 -10 -6 -31.5t-9 -34.5t2 -24q-2 -1 -11 -5t-17 -3zM463 1679q17 4 16 7.5t-9 12.5t-7 13q7 4 2.5 14.5t-1 24.5t22.5 18q-2 1 -4 2.5t-5 7.5t-1 13 q2 4 19 18.5t20 30.5q5 3 14 2.5t13 3.5t2 19q29 5 46 22t48 17q7 -13 25.5 -7t21.5 25q12 -7 34 -6t36 -6q2 -3 5 -6t15.5 -8.5t28.5 1.5q11 -3 13 -5t-1 -9t-4 -12q15 6 21.5 5t18.5 -8.5t19 -8.5q-6 -19 7 -36t30 -22q0 -3 2.5 -28t4 -49t-1 -49.5t-11.5 -35.5 q-10 -4 -25 -22t-31 -36t-48.5 -35t-76 -20t-114.5 9q0 -3 -1.5 -6t-10 -7t-25.5 5q1 2 -3.5 5t-13 6t-18 7t-20 11t-16.5 14q2 9 -13 27.5t-18 25.5q-4 10 -2.5 30.5t-3.5 24.5zM588 1688q12 -1 19 -9.5t7 -17.5q52 -13 70 -7.5t37 13t39 2.5q3 10 7.5 17.5t8.5 10t6.5 5.5 t1.5 6q11 0 9 18t4 25q1 6 -7 14.5t-10 18.5q-25 16 -39 16t-27 -5.5t-30 -0.5q0 -14 -14 -18q-45 -1 -66.5 -28t-15.5 -60z" />
<glyph unicode="&#xc6;" horiz-adv-x="2048" d="M-39 123q13 6 24 31t22.5 42t29.5 11q0 19 4 47q6 0 13.5 2.5t12.5 2t11 -6.5q-9 34 13 71t61 29q13 46 47.5 108t42.5 111q9 1 12.5 0.5t9 -3t8.5 -3.5q3 2 -3.5 11.5t-10 18t9.5 14.5t56 -1q-3 49 -19 97q42 17 69.5 53.5t41 79t25 84.5t30.5 80.5t47 58.5 q-3 68 78 129q22 -32 39 -3q17 27 8 58q-2 7 -6 12q27 8 48 31.5t41.5 53.5t37.5 44q-1 4 -4 5.5t-11.5 2.5t-9.5 1q3 6 10 15.5t9.5 14t2.5 14.5t-5 23q13 3 32 11.5t31 14t28 9t23 -3.5q14 22 25 32.5t25.5 10.5t25 -4t34.5 -14.5t44 -16.5q10 -13 14.5 -52t26.5 -50 q1 11 56 14.5t59 9.5q9 -2 24.5 -14t18.5 -14q87 17 221 16t242 8q0 -1 -2 -5t-3.5 -7.5t-1.5 -8.5t1.5 -8t7.5 -5t16 -1q29 20 52.5 28t37.5 7t41.5 -4.5t50.5 -3.5q-5 -5 -5 -7.5t2 -7t3 -7.5q43 5 66.5 -6t28.5 -28t15 -36t27 -25q0 -23 -44 -36q-10 -3 -10 -4 q0 -3 38 -9q-4 -10 -9 -16t-9 -8.5t-12.5 -6.5t-14.5 -8q-99 -12 -265 0.5t-251 -2.5q-22 21 -52 25.5t-57 -1t-59 -7t-59 7.5q-5 -7 -5 -14t2 -10l3 -3q-3 0 -31.5 -5t-49 -1t-30.5 21q-5 -1 -18.5 -9.5t-26.5 -7.5q-9 -35 -6.5 -48.5t12.5 -40.5t12 -50q0 -19 -6 -57 t-8 -59t6 -52q14 -35 43.5 -44t61.5 0t68 12.5t63 -7.5q82 14 104 13.5t111 -15.5q39 18 99.5 12.5t80.5 -2.5q0 -2 2 -3.5t4.5 -2.5t6 -1.5l7 -1t6 -1t4 -1t1.5 -1.5q-1 -2 -3 -7.5t-3 -9t-2 -8.5t0 -8.5t4 -5.5q6 -4 11.5 -3.5t8.5 2.5t8.5 8.5t7.5 8.5q27 27 66 9 q5 -2 5 0v1q0 -2 1 -3t2 -2.5t2 -2.5q-1 0 -1 -1.5t-1 -2.5q-27 -20 -27 -45q0 -23 26 -13q12 5 28 17q8 -16 9 -31t-4.5 -26.5t-14 -21t-22.5 -17t-25.5 -13t-26.5 -10t-23 -6.5t-18 -4q-26 -6 -71 5t-58 12q-71 6 -254.5 -5.5t-259.5 -2.5q-4 -15 14 -72t2 -82 q-7 -6 -15 -3.5t-16 -4.5q-12 -66 1.5 -131t31.5 -122t15 -99q438 -50 790 22q25 -8 37 -25.5t14 -35.5t12 -36.5t31 -27.5q-55 -45 -126.5 -71t-140.5 -35t-161 -7.5t-164 8.5t-174.5 16.5t-169.5 12.5q-18 20 -46.5 28t-43.5 26q-14 17 -25.5 53.5t-16 62t-11 73.5 t-6.5 50q4 14 -3.5 59.5t-2.5 61.5q-38 21 -104.5 22t-129.5 -7.5t-142.5 -4t-139.5 32.5q-4 -2 -8 -11.5t-7.5 -20t-9.5 -20t-13 -10t-18 8.5q-4 -5 -12 -13.5t-10 -11t-6 -8.5t-5.5 -11t-3.5 -12.5t-4 -19.5q4 3 10.5 3t10.5 -5t-4 -18q-42 -70 -58 -68 q-17 -33 -35.5 -54.5t-30 -30.5t-24.5 -34t-24 -67q-1 0 -8 -3t-9 -4t-8 -3.5t-8.5 -4t-7 -4.5t-7 -6t-5.5 -6.5t-4.5 -7.5t-2.5 -9q-78 46 -137 146zM494 586q94 -8 208.5 4.5t180.5 50.5q15 74 14.5 235t3.5 240q-13 0 -14.5 19t-3.5 40.5t-17 24.5q-49 -27 -88.5 -82 t-62.5 -109t-57.5 -116t-71.5 -96q0 -23 -44 -109t-48 -102z" />
<glyph unicode="&#xc7;" horiz-adv-x="1478" d="M98 698q4 25 16.5 63t21 63.5t14 57.5t-4.5 46q8 46 44 113t44 124q31 11 53.5 34.5t36 49.5t28 51.5t39 46.5t59.5 29q0 3 -2 8t-1 10t7 13q22 19 80.5 42.5t80.5 47.5q91 23 183 27t178.5 -12t162 -49.5t137.5 -87.5t101 -124q-17 -42 -71.5 -59t-101 5t-42.5 79 q-75 88 -334 88q-11 -25 -29.5 -32.5t-36 -3.5t-38.5 -3q-63 -19 -112.5 -53.5t-88.5 -87t-64.5 -99t-58.5 -118.5h-22q-9 -50 -19.5 -93.5t-28 -103.5t-24.5 -88q5 -102 28.5 -186.5t66 -151t109.5 -107t153 -47.5q52 16 153 30t133 22q10 3 25.5 9t58 29.5t76.5 52 t66.5 77t42.5 104.5q-8 46 0 80q31 11 56.5 9t36.5 -7t30 -15t36 -14q0 -5 -0.5 -17.5t0 -18.5t1.5 -15t5 -13.5t11 -6.5q-31 -79 -53 -127t-53 -94t-61.5 -71.5t-82.5 -53t-111 -46.5t-151 -43q2 -4 4 -12t3.5 -20t-6 -19t-24.5 -4q22 -20 56 -38t83.5 -38.5t63.5 -27.5 q3 0 8 -1t18 -5.5t23.5 -10.5t20.5 -18t12 -27q31 -5 35 -32.5t-9.5 -52.5t-25.5 -23q3 -12 1 -19t-1 -10.5t4.5 -4.5t17.5 -1q2 -35 -55 -92q-29 -28 -79.5 -45.5t-111 -30t-83.5 -21.5q-21 1 -61.5 6t-63.5 6.5t-66 -3.5q4 16 -5.5 27t-23.5 17.5t-27 22t-14 37.5 q6 36 31.5 46t62 4.5t75.5 -10.5t82 11t73 60q16 25 10 45.5t-23 33t-44.5 26t-53.5 23t-51 24t-37 30.5q5 39 -19.5 64t-21.5 59q-51 6 -91 6.5t-56.5 2.5t-61.5 15.5t-141 47.5q-1 7 11 28t12 25q-62 26 -109.5 87.5t-73.5 139.5t-38.5 156.5t-12.5 152.5z" />
<glyph unicode="&#xc8;" horiz-adv-x="1366" d="M50.5 1352.5q0.5 -17.5 8.5 -43.5q70 -229 104.5 -366.5t39.5 -250.5q0 2 2 -2q14 -23 18 -24q17 -88 16.5 -214t4.5 -242t37 -206q39 -3 114 -23t113 -24q28 -2 81 8t73 8q25 -3 94.5 2t95.5 5q15 0 55.5 -0.5t61 0.5t51 10t53.5 28q32 -16 111 3t106 8q10 12 14.5 24.5 t14.5 24.5q15 4 23 -6.5t20 -8.5q5 12 9.5 20.5t5.5 10t2 5t1 4.5t1.5 9t4.5 19q2 -3 12 2.5t16.5 16.5t0.5 20q-11 43 8 70q-21 1 -42 22.5t-42 22.5q-76 -39 -173.5 -58.5t-180.5 -23.5t-195 -15t-198 -32q-17 18 -84.5 21t-97.5 24q7 20 4 39t-10 33t-5 29t19 28 q-17 -1 -21 12t0 28.5t1 29t-19 14.5q14 54 123 78q58 11 182.5 22t222 30t166.5 60q0 45 5 64.5t24 27.5q-11 23 -26.5 38.5t-36 22t-40.5 8.5t-47.5 -1.5t-47.5 -7.5t-50.5 -11t-48.5 -10q-25 -6 -78 -10t-65 -6q-39 -5 -139.5 -26t-143.5 -19q-6 41 -27 130t-26 114 q-2 13 -2.5 46t-6.5 46q-2 6 -14.5 18t-15.5 19q-1 2 -5 48.5t-24 65.5q18 24 43.5 25t46.5 -17q39 -5 97.5 15t70.5 22q23 5 88 0.5t94 -0.5q15 2 35 8.5t31 11t24.5 5.5t16.5 -8q82 34 166 37q-1 11 13.5 19.5t27.5 10.5q0 -19 8 -30q6 2 18 7t18 6.5t20.5 3.5t25.5 -1 q0 25 17 38.5t39 24.5t28 27l-18 20q-19 21 -19 41q-25 -3 -58 13.5t-57 17.5q-105 -9 -341.5 -52.5t-352.5 -53.5q-115 -10 -244 34q-6 2 -13 3t-15.5 -1.5t-13 -10t-4 -25zM424 1858q7 9 32 24t31 31q17 4 37 2q13 -1 8.5 -16.5t10.5 -16.5q9 -1 19.5 9t25.5 7 q25 1 41 -3.5t22.5 -10.5t8 -13.5t-0.5 -13t-4 -8.5q4 -3 15 -14t18.5 -14.5t16.5 0.5q21 -21 26.5 -39t3 -33t-2.5 -32.5t15.5 -47t51.5 -67.5q0 -15 -8.5 -34.5t-24.5 -19.5q-27 0 -48.5 4t-31 8t-33.5 15q-99 46 -161 122t-68 161z" />
<glyph unicode="&#xc9;" horiz-adv-x="1366" d="M50.5 1352.5q0.5 -17.5 8.5 -43.5q70 -229 104.5 -366.5t39.5 -250.5q0 2 2 -2q14 -23 18 -24q17 -88 16.5 -214t4.5 -242t37 -206q39 -3 114 -23t113 -24q28 -2 81 8t73 8q25 -3 94.5 2t95.5 5q15 0 55.5 -0.5t61 0.5t51 10t53.5 28q32 -16 111 3t106 8q10 12 14.5 24.5 t14.5 24.5q15 4 23 -6.5t20 -8.5q5 12 9.5 20.5t5.5 10t2 5t1 4.5t1.5 9t4.5 19q2 -3 12 2.5t16.5 16.5t0.5 20q-11 43 8 70q-21 1 -42 22.5t-42 22.5q-76 -39 -173.5 -58.5t-180.5 -23.5t-195 -15t-198 -32q-17 18 -84.5 21t-97.5 24q7 20 4 39t-10 33t-5 29t19 28 q-17 -1 -21 12t0 28.5t1 29t-19 14.5q14 54 123 78q58 11 182.5 22t222 30t166.5 60q0 45 5 64.5t24 27.5q-11 23 -26.5 38.5t-36 22t-40.5 8.5t-47.5 -1.5t-47.5 -7.5t-50.5 -11t-48.5 -10q-25 -6 -78 -10t-65 -6q-39 -5 -139.5 -26t-143.5 -19q-6 41 -27 130t-26 114 q-2 13 -2.5 46t-6.5 46q-2 6 -14.5 18t-15.5 19q-1 2 -5 48.5t-24 65.5q18 24 43.5 25t46.5 -17q39 -5 97.5 15t70.5 22q23 5 88 0.5t94 -0.5q15 2 35 8.5t31 11t24.5 5.5t16.5 -8q82 34 166 37q-1 11 13.5 19.5t27.5 10.5q0 -19 8 -30q6 2 18 7t18 6.5t20.5 3.5t25.5 -1 q0 25 17 38.5t39 24.5t28 27l-18 20q-19 21 -19 41q-25 -3 -58 13.5t-57 17.5q-105 -9 -341.5 -52.5t-352.5 -53.5q-115 -10 -244 34q-6 2 -13 3t-15.5 -1.5t-13 -10t-4 -25zM573 1569q-2 16 1.5 40t3.5 25q36 35 49.5 60t10 39.5t-9 26t-2 26.5t24.5 35q10 -4 29 15.5 t37 6.5q-4 7 24 35h25h20q8 -20 19 -20q5 0 9.5 5t6.5 9.5t4 3.5q26 -4 39 -8q7 -2 29.5 4.5t28.5 5.5q2 -3 2 -22.5t6 -24.5q-6 -61 -39.5 -115t-89.5 -92q-3 -3 -11.5 -2.5t-17 -3.5t-12.5 -19q-5 -11 -13 -16t-24.5 -8t-24.5 -6q-3 -1 -16 -5.5t-16.5 -5.5t-14.5 -4 t-18.5 -3h-20t-26.5 1q-11 1 -13 17z" />
<glyph unicode="&#xca;" horiz-adv-x="1366" d="M50.5 1352.5q-0.5 17.5 4 25t13 10t15.5 1.5t13 -3q129 -44 244 -34q116 10 352.5 53.5t341.5 52.5q24 -1 57 -17.5t58 -13.5q0 -15 6.5 -25.5t17 -20t13.5 -15.5q-6 -16 -28 -27t-39 -24.5t-17 -38.5q-11 3 -25.5 1t-20.5 -3.5t-18 -6.5t-18 -7q-8 11 -8 30 q-13 -2 -27.5 -10.5t-13.5 -19.5q-84 -3 -166 -37q-3 9 -16.5 8t-24.5 -5.5t-31 -11t-35 -8.5q-29 -4 -94 0.5t-88 -0.5q-12 -2 -70.5 -22t-97.5 -15q-21 18 -46.5 17t-43.5 -25q15 -14 19.5 -33.5t5.5 -44t4 -36.5q3 -7 15.5 -19t14.5 -18q6 -13 6.5 -46t2.5 -46 q5 -25 26 -114t27 -130q43 -2 143.5 19t139.5 26q12 2 65 6t78 10q18 3 48.5 10t50.5 11t47.5 7.5t47.5 1.5t40.5 -8.5t36 -22t26.5 -38.5q-19 -8 -24 -27.5t-5 -64.5q-69 -41 -166.5 -60t-222 -30t-182.5 -22q-109 -24 -123 -78q16 -1 19 -14.5t-1 -29t0 -28.5t21 -12 q-21 -16 -18.5 -37.5t12 -41t-1.5 -50.5q30 -21 97.5 -24t84.5 -21q86 21 198 32t195 15t180.5 23.5t173.5 58.5q21 -1 42 -22.5t42 -22.5q-19 -27 -8 -70q6 -9 -0.5 -20t-16.5 -16.5t-12 -2.5q-2 -10 -3.5 -17t-2 -9.5t-1 -4t-1.5 -3.5l-2.5 -5t-5 -11t-8.5 -18 q-12 -2 -20 8.5t-23 6.5q-10 -12 -14.5 -24.5t-14.5 -24.5q-27 11 -106 -8t-111 -3q-23 -19 -53.5 -28t-51 -10t-61 -0.5t-55.5 0.5q-26 0 -95.5 -5t-94.5 -2q-20 2 -73 -8t-81 -8q-38 4 -113 24t-114 23q-32 90 -37 206t-4.5 242t-16.5 214q-4 0 -18 24q-2 4 -2 2 q-5 113 -39.5 250.5t-104.5 366.5q-8 26 -8.5 43.5zM372.5 1578.5q2.5 8.5 9.5 15t13 12t5 10.5t-13 8q-1 6 16 24.5t17 22.5q4 0 17 -4t20.5 -5.5t11.5 1.5q-2 8 -9 23t-11 16q1 4 11.5 21t20.5 40t13 45q6 2 14 -10t16 -14q-1 8 11 47.5t12 44.5q16 11 41 8t46 -12 t59.5 -8.5t80.5 18.5q10 4 21 -5.5t22.5 -26.5t16.5 -21q16 -34 42 -59t71.5 -52.5t51.5 -31.5q5 -6 7 -47.5t16 -43.5q-1 -11 -22.5 -21.5t-24.5 -17.5q-40 12 -87.5 52t-72.5 47q-7 28 -18 43.5t-30.5 20.5t-34 5t-45.5 -3.5t-46 -4.5q-35 -35 -48.5 -71t-17.5 -39 q-18 -4 -30.5 -14t-18.5 -20t-16 -30q-40 16 -49 -20q-38 10 -59.5 20.5t-26.5 19t-2.5 17z" />
<glyph unicode="&#xcb;" horiz-adv-x="1366" d="M50.5 1352.5q-0.5 17.5 4 25t13 10t15.5 1.5t13 -3q129 -44 244 -34q116 10 352.5 53.5t341.5 52.5q24 -1 57 -17.5t58 -13.5q0 -15 6.5 -25.5t17 -20t13.5 -15.5q-6 -16 -28 -27t-39 -24.5t-17 -38.5q-11 3 -25.5 1t-20.5 -3.5t-18 -6.5t-18 -7q-8 11 -8 30 q-13 -2 -27.5 -10.5t-13.5 -19.5q-84 -3 -166 -37q-3 9 -16.5 8t-24.5 -5.5t-31 -11t-35 -8.5q-29 -4 -94 0.5t-88 -0.5q-12 -2 -70.5 -22t-97.5 -15q-21 18 -46.5 17t-43.5 -25q15 -14 19.5 -33.5t5.5 -44t4 -36.5q3 -7 15.5 -19t14.5 -18q6 -13 6.5 -46t2.5 -46 q5 -25 26 -114t27 -130q43 -2 143.5 19t139.5 26q12 2 65 6t78 10q18 3 48.5 10t50.5 11t47.5 7.5t47.5 1.5t40.5 -8.5t36 -22t26.5 -38.5q-19 -8 -24 -27.5t-5 -64.5q-69 -41 -166.5 -60t-222 -30t-182.5 -22q-109 -24 -123 -78q16 -1 19 -14.5t-1 -29t0 -28.5t21 -12 q-21 -16 -18.5 -37.5t12 -41t-1.5 -50.5q30 -21 97.5 -24t84.5 -21q86 21 198 32t195 15t180.5 23.5t173.5 58.5q21 -1 42 -22.5t42 -22.5q-19 -27 -8 -70q6 -9 -0.5 -20t-16.5 -16.5t-12 -2.5q-2 -10 -3.5 -17t-2 -9.5t-1 -4t-1.5 -3.5l-2.5 -5t-5 -11t-8.5 -18 q-12 -2 -20 8.5t-23 6.5q-10 -12 -14.5 -24.5t-14.5 -24.5q-27 11 -106 -8t-111 -3q-23 -19 -53.5 -28t-51 -10t-61 -0.5t-55.5 0.5q-26 0 -95.5 -5t-94.5 -2q-20 2 -73 -8t-81 -8q-38 4 -113 24t-114 23q-32 90 -37 206t-4.5 242t-16.5 214q-4 0 -18 24q-2 4 -2 2 q-5 113 -39.5 250.5t-104.5 366.5q-8 26 -8.5 43.5zM373 1788q24 24 39 78q23 -17 60 -11.5t48 -7.5q5 0 11 6.5t16 4.5q-2 -28 47 -70q15 0 18 12q2 0 8.5 -8t18.5 -4q-14 -23 -32 -72t-39.5 -82.5t-57.5 -48.5q-31 11 -68 51t-63 52q18 82 -6 100zM750 1688q10 12 13 33 t3 37t11.5 28.5t37.5 13.5q10 13 9.5 34.5t2.5 37.5q21 3 21 -12q52 12 95 -16.5t52.5 -75t-18.5 -99.5h-19q-1 -19 -10.5 -36t-16 -23.5t-27 -22t-23.5 -18.5q-1 1 -8 7.5t-9 8t-8.5 6.5t-10 7t-10 5t-13 4.5t-13.5 2.5q0 14 -5 22.5t-7 16.5q-20 0 -21 -4q-7 6 -7.5 20 t-18.5 23z" />
<glyph unicode="&#xcc;" horiz-adv-x="569" d="M27 1858q7 9 32 24t31 31q17 4 37 2q13 -1 8 -16.5t10 -16.5q9 -1 19.5 9t25.5 7q25 1 41.5 -3.5t22.5 -10.5t7.5 -13.5t0 -13t-3.5 -8.5q5 -3 15 -14t17.5 -14.5t16.5 0.5q21 -21 26.5 -39t3 -33t-2.5 -32.5t15.5 -47t51.5 -67.5q0 -15 -8 -34.5t-24 -19.5 q-27 0 -48.5 4t-31 8t-33.5 15q-99 46 -161 122t-68 161zM180 25q-2 8 4 35t6 32q2 2 5 8.5t6 8.5q3 10 3.5 18t1 13t-1.5 13.5t-3 12.5t-6 17t-7 20q12 89 16 163.5t3.5 105t-7 107t-7.5 95.5q-1 13 3.5 41.5t4 64t-12.5 76.5q-3 137 15 301q-11 11 -16 36.5t-1 55.5 q4 20 3.5 57t0.5 52q6 49 17 70.5t33 21.5q13 -11 25 -15t18 -4t11.5 -7t10.5 -25q17 19 31 -22q18 -51 7 -94q-5 -22 -19 -26q39 -13 22 -24q-16 -17 -9.5 -38t15 -34.5t-11.5 -36.5q11 -11 22 -14q-9 -28 -7.5 -60t7.5 -57.5t3 -55t-21 -52.5q10 -9 12.5 -40t14.5 -40 q-13 -90 -3 -191t1 -204q15 -1 17.5 -14t-3.5 -27.5t-13 -26.5t-8 -12q17 -36 9 -61t-6 -33q1 -6 -3 -19t-1.5 -22.5t16.5 -16.5q2 -15 6 -38.5t9.5 -68t4.5 -57.5q-2 -37 -28 -63q-2 0 -6 -1t-5 -1q-22 3 -57.5 7t-58.5 7q-20 4 -38.5 23.5t-23.5 38.5z" />
<glyph unicode="&#xcd;" horiz-adv-x="569" d="M175 1569q-2 16 1.5 40t3.5 25q36 35 49.5 60t10 39.5t-8.5 26t-1.5 26.5t24.5 35q10 -4 28.5 15.5t36.5 6.5q-3 7 25 35h25h20q8 -20 19 -20q5 0 9.5 5t6.5 9.5t4 3.5q26 -4 39 -8q7 -2 29 4.5t28 5.5q2 -3 2 -22.5t6 -24.5q-6 -61 -39.5 -115t-89.5 -92 q-3 -3 -11.5 -2.5t-17 -3.5t-12.5 -19q-5 -11 -13 -16t-24 -8t-24 -6q-4 -1 -14 -5t-14 -5t-13 -3.5t-15 -3t-15.5 -1.5t-19.5 -0.5t-22 1.5q-11 1 -13 17zM180 25q-2 8 4 35t6 32q2 2 5 8.5t6 8.5q3 10 3.5 18t1 13t-1.5 13.5t-3 12.5t-6 17t-7 20q12 89 16 163.5t3.5 105 t-7 107t-7.5 95.5q-1 13 3.5 41.5t4 64t-12.5 76.5q-3 137 15 301q-11 11 -16 36.5t-1 55.5q4 20 3.5 57t0.5 52q6 49 17 70.5t33 21.5q13 -11 25 -15t18 -4t11.5 -7t10.5 -25q17 19 31 -22q18 -51 7 -94q-5 -22 -19 -26q39 -13 22 -24q-16 -17 -9.5 -38t15 -34.5 t-11.5 -36.5q11 -11 22 -14q-9 -28 -7.5 -60t7.5 -57.5t3 -55t-21 -52.5q10 -9 12.5 -40t14.5 -40q-13 -90 -3 -191t1 -204q15 -1 17.5 -14t-3.5 -27.5t-13 -26.5t-8 -12q17 -36 9 -61t-6 -33q1 -6 -3 -19t-1.5 -22.5t16.5 -16.5q2 -15 6 -38.5t9.5 -68t4.5 -57.5 q-2 -37 -28 -63q-2 0 -6 -1t-5 -1q-22 3 -57.5 7t-58.5 7q-20 4 -38.5 23.5t-23.5 38.5z" />
<glyph unicode="&#xce;" horiz-adv-x="569" d="M-25.5 1578.5q2.5 8.5 10 15t13.5 12t5 10.5t-13 8q-1 6 16 24.5t17 22.5q4 0 17 -4t20.5 -5.5t11.5 1.5q-2 7 -9.5 22.5t-11.5 16.5q1 4 11.5 21t20.5 40t13 45q6 2 14.5 -10t16.5 -14q-1 8 11 47.5t12 44.5q16 11 41 8t46 -12t59.5 -8.5t80.5 18.5q10 4 21 -5.5 t22 -26.5t16 -21q16 -34 42.5 -59t72 -52t51.5 -32q5 -6 7 -47.5t16 -43.5q-1 -11 -22.5 -21.5t-24.5 -17.5q-40 12 -87.5 52t-72.5 47q-7 28 -18 43.5t-30.5 20.5t-34 5t-45.5 -3.5t-46 -4.5q-35 -35 -48.5 -71t-17.5 -39q-18 -4 -30.5 -14t-18.5 -20t-16 -30 q-41 16 -50 -20q-38 10 -59.5 20.5t-26.5 19t-2.5 17zM180 25q-2 8 4 35t6 32q2 2 5 8.5t6 8.5q3 10 3.5 18t1 13t-1.5 13.5t-3 12.5t-6 17t-7 20q12 89 16 163.5t3.5 105t-7 107t-7.5 95.5q-1 13 3.5 41.5t4 64t-12.5 76.5q-3 137 15 301q-11 11 -16 36.5t-1 55.5 q4 20 3.5 57t0.5 52q6 49 17 70.5t33 21.5q13 -11 25 -15t18 -4t11.5 -7t10.5 -25q17 19 31 -22q18 -51 7 -94q-5 -22 -19 -26q39 -13 22 -24q-16 -17 -9.5 -38t15 -34.5t-11.5 -36.5q11 -11 22 -14q-9 -28 -7.5 -60t7.5 -57.5t3 -55t-21 -52.5q10 -9 12.5 -40t14.5 -40 q-13 -90 -3 -191t1 -204q15 -1 17.5 -14t-3.5 -27.5t-13 -26.5t-8 -12q17 -36 9 -61t-6 -33q1 -6 -3 -19t-1.5 -22.5t16.5 -16.5q2 -15 6 -38.5t9.5 -68t4.5 -57.5q-2 -37 -28 -63q-2 0 -6 -1t-5 -1q-22 3 -57.5 7t-58.5 7q-20 4 -38.5 23.5t-23.5 38.5z" />
<glyph unicode="&#xcf;" horiz-adv-x="569" d="M-25 1788q24 24 39 78q23 -17 60.5 -11.5t48.5 -7.5q5 0 11 6.5t16 4.5q-2 -28 47 -70q15 0 18 12q2 0 8.5 -8t18.5 -4q-14 -23 -32 -72t-39.5 -82.5t-57.5 -48.5q-31 11 -68 51t-63 52q18 82 -7 100zM180 25q-2 8 4 35t6 32q2 2 5 8.5t6 8.5q3 10 3.5 18t1 13t-1.5 13.5 t-3 12.5t-6 17t-7 20q12 89 16 163.5t3.5 105t-7 107t-7.5 95.5q-1 13 3.5 41.5t4 64t-12.5 76.5q-3 137 15 301q-11 11 -16 36.5t-1 55.5q4 20 3.5 57t0.5 52q6 49 17 70.5t33 21.5q13 -11 25 -15t18 -4t11.5 -7t10.5 -25q17 19 31 -22q18 -51 7 -94q-5 -22 -19 -26 q39 -13 22 -24q-16 -17 -9.5 -38t15 -34.5t-11.5 -36.5q11 -11 22 -14q-9 -28 -7.5 -60t7.5 -57.5t3 -55t-21 -52.5q10 -9 12.5 -40t14.5 -40q-13 -90 -3 -191t1 -204q15 -1 17.5 -14t-3.5 -27.5t-13 -26.5t-8 -12q17 -36 9 -61t-6 -33q1 -6 -3 -19t-1.5 -22.5t16.5 -16.5 q2 -15 6 -38.5t9.5 -68t4.5 -57.5q-2 -37 -28 -63q-2 0 -6 -1t-5 -1q-22 3 -57.5 7t-58.5 7q-20 4 -38.5 23.5t-23.5 38.5zM352 1688q10 12 13 33t3 37t12 28.5t38 13.5q10 13 9.5 34.5t2.5 37.5q21 3 21 -12q52 12 95 -16.5t52.5 -75t-18.5 -99.5h-19q-1 -19 -10.5 -35.5 t-16.5 -24t-27 -22.5l-24 -18q-2 2 -9.5 9t-10 9t-10 7.5t-12.5 7.5t-13 4.5t-16 3.5q0 14 -5.5 22.5t-7.5 16.5q-19 0 -20 -4q-7 5 -8 19.5t-19 23.5z" />
<glyph unicode="&#xd0;" horiz-adv-x="1478" d="M2 592q9 16 6 32.5t-2.5 38t4 41t24.5 41t60 39.5q48 0 60 -14q6 17 32.5 6.5t32.5 9.5q6 -2 10 6t7.5 16t19 7.5t41.5 -16.5q-17 54 -28.5 224t-32.5 232q-3 10 -5.5 13.5t-4.5 3t-4.5 -1.5t-7.5 2.5t-11 13.5q-4 -10 -21.5 -3.5t-29.5 3.5q-13 11 -21 20.5t-15 23 t-6 30t9 35.5q1 8 -9 19t-15 21t9 38q25 4 44.5 5.5t38.5 0.5t30.5 -2t36 -5t39.5 -6q8 -2 12 6t8 9q57 -10 134 -11t132 0.5t121 -15t119 -54.5q2 2 5.5 6.5t7.5 6.5t10 1q55 -50 202 -92q15 -19 71 -76t79 -92q-16 -29 -6 -49q163 -137 133 -211q15 4 21 -8t5 -30.5 t4.5 -39t18.5 -29.5q-2 -8 -10 -19t-10 -15q14 -12 10 -56.5t10 -56.5q2 -31 -8.5 -58.5t-22 -42.5t-16 -42t9.5 -56q-15 1 -26 -14t-25 -14q-11 -44 -41 -79.5t-62 -55t-71 -48.5t-61 -57q-30 -3 -61.5 -21t-54.5 -37t-58.5 -32t-75.5 -8q-9 -23 -53 -36t-54 -28 q-5 1 -11 7.5t-11 7.5q-22 -30 -49.5 -40.5t-51.5 -7.5t-46 5.5t-40.5 -9t-29.5 -45.5q-16 13 -27 16.5t-17.5 2.5t-25 -5t-39.5 -5q1 8 0.5 11t-3 7.5t-3.5 7.5q-12 -2 -27 -13t-24 -13q2 14 2 43q-3 -1 -18 -11t-33 -4q-10 23 -24.5 40.5t-21.5 25t-13 32t1 60.5 q18 -1 31 9.5t19 20t21.5 11.5t39.5 -16q6 2 13 13.5t11.5 14.5t18.5 -6q9 33 -2.5 124t-1.5 120q-12 15 -11.5 54.5t-2.5 75.5t-25 48q-25 3 -71 -2.5t-85.5 -11t-77.5 -4t-53 15.5zM406 1294q2 -93 15 -238.5t32 -230.5q14 4 20.5 0t7.5 -11.5t6 -13t15 -3.5q1 3 3 12 t4.5 14t6.5 8q5 -2 14.5 -7t14.5 -7q20 21 70.5 27t91.5 2l41 -4q16 -8 23.5 -22t12 -33t9.5 -29q-11 -26 -22.5 -42.5t-33 -27.5t-35.5 -15.5t-53.5 -14t-62.5 -15.5q-6 -10 -17.5 -16.5t-20 -9t-29 -6.5t-25.5 -5q-8 -25 -2.5 -69t22.5 -62q-8 -41 6 -156t15 -135 q19 7 132 42.5t169 66.5q29 16 65.5 38t81.5 51.5t61 39.5q63 40 107.5 120t30.5 150q17 34 8 82.5t-25.5 83t-37.5 82.5t-27 80q-26 32 -63 65t-63 53.5t-79.5 56t-70.5 45.5t-79 48q-40 7 -169 6t-170 0z" />
<glyph unicode="&#xd1;" horiz-adv-x="1478" d="M121 1397q29 -48 37.5 -98.5t2.5 -90t-8.5 -87t3.5 -89.5q9 -8 10 -21t-3.5 -25.5t-9.5 -31t-6 -32.5q-1 -24 12.5 -75t12.5 -73q-1 -9 -13 -28t-12 -27q0 -17 12.5 -44.5t12.5 -41.5q0 -8 -12 -25t-13 -22t1 -18.5t4.5 -30.5t3.5 -23q4 -46 -3 -117.5t-6 -107.5 q0 -34 -2 -92t-2 -104t4 -87q14 -26 50 -47t47 -39q19 8 44.5 1.5t35.5 -1.5q6 24 9 91t23 89q-18 50 -16 106.5t16 96.5q-13 21 -14 44t4.5 39.5t12 38t6.5 36.5q0 38 -14.5 118t-10.5 115q2 15 12.5 39t12.5 33q-1 6 -8 37.5t-9 46.5t-4.5 41.5t2 47t14.5 38.5 q3 -6 17.5 -10t23.5 -20t5 -54q14 -4 23.5 -10t15.5 -10.5t11.5 -15t8 -15.5t8 -21t8.5 -24q18 -24 120.5 -150.5t148.5 -202.5q30 -49 80.5 -105t90.5 -93t70 -74t29 -59q21 -2 40 -21.5t32.5 -42.5t35.5 -44t48 -25t71 14q-2 20 9 33.5t32 9.5q-17 184 -15.5 297t7 291 t0.5 288q25 57 38 130t21.5 172.5t16.5 150.5q-1 6 -5 11.5t-10.5 11t-9.5 8.5q5 3 8 8t6 17.5t3 13.5q-17 1 -19.5 12.5t1 25.5t-8.5 27q-23 2 -49 11t-43 16.5t-41.5 8t-50.5 -12.5q20 -98 19.5 -210t-12 -198.5t-28 -216t-22.5 -223.5q-20 -28 -21.5 -86.5t-2.5 -118.5 t-19 -88q-54 43 -138.5 144t-113.5 130q2 37 -18 74t-49 67.5t-57.5 59.5t-45.5 59t-11 56q-181 212 -307 448q-6 3 -39.5 19.5t-58 25t-49.5 11.5q5 -24 -4.5 -41t-23.5 -26.5t-15 -12.5zM393.5 1632.5q-3.5 20.5 3.5 53.5q3 15 9 27.5t10.5 17.5t9 9t4.5 5q-4 27 23 31 l10 -1q0 -1 -2 -1q17 44 57 4q-2 17 -2 18t-2.5 4.5t-3.5 5.5q6 4 24 10t31 15q1 0 8 -1.5t15 -3.5t19 -5.5t19 -8t15 -10t7.5 -12t-3.5 -14.5q11 -4 18 11t19 11q1 -2 18 -10t38.5 -21t33.5 -26t36 -12.5t42 -14.5q6 6 27 11.5t42 15.5t31 31q0 2 2.5 13t3.5 19.5t1 22.5 t-3 28q16 20 33 21t29 -9t27 -22t24 -14q1 -4 -12 -22q-5 -7 0 -7q5 -8 7.5 -16t3.5 -14.5t0 -14t-2 -13t-4 -12.5t-5 -11t-6 -10.5t-6 -9t-6.5 -7.5t-4.5 -6q8 -11 -3.5 -29.5t-27.5 -34.5t-16 -18q-3 -1 -16 -2.5t-25 -5t-16 -9.5q-8 -5 -15.5 -7.5t-21.5 -4.5t-27 -6 q3 6 0.5 14.5t-2.5 11.5q-10 -20 -20 -23.5t-17 3.5t-15.5 9.5t-16.5 -5.5q-30 -5 -51.5 3t-36.5 23.5t-30.5 31.5t-43.5 28.5t-66 13.5q-8 -8 -15.5 -13t-12.5 -7t-14 -5.5t-17 -6.5q0 -6 -19 -27t-22 -31q-4 -3 -14 -4.5t-22.5 1.5t-22 13.5t-13 31z" />
<glyph unicode="&#xd2;" horiz-adv-x="1593" d="M86 418q45 -148 92.5 -227.5t147.5 -157.5q21 6 36 0t29.5 -16.5t16.5 -10.5q6 -14 27.5 -23t35.5 1v-23q10 -3 36 0.5t41 0t11 -22.5q14 2 37 3t36.5 2t29 5.5t26.5 13.5q1 -5 14.5 -11t10.5 -20q35 4 96.5 20.5t116.5 16.5q5 28 33 34.5t77 4.5q3 3 6 11.5t7.5 13.5 t11.5 6q36 1 70 19.5t57 42t54.5 55.5t55.5 49q23 17 60.5 58t50.5 65q10 18 20.5 64.5t26.5 64.5q50 57 33 98q1 4 21 110l1 5l-8 5q-8 5 -8 9q4 22 5.5 43t1.5 34t-5 39t-7 34.5t-11.5 44t-12.5 45.5q-19 -12 -31.5 -5t-9.5 23h4t8.5 1t9.5 4.5t6 10.5t-1 19 q-4 21 -16 30.5t-15 11.5t4 30q-13 3 -26 -5q3 18 -2 35t-4 31q-17 4 -37 32.5t-23 31.5q4 33 -25.5 70.5t-77 83.5t-67.5 79q-12 -8 -24 -3.5t-20 15t-19 15t-23 -3.5q-4 8 -46 21.5t-46 21.5q-27 -2 -64 -13t-71 -4q-14 2 -37.5 -16t-30.5 -19q-1 20 -31 46.5t-34 39.5 q-7 -4 -16 -7q-6 -2 -8 -5.5t-4 -17.5q-2 -11 -3 -19q-10 19 -39 32t-53 15q-3 -3 -3 -15t-0.5 -23t-3 -18t-11 0t-23.5 30q-36 -17 -55.5 -30.5t-21.5 -18.5l-1 -5q-7 -2 -11.5 -4.5t-5.5 -6t-2 -6t1 -7t3 -6.5t4 -7l3 -4q-57 21 -127 -86q3 -1 10.5 -3t9.5 -5 q-30 -44 -55 -47q3 -25 -5 -42t-19.5 -24.5t-21 -19t-10 -25.5t12.5 -45q-9 -4 -29.5 -15t-33.5 -15q-2 -23 -31 -99.5t-18 -119.5q-21 -12 -27.5 -31t-3 -37t-0.5 -39q-2 -15 -16.5 -44.5t-16.5 -47.5q0 -7 8.5 -30t7.5 -38q-1 -18 -7.5 -47t-4 -45t20.5 -30q-1 -7 -12 -15 t-13 -16zM317 395q-28 183 10 381.5t132 341.5q2 3 16 7.5t17 7.5q6 9 12 33t10 28q9 10 48 36.5t48 47.5q20 -10 25.5 -18.5t2 -16t-8.5 -26.5t-4 -41q5 -11 20.5 -7.5t31 13.5t27 6.5t9.5 -29.5q30 8 58 28.5t49 37t51.5 28t79 5.5t116.5 -33q104 -94 167 -279.5 t54 -374.5q0 -8 -3.5 -14.5t-7 -9.5t-10.5 -8t-10 -7q-3 -39 -19 -74t-41 -63t-51.5 -53t-56 -55.5t-47.5 -59.5q-27 -4 -46.5 -13.5t-47.5 -34t-33 -27.5q-73 -25 -166 -32t-186.5 12.5t-142.5 66.5q-16 36 -52 99.5t-51 96.5zM537 1858q7 9 32 24t31 31q17 4 37 2 q13 -1 8 -16.5t10 -16.5q9 -1 19.5 9t25.5 7q25 1 41.5 -3.5t22.5 -10.5t7.5 -13.5t0 -13t-3.5 -8.5q4 -3 14.5 -14t18 -14.5t16.5 0.5q21 -21 26.5 -39t3 -33t-2.5 -32.5t15.5 -47t51.5 -67.5q0 -15 -8 -34.5t-24 -19.5q-27 0 -48.5 4t-31 8t-33.5 15q-99 46 -161 122 t-68 161z" />
<glyph unicode="&#xd3;" horiz-adv-x="1593" d="M86 418q45 -148 92.5 -227.5t147.5 -157.5q21 6 36 0t29.5 -16.5t16.5 -10.5q6 -14 27.5 -23t35.5 1v-23q10 -3 36 0.5t41 0t11 -22.5q14 2 37 3t36.5 2t29 5.5t26.5 13.5q1 -5 14.5 -11t10.5 -20q35 4 96.5 20.5t116.5 16.5q5 28 33 34.5t77 4.5q3 3 6 11.5t7.5 13.5 t11.5 6q36 1 70 19.5t57 42t54.5 55.5t55.5 49q23 17 60.5 58t50.5 65q10 18 20.5 64.5t26.5 64.5q50 57 33 98q1 4 21 110l1 5l-8 5q-8 5 -8 9q4 22 5.5 43t1.5 34t-5 39t-7 34.5t-11.5 44t-12.5 45.5q-19 -12 -31.5 -5t-9.5 23h4t8.5 1t9.5 4.5t6 10.5t-1 19 q-4 21 -16 30.5t-15 11.5t4 30q-13 3 -26 -5q3 18 -2 35t-4 31q-17 4 -37 32.5t-23 31.5q4 33 -25.5 70.5t-77 83.5t-67.5 79q-12 -8 -24 -3.5t-20 15t-19 15t-23 -3.5q-4 8 -46 21.5t-46 21.5q-27 -2 -64 -13t-71 -4q-14 2 -37.5 -16t-30.5 -19q-1 20 -31 46.5t-34 39.5 q-7 -4 -16 -7q-6 -2 -8 -5.5t-4 -17.5q-2 -11 -3 -19q-10 19 -39 32t-53 15q-3 -3 -3 -15t-0.5 -23t-3 -18t-11 0t-23.5 30q-36 -17 -55.5 -30.5t-21.5 -18.5l-1 -5q-7 -2 -11.5 -4.5t-5.5 -6t-2 -6t1 -7t3 -6.5t4 -7l3 -4q-57 21 -127 -86q3 -1 10.5 -3t9.5 -5 q-30 -44 -55 -47q3 -25 -5 -42t-19.5 -24.5t-21 -19t-10 -25.5t12.5 -45q-9 -4 -29.5 -15t-33.5 -15q-2 -23 -31 -99.5t-18 -119.5q-21 -12 -27.5 -31t-3 -37t-0.5 -39q-2 -15 -16.5 -44.5t-16.5 -47.5q0 -7 8.5 -30t7.5 -38q-1 -18 -7.5 -47t-4 -45t20.5 -30q-1 -7 -12 -15 t-13 -16zM317 395q-28 183 10 381.5t132 341.5q2 3 16 7.5t17 7.5q6 9 12 33t10 28q9 10 48 36.5t48 47.5q20 -10 25.5 -18.5t2 -16t-8.5 -26.5t-4 -41q5 -11 20.5 -7.5t31 13.5t27 6.5t9.5 -29.5q30 8 58 28.5t49 37t51.5 28t79 5.5t116.5 -33q104 -94 167 -279.5 t54 -374.5q0 -8 -3.5 -14.5t-7 -9.5t-10.5 -8t-10 -7q-3 -39 -19 -74t-41 -63t-51.5 -53t-56 -55.5t-47.5 -59.5q-27 -4 -46.5 -13.5t-47.5 -34t-33 -27.5q-73 -25 -166 -32t-186.5 12.5t-142.5 66.5q-16 36 -52 99.5t-51 96.5zM685 1569q-2 16 1.5 40t3.5 25q36 35 49.5 60 t10 39.5t-8.5 26t-1.5 26.5t24.5 35q10 -4 28.5 15.5t36.5 6.5q-3 7 25 35h25h20q8 -20 19 -20q5 0 9.5 5t6.5 9.5t4 3.5q26 -4 39 -8q7 -2 29 4.5t28 5.5q2 -3 2 -22.5t6 -24.5q-6 -61 -39.5 -115t-89.5 -92q-3 -3 -11.5 -2.5t-17 -3.5t-12.5 -19q-5 -11 -13 -16t-24 -8 t-24 -6q-4 -1 -14 -5t-14 -5t-13 -3.5t-15 -3t-15.5 -1.5t-19.5 -0.5t-22 1.5q-11 1 -13 17z" />
<glyph unicode="&#xd4;" horiz-adv-x="1593" d="M86 418q2 8 13 16t12 15q-18 14 -20.5 30t4 45t7.5 47q1 15 -7.5 38t-8.5 30q2 18 16.5 47.5t16.5 44.5q4 21 0.5 39t3 37t27.5 31q-11 43 18 119.5t31 99.5q13 4 33.5 15t29.5 15q-13 31 -12.5 45t10 25.5t21 19t19.5 24.5t5 42q25 3 55 47q-2 3 -9.5 5t-10.5 3 q70 107 127 86l-3 4q-3 5 -4 7t-3 6.5t-1 7t2 6t5.5 6t11.5 4.5q0 2 2 5.5t21 17.5t55 31q15 -23 23.5 -30t11 0t3 18t0.5 23t3 15q24 -2 53 -15t39 -32q1 8 3 19q4 20 8 22q1 0 4 1q9 3 16 7q4 -13 34 -39.5t31 -46.5q7 1 30.5 19t37.5 16q34 -7 71 4t64 13q4 -8 46 -21.5 t46 -21.5q12 8 23 3.5t19 -15t20 -15t24 3.5q20 -33 67.5 -79t77 -83.5t25.5 -70.5q3 -3 23 -31.5t37 -32.5q-1 -14 4 -31t2 -35q13 8 26 5q-7 -28 -4 -30t15 -11.5t16 -30.5q4 -17 -2.5 -26t-15.5 -9h-9q-3 -16 9.5 -23t31.5 5q3 -10 12.5 -45.5t11.5 -44t7 -34.5t5 -39 t-1.5 -34t-5.5 -43q0 -4 8 -9l8 -5l-5 -28q-12 -72 -17 -87q17 -41 -33 -98q-16 -18 -26.5 -64.5t-20.5 -64.5q-13 -24 -50.5 -65t-60.5 -58q-24 -17 -55.5 -49t-54.5 -55.5t-57 -42t-70 -19.5q-7 -1 -11.5 -6t-7.5 -13.5t-6 -11.5q-19 1 -37.5 0.5t-33.5 -3.5t-25.5 -12 t-13.5 -24q-55 0 -116.5 -16.5t-96.5 -20.5q3 14 -10.5 20t-14.5 11q-14 -11 -31.5 -15.5t-51 -5.5t-46.5 -3q4 19 -11 22.5t-41 0t-36 -0.5v23q-14 -10 -35.5 -1t-27.5 23q-2 0 -16.5 10.5t-29.5 16.5t-36 0q-100 78 -147.5 157.5t-92.5 227.5zM317 395q15 -33 51 -96.5 t52 -99.5q49 -47 142.5 -66.5t186.5 -12.5t166 32q9 7 27 22t29.5 24t30.5 17.5t40 11.5q18 29 47.5 59.5t56 55.5t51.5 53t41 63t19 74q3 2 10 7t10.5 8t7 9.5t3.5 14.5q9 189 -54 374.5t-167 279.5q-68 27 -116.5 33t-79 -5.5t-51.5 -28t-49 -37t-58 -28.5q2 26 -9.5 29.5 t-27 -6.5t-31 -13.5t-20.5 7.5q-1 18 2.5 34.5t7 24.5t4.5 15.5t-5.5 13.5t-23.5 14q-9 -21 -48 -47.5t-48 -36.5q-4 -4 -10 -28t-12 -33q-3 -3 -17 -7.5t-16 -7.5q-94 -143 -132 -341.5t-10 -381.5zM484.5 1578.5q2.5 8.5 10 15t13.5 12t5 10.5t-13 8q-1 6 15.5 24.5 t16.5 22.5q4 0 17 -4t21 -5.5t12 1.5q-2 7 -9.5 22.5t-11.5 16.5q1 4 11.5 21t20.5 40t13 45q6 2 14.5 -10t16.5 -14q-1 8 10.5 47.5t11.5 44.5q16 11 41.5 8t46.5 -12t59.5 -8.5t80.5 18.5q10 4 21 -5.5t22 -26.5t16 -21q16 -34 42.5 -59t72 -52t51.5 -32q5 -6 7 -47.5 t16 -43.5q-1 -11 -23 -21.5t-25 -17.5q-40 12 -87 52t-72 47q-7 28 -18 43.5t-30.5 20.5t-34 5t-45.5 -3.5t-46 -4.5q-35 -35 -48.5 -71t-17.5 -39q-18 -4 -30.5 -14t-18.5 -20t-16 -30q-41 16 -50 -20q-38 10 -59.5 20.5t-26.5 19t-2.5 17z" />
<glyph unicode="&#xd5;" horiz-adv-x="1593" d="M86 418q45 -148 92.5 -227.5t147.5 -157.5q21 6 36 0t29.5 -16.5t16.5 -10.5q6 -14 27.5 -23t35.5 1v-23q10 -3 36 0.5t41 0t11 -22.5q14 2 37 3t36.5 2t29 5.5t26.5 13.5q1 -5 14.5 -11t10.5 -20q35 4 96.5 20.5t116.5 16.5q5 28 33 34.5t77 4.5q3 3 6 11.5t7.5 13.5 t11.5 6q36 1 70 19.5t57 42t54.5 55.5t55.5 49q23 17 60.5 58t50.5 65q10 18 20.5 64.5t26.5 64.5q50 57 33 98q1 4 21 110l1 5l-8 5q-8 5 -8 9q4 22 5.5 43t1.5 34t-5 39t-7 34.5t-11.5 44t-12.5 45.5q-19 -12 -31.5 -5t-9.5 23h4t8.5 1t9.5 4.5t6 10.5t-1 19 q-4 21 -16 30.5t-15 11.5t4 30q-13 3 -26 -5q3 18 -2 35t-4 31q-17 4 -37 32.5t-23 31.5q4 33 -25.5 70.5t-77 83.5t-67.5 79q-12 -8 -24 -3.5t-20 15t-19 15t-23 -3.5q-4 8 -46 21.5t-46 21.5q-27 -2 -64 -13t-71 -4q-14 2 -37.5 -16t-30.5 -19q-1 20 -31 46.5t-34 39.5 q-7 -4 -16 -7q-6 -2 -8 -5.5t-4 -17.5q-2 -11 -3 -19q-10 19 -39 32t-53 15q-3 -3 -3 -15t-0.5 -23t-3 -18t-11 0t-23.5 30q-36 -17 -55.5 -30.5t-21.5 -18.5l-1 -5q-7 -2 -11.5 -4.5t-5.5 -6t-2 -6t1 -7t3 -6.5t4 -7l3 -4q-57 21 -127 -86q3 -1 10.5 -3t9.5 -5 q-30 -44 -55 -47q3 -25 -5 -42t-19.5 -24.5t-21 -19t-10 -25.5t12.5 -45q-9 -4 -29.5 -15t-33.5 -15q-2 -23 -31 -99.5t-18 -119.5q-21 -12 -27.5 -31t-3 -37t-0.5 -39q-2 -15 -16.5 -44.5t-16.5 -47.5q0 -7 8.5 -30t7.5 -38q-1 -18 -7.5 -47t-4 -45t20.5 -30q-1 -7 -12 -15 t-13 -16zM317 395q-28 183 10 381.5t132 341.5q2 3 16 7.5t17 7.5q6 9 12 33t10 28q9 10 48 36.5t48 47.5q20 -10 25.5 -18.5t2 -16t-8.5 -26.5t-4 -41q5 -11 20.5 -7.5t31 13.5t27 6.5t9.5 -29.5q30 8 58 28.5t49 37t51.5 28t79 5.5t116.5 -33q104 -94 167 -279.5 t54 -374.5q0 -8 -3.5 -14.5t-7 -9.5t-10.5 -8t-10 -7q-3 -39 -19 -74t-41 -63t-51.5 -53t-56 -55.5t-47.5 -59.5q-27 -4 -46.5 -13.5t-47.5 -34t-33 -27.5q-73 -25 -166 -32t-186.5 12.5t-142.5 66.5q-16 36 -52 99.5t-51 96.5zM451.5 1632.5q-3.5 20.5 3.5 53.5 q3 15 8.5 27.5t10 17.5t9 9t4.5 5q-4 27 23 31l10 -1q0 -1 -2 -1q17 44 57 4q-2 17 -2 18t-2.5 4.5t-3.5 5.5q7 4 25 10t31 15q1 0 8 -1.5t15 -3.5t18.5 -5.5t18.5 -8t15 -10t7.5 -12t-3.5 -14.5q11 -4 18 11t19 11q1 -2 18 -10t38.5 -21t33.5 -26t36 -12.5t42 -14.5 q6 6 27.5 11.5t42.5 15.5t31 31q0 2 2.5 13t3.5 19.5t1 22.5t-3 28q16 20 33 21t29 -9t26.5 -22t23.5 -14q1 -4 -12 -22q-5 -7 0 -7q11 -19 12.5 -36.5t-7.5 -35.5t-12 -22.5t-15 -19.5q8 -11 -4 -29.5t-28 -34.5t-16 -18q-3 -1 -16 -2.5t-25 -5t-16 -9.5q-8 -5 -15.5 -7.5 t-21 -4.5t-26.5 -6q3 6 0.5 14.5t-2.5 11.5q-13 -25 -26 -24t-22 11t-22 -3q-30 -5 -51.5 3t-36 23.5t-30 31.5t-43.5 28.5t-66 13.5q-10 -10 -18 -15t-21 -9.5t-21 -7.5q0 -6 -19 -27t-22 -31q-4 -3 -14 -4.5t-22 1.5t-21.5 13.5t-13 31z" />
<glyph unicode="&#xd6;" horiz-adv-x="1593" d="M86 418q2 8 13 16t12 15q-18 14 -20.5 30t4 45t7.5 47q1 15 -7.5 38t-8.5 30q2 18 16.5 47.5t16.5 44.5q4 21 0.5 39t3 37t27.5 31q-11 43 18 119.5t31 99.5q13 4 33.5 15t29.5 15q-13 31 -12.5 45t10 25.5t21 19t19.5 24.5t5 42q25 3 55 47q-2 3 -9.5 5t-10.5 3 q70 107 127 86l-3 4q-3 5 -4 7t-3 6.5t-1 7t2 6t5.5 6t11.5 4.5q0 2 2 5.5t21 17.5t55 31q15 -23 23.5 -30t11 0t3 18t0.5 23t3 15q24 -2 53 -15t39 -32q1 8 3 19q4 20 8 22q1 0 4 1q9 3 16 7q4 -13 34 -39.5t31 -46.5q7 1 30.5 19t37.5 16q34 -7 71 4t64 13q4 -8 46 -21.5 t46 -21.5q12 8 23 3.5t19 -15t20 -15t24 3.5q20 -33 67.5 -79t77 -83.5t25.5 -70.5q3 -3 23 -31.5t37 -32.5q-1 -14 4 -31t2 -35q13 8 26 5q-7 -28 -4 -30t15 -11.5t16 -30.5q4 -17 -2.5 -26t-15.5 -9h-9q-3 -16 9.5 -23t31.5 5q3 -10 12.5 -45.5t11.5 -44t7 -34.5t5 -39 t-1.5 -34t-5.5 -43q0 -4 8 -9l8 -5l-5 -28q-12 -72 -17 -87q17 -41 -33 -98q-16 -18 -26.5 -64.5t-20.5 -64.5q-13 -24 -50.5 -65t-60.5 -58q-24 -17 -55.5 -49t-54.5 -55.5t-57 -42t-70 -19.5q-7 -1 -11.5 -6t-7.5 -13.5t-6 -11.5q-19 1 -37.5 0.5t-33.5 -3.5t-25.5 -12 t-13.5 -24q-55 0 -116.5 -16.5t-96.5 -20.5q3 14 -10.5 20t-14.5 11q-14 -11 -31.5 -15.5t-51 -5.5t-46.5 -3q4 19 -11 22.5t-41 0t-36 -0.5v23q-14 -10 -35.5 -1t-27.5 23q-2 0 -16.5 10.5t-29.5 16.5t-36 0q-100 78 -147.5 157.5t-92.5 227.5zM317 395q15 -33 51 -96.5 t52 -99.5q49 -47 142.5 -66.5t186.5 -12.5t166 32q9 7 27 22t29.5 24t30.5 17.5t40 11.5q18 29 47.5 59.5t56 55.5t51.5 53t41 63t19 74q3 2 10 7t10.5 8t7 9.5t3.5 14.5q9 189 -54 374.5t-167 279.5q-68 27 -116.5 33t-79 -5.5t-51.5 -28t-49 -37t-58 -28.5q2 26 -9.5 29.5 t-27 -6.5t-31 -13.5t-20.5 7.5q-1 18 2.5 34.5t7 24.5t4.5 15.5t-5.5 13.5t-23.5 14q-9 -21 -48 -47.5t-48 -36.5q-4 -4 -10 -28t-12 -33q-3 -3 -17 -7.5t-16 -7.5q-94 -143 -132 -341.5t-10 -381.5zM485 1788q24 24 39 78q23 -17 60.5 -11.5t48.5 -7.5q5 0 10.5 6.5 t15.5 4.5q-2 -27 48 -70q15 0 18 12q2 0 8.5 -8t18.5 -4q-14 -23 -32 -72t-39.5 -82.5t-57.5 -48.5q-31 11 -68 51t-63 52q18 82 -7 100zM862 1688q10 12 13 33t3 37t12 28.5t38 13.5q10 13 9.5 34.5t2.5 37.5q21 3 21 -12q52 12 95 -16.5t52.5 -75t-18.5 -99.5h-19 q-1 -19 -10.5 -35.5t-16.5 -24t-27 -22.5l-24 -18q-2 2 -9.5 9t-10 9t-10 7.5t-12.5 7.5t-13 4.5t-16 3.5q0 14 -5.5 22.5t-7.5 16.5q-19 0 -20 -4q-7 5 -8 19.5t-19 23.5z" />
<glyph unicode="&#xd7;" horiz-adv-x="1196" d="M94 1134q0 19 4 40q36 8 95 -19t63 -63q68 -16 119.5 -54t62.5 -90q10 -2 24 5t25 6.5t21 -17.5q-9 -15 3.5 -26.5t34 -22t27.5 -19.5q209 223 385 353q23 -4 41 -20.5t27.5 -33.5t26.5 -28t41 -6q-4 -25 8 -25q-55 -71 -99.5 -117t-101.5 -79q-11 -35 -45 -65t-66 -48.5 t-54 -52.5t-15 -80q7 -11 24 -21.5t31 -9.5q7 -14 21 -46.5t22.5 -49t25.5 -31.5t38 -14q16 -37 43 -63t60.5 -52t53.5 -51q3 -18 -14 -84q-10 -4 -15.5 -4.5t-8 0t-8.5 5t-11 7.5q-5 -26 -22 -32.5t-43 -2.5t-35 2q-25 37 -78 87t-94.5 97t-55.5 91q-28 17 -43 33.5 t-37 27.5q-22 -31 -74 -78.5t-69 -66.5q12 -22 3 -41t-23 -29t-31.5 -25t-22.5 -30q-18 6 -41.5 -9.5t-49.5 -34t-48 -18.5q-5 2 -4.5 18t0 30t-7.5 14q-21 3 -28.5 -5t-24.5 -5q0 4 -3.5 5t-11 1.5t-10.5 1.5q-2 20 4.5 38t12.5 27.5t3.5 19t-20.5 17.5q8 23 20 41.5 t31.5 36t32 27.5t41.5 29.5t41 27.5q2 31 24.5 55t48 37t46.5 35.5t20 50.5q-1 40 -112.5 120.5t-149.5 84.5q-7 14 -18.5 33.5t-18.5 32.5t-15.5 30.5t-13.5 32t-8.5 32.5t-3.5 37z" />
<glyph unicode="&#xd8;" horiz-adv-x="1593" d="M51 76.5q11 53.5 58 107.5q13 -3 26.5 1.5t18.5 4.5q-9 9 -9 29q29 18 43.5 33.5t18 29t-2.5 32t-15 35t-22.5 46.5t-21.5 60q-1 47 -12 107.5t-19.5 99.5t-10.5 94t14 92q0 1 -1 7.5t-1.5 8.5t-4.5 2.5t-10 -4.5q-9 26 9 66t14 59h22q1 27 8 49t22 51t22 46 q-1 4 -7 16.5t-6 19.5q12 13 57 86t78 103q4 0 5.5 -2t2.5 -7t1 -6q10 9 18 26.5t16.5 25.5t24.5 4q0 11 10 28.5t29 28.5q12 -13 22 -13.5t16.5 5.5t19 13t26.5 7q1 18 15.5 26t30.5 7.5t37.5 -2.5t27.5 -2q1 2 3.5 11.5t7 18.5t11.5 15q19 -5 36.5 -1.5t35 2t26.5 -14.5 q14 -2 22.5 10t22.5 10l22 -9q21 -9 21 -15q79 12 150 -12.5t113 -75.5q4 0 5.5 -3t1 -7t-2 -8t-3.5 -9.5t-4 -9t-4 -7.5l-2 -3q8 5 26 1.5t34 -1.5q14 -14 66.5 -74.5t76.5 -79.5q7 5 20 17.5t24 21.5t24.5 16.5t27 6.5t25.5 -11q7 -1 8.5 6t-0.5 15.5t0 15.5 q6 1 12.5 -3.5t10.5 -4.5q0 8 4.5 15.5t8.5 11t16 12.5l16 12q24 3 49.5 -10t42.5 -13q0 -2 0.5 -9.5t1 -10t3 -8.5t6 -8.5t10.5 -4.5t16 -2q-4 -27 -21 -47.5t-35.5 -32t-40 -29t-32.5 -36.5q-40 -2 -81 -34.5t-54 -76.5q7 3 9.5 -1.5t3 -11.5t6 -12t17.5 -3 q-7 -30 11.5 -70t19.5 -47q2 -8 -6 -16.5t-8 -12.5q0 -7 11 -25t11 -26q-7 -182 0 -321q-6 -26 -19 -41t-24.5 -17.5t-27 -4t-19.5 -3.5q5 -8 9 -13t8.5 -8t7.5 -4.5t9.5 -3.5t10.5 -4q-3 -43 -23 -79t-44 -58.5t-53.5 -56t-45.5 -66.5q-15 -10 -49.5 -29t-55.5 -33.5 t-32 -31.5q-8 -1 -17.5 4.5t-19.5 3.5q-27 -34 -68.5 -46t-89 -20.5t-77.5 -29.5q-8 5 -19 8.5t-18 14.5q-40 -21 -88.5 -12.5t-63.5 40.5q-12 -6 -24 -6.5t-19 2.5t-19.5 9.5t-19.5 9.5q-10 5 -29.5 1.5t-23.5 -1.5q-17 7 -38 20.5t-32.5 19.5t-32.5 3t-48 -21 q-20 -14 -48 -40.5t-48 -46t-50.5 -35.5t-62.5 -17q5 20 -2.5 25t-30.5 6h-8q-18 -4 -22.5 6.5t0.5 23.5t10 13q-26 43 -15 96.5zM272.5 710q6.5 -71 19.5 -127.5t36 -121.5q9 -4 15.5 -9.5t9.5 -10.5t4.5 -11.5t1.5 -10t-1 -8.5v-5q38 17 69.5 48.5t53.5 65t44 66 t52.5 58.5t67.5 36v37q9 6 68 37q0 21 19.5 39t25.5 32q25 13 48.5 36t39 42.5t39 37t49.5 22.5q-5 22 1.5 31.5t14.5 8.5t13 -4q-14 14 11 19q39 7 41 8q9 4 7 12q-12 9 -10.5 18.5t11.5 17t18.5 16.5t10 16t-13.5 16q43 34 54 25q-2 24 -25.5 44.5l-47 41t-26.5 45.5 q-52 48 -119.5 63.5t-133 2.5t-131.5 -44t-120 -73t-94 -88q-10 0 -22 8q-6 -20 -18.5 -42t-20.5 -34t-12.5 -32.5t6.5 -37.5q-34 -72 -48 -146t-7.5 -145zM504 197q107 -93 155 -58q24 -9 74.5 -10t63.5 -4q110 82 196 125q34 17 64.5 56.5t65 96t59.5 86.5q2 0 3.5 2t1 4 t-4.5 3q-5 -2 5 24q3 11 13 34l12 30q10 38 13 83t1 76t-7 91t-7 92q-29 4 -53.5 -11t-39.5 -36.5t-39 -43t-50 -26.5q-17 -29 -56 -61.5t-56 -57.5q5 0 7 -6.5t0.5 -15t-7.5 -13.5q-7 -8 -17 -12t-27.5 -6.5t-23.5 -3.5q-10 -17 -33.5 -46.5t-37.5 -53.5t-17 -48 q-18 -12 -39 -2q-23 -41 -46 -62t-54 -44t-60 -57q12 -12 39.5 -21t38.5 -4q2 -6 -15 -18.5t-36 -27t-19 -24.5q-13 -9 -33.5 -13t-33.5 -17z" />
<glyph unicode="&#xd9;" horiz-adv-x="1478" d="M135 998.5q-5 -124.5 5 -227t48 -185.5q-5 -5 -20 -48.5t-16 -62.5q9 -9 20.5 -31t17.5 -30q1 -40 20.5 -112.5t16.5 -108.5q12 -15 34.5 -47.5t41.5 -56.5t44 -50t54.5 -41.5t61.5 -17.5q-4 -14 10.5 -21.5t34.5 -9.5t39.5 -9.5t23.5 -21.5q10 3 66.5 17t96 26t73.5 27 q4 5 5 7.5t-0.5 4t-3 6t-1.5 10.5q52 18 97 79t72 127.5t62.5 141t65.5 107.5q-1 -9 6 -54t3 -91.5t-28 -81.5q11 -35 16 -108t23.5 -113t71.5 -52q26 6 38 5t38.5 -9t36.5 -10q32 31 40.5 65.5t-3.5 106.5q-26 21 -33.5 51.5t-1 59.5t9 63.5t-3.5 63.5q-8 26 -12.5 60.5 t-8 95t-4.5 71.5q-5 69 -14.5 177t-15.5 187t-7 142q9 1 27 19.5t21 27.5q-9 69 -5.5 117.5t-0.5 108t-25 108.5q-15 2 -67 13.5t-84 10.5t-54 -20q-9 -150 -13 -216t-16.5 -177t-29.5 -195q-61 -306 -158 -508q-7 -15 -48 -50.5t-48 -45.5q-13 -18 -36.5 -60.5t-41 -70.5 t-50 -52t-71.5 -24q-3 8 -14 8q-104 110 -154 350q-31 161 -37 306q-6 130 20.5 368t16.5 340q-15 -1 -34.5 5t-34.5 12t-39 3t-52 -20q3 18 -1.5 20.5t-16.5 -2t-19 -3.5q-9 -42 -18 -148t-35 -158q3 -44 -2 -168.5zM479 1858q7 9 32.5 24t31.5 31q17 4 37 2q13 -1 8 -16.5 t10 -16.5q9 -1 19.5 9t25.5 7q25 1 41.5 -3.5t22.5 -10.5t7.5 -13.5t0 -13t-3.5 -8.5q4 -3 14.5 -14t18 -14.5t16.5 0.5q21 -21 26.5 -39t3 -33t-2.5 -32.5t15.5 -47t51.5 -67.5q0 -15 -8.5 -34.5t-24.5 -19.5q-27 0 -48.5 4t-30 8t-33.5 15q-99 46 -161.5 122t-68.5 161z " />
<glyph unicode="&#xda;" horiz-adv-x="1478" d="M135 998.5q-5 -124.5 5 -227t48 -185.5q-5 -5 -20 -48.5t-16 -62.5q9 -9 20.5 -31t17.5 -30q1 -40 20.5 -112.5t16.5 -108.5q12 -15 34.5 -47.5t41.5 -56.5t44 -50t54.5 -41.5t61.5 -17.5q-4 -14 10.5 -21.5t34.5 -9.5t39.5 -9.5t23.5 -21.5q10 3 66.5 17t96 26t73.5 27 q4 5 5 7.5t-0.5 4t-3 6t-1.5 10.5q52 18 97 79t72 127.5t62.5 141t65.5 107.5q-1 -9 6 -54t3 -91.5t-28 -81.5q11 -35 16 -108t23.5 -113t71.5 -52q26 6 38 5t38.5 -9t36.5 -10q32 31 40.5 65.5t-3.5 106.5q-26 21 -33.5 51.5t-1 59.5t9 63.5t-3.5 63.5q-8 26 -12.5 60.5 t-8 95t-4.5 71.5q-5 69 -14.5 177t-15.5 187t-7 142q9 1 27 19.5t21 27.5q-9 69 -5.5 117.5t-0.5 108t-25 108.5q-15 2 -67 13.5t-84 10.5t-54 -20q-9 -150 -13 -216t-16.5 -177t-29.5 -195q-61 -306 -158 -508q-7 -15 -48 -50.5t-48 -45.5q-13 -18 -36.5 -60.5t-41 -70.5 t-50 -52t-71.5 -24q-3 8 -14 8q-104 110 -154 350q-31 161 -37 306q-6 130 20.5 368t16.5 340q-15 -1 -34.5 5t-34.5 12t-39 3t-52 -20q3 18 -1.5 20.5t-16.5 -2t-19 -3.5q-9 -42 -18 -148t-35 -158q3 -44 -2 -168.5zM628 1569q-2 16 1.5 40t3.5 25q36 35 49.5 60t10 39.5 t-8.5 26t-1.5 26.5t24.5 35q10 -4 28.5 15.5t36.5 6.5q-3 7 25 35h24h21q8 -20 18 -20q5 0 9.5 5t7 9.5t4.5 3.5q26 -4 39 -8q7 -2 29 4.5t28 5.5q3 -3 3 -22.5t5 -24.5q-6 -61 -39.5 -115t-89.5 -92q-3 -3 -11.5 -2.5t-17 -3.5t-12.5 -19q-5 -11 -13 -16t-24 -8t-24 -6 q-4 -1 -14 -5t-14 -5t-13 -3.5t-15 -3t-15.5 -1.5t-19.5 -0.5t-22 1.5q-11 1 -13 17z" />
<glyph unicode="&#xdb;" horiz-adv-x="1478" d="M135 998.5q5 124.5 2 168.5q26 52 35 158t18 148q7 -1 19 3.5t16.5 2t1.5 -20.5q28 17 52 20t39 -3t34.5 -12t34.5 -5q10 -102 -16.5 -340t-20.5 -368q6 -145 37 -306q50 -240 154 -350q11 0 14 -8q39 0 71.5 24t50 52t41 70.5t36.5 60.5q7 10 48 45.5t48 50.5 q97 202 158 508q17 84 29.5 195t16.5 177t13 216q22 19 54 20t84 -10.5t67 -13.5q21 -49 25 -108.5t0.5 -108t5.5 -117.5q-3 -9 -21 -27.5t-27 -19.5q1 -63 7 -142t15.5 -187t14.5 -177q1 -18 3.5 -57t4.5 -64t6.5 -55.5t10.5 -50.5q6 -29 3.5 -63.5t-9 -63.5t1 -59.5 t33.5 -51.5q12 -72 3.5 -106.5t-40.5 -65.5q-10 2 -36.5 10t-38.5 9t-38 -5q-53 12 -71.5 52t-23.5 113t-16 108q24 35 28 81.5t-3 91.5t-6 54q-30 -33 -65.5 -107.5t-62.5 -141t-72 -127.5t-97 -79q0 -6 1.5 -10.5t3 -6t0.5 -4t-5 -7.5q-34 -15 -73.5 -27t-96 -26 t-66.5 -17q-4 14 -23.5 21.5t-39.5 9.5t-34.5 9.5t-10.5 21.5q-32 2 -61.5 17.5t-54.5 41.5t-44 50t-41.5 56.5t-34.5 47.5q3 36 -16.5 108.5t-20.5 112.5q-6 8 -17.5 30t-20.5 31q1 19 16 62.5t20 48.5q-38 83 -48 185.5t-5 227zM427.5 1578.5q2.5 8.5 9.5 15t13 12t5 10.5 t-13 8q-1 6 16 24.5t17 22.5q4 0 17 -4t20.5 -5.5t11.5 1.5q-2 8 -9 23t-11 16q1 4 11.5 21t20.5 40t13 45q6 2 14.5 -10t16.5 -14q-1 8 10.5 47.5t11.5 44.5q16 11 41 8t46 -12t59.5 -8.5t80.5 18.5q10 4 21 -5.5t22.5 -26.5t16.5 -21q16 -34 42.5 -59t72 -52t51.5 -32 q6 -6 7 -47.5t15 -43.5q-1 -11 -22.5 -21.5t-24.5 -17.5q-40 12 -87.5 52t-72.5 47q-7 28 -18 43.5t-30.5 20.5t-34 5t-45.5 -3.5t-46 -4.5q-35 -35 -48 -71t-17 -39q-25 -5 -38.5 -20t-27.5 -44q-40 16 -49 -20q-38 10 -59.5 20.5t-26.5 19t-2.5 17z" />
<glyph unicode="&#xdc;" horiz-adv-x="1478" d="M135 998.5q5 124.5 2 168.5q26 52 35 158t18 148q7 -1 19 3.5t16.5 2t1.5 -20.5q28 17 52 20t39 -3t34.5 -12t34.5 -5q10 -102 -16.5 -340t-20.5 -368q6 -145 37 -306q50 -240 154 -350q11 0 14 -8q39 0 71.5 24t50 52t41 70.5t36.5 60.5q7 10 48 45.5t48 50.5 q97 202 158 508q17 84 29.5 195t16.5 177t13 216q22 19 54 20t84 -10.5t67 -13.5q21 -49 25 -108.5t0.5 -108t5.5 -117.5q-3 -9 -21 -27.5t-27 -19.5q1 -63 7 -142t15.5 -187t14.5 -177q1 -18 3.5 -57t4.5 -64t6.5 -55.5t10.5 -50.5q6 -29 3.5 -63.5t-9 -63.5t1 -59.5 t33.5 -51.5q12 -72 3.5 -106.5t-40.5 -65.5q-10 2 -36.5 10t-38.5 9t-38 -5q-53 12 -71.5 52t-23.5 113t-16 108q24 35 28 81.5t-3 91.5t-6 54q-30 -33 -65.5 -107.5t-62.5 -141t-72 -127.5t-97 -79q0 -6 1.5 -10.5t3 -6t0.5 -4t-5 -7.5q-34 -15 -73.5 -27t-96 -26 t-66.5 -17q-4 14 -23.5 21.5t-39.5 9.5t-34.5 9.5t-10.5 21.5q-32 2 -61.5 17.5t-54.5 41.5t-44 50t-41.5 56.5t-34.5 47.5q3 36 -16.5 108.5t-20.5 112.5q-6 8 -17.5 30t-20.5 31q1 19 16 62.5t20 48.5q-38 83 -48 185.5t-5 227zM428 1788q24 24 39 78q23 -17 60 -11.5 t48 -7.5q5 0 11 6.5t16 4.5q-2 -28 47 -70q16 0 19 12q3 -1 8.5 -8t17.5 -4q-14 -23 -32 -72t-39.5 -82.5t-57.5 -48.5q-31 11 -68 51t-63 52q18 82 -6 100zM805 1688q10 12 13 33t3 37t11.5 28.5t37.5 13.5q10 13 10 38t3 34q20 3 20 -12q52 12 95 -16.5t52.5 -75 t-18.5 -99.5h-18q-1 -19 -10.5 -35.5t-16.5 -24t-27 -22.5l-24 -18q-1 1 -8 7.5t-9 8t-8.5 6.5t-10 7t-10 5t-13 4.5t-13.5 2.5q0 14 -5 22.5t-7 16.5q-20 0 -21 -4q-7 6 -7.5 20t-18.5 23z" />
<glyph unicode="&#xdd;" horiz-adv-x="1366" d="M23 1520q-2 -24 6 -50t14.5 -39t26 -41t20.5 -30q54 -86 133.5 -189t123 -154.5t147.5 -170.5q22 -50 63.5 -96t104 -100.5t79.5 -71.5q-12 -26 -34 -61t-33.5 -60t-11.5 -49q-3 1 -6.5 2t-5.5 1.5t-5.5 0t-7.5 -3.5q-3 -29 -30.5 -76t-20.5 -84q-50 -38 -75 -76t-38 -88 q-3 -3 -29 -20t-28 -35q54 -21 84 -82q14 3 35.5 10t29 7.5t35.5 -3.5q10 9 21 31t25 35.5t38 15.5q0 22 15.5 34t21.5 25q19 42 71 140t74 149q7 16 30.5 44.5t29.5 45.5q2 5 0 17.5t0 17.5q16 52 79 152.5t72 122.5q3 6 0.5 24.5t-0.5 24.5q16 46 53.5 107.5t72.5 110.5 t65.5 111.5t36.5 116.5q1 12 5 40.5t4.5 45.5t0 41t-8 44.5t-20.5 39.5q-15 0 -34.5 6.5t-45.5 3.5q-4 -39 -39.5 -110t-40.5 -90q-1 -6 -39.5 -40t-39.5 -55v-28t-1.5 -25.5t-11 -21.5t-26.5 -15q9 -27 3 -38.5t-17.5 -36t-10.5 -50.5h-25q-8 -17 -25 -55.5t-29.5 -64 t-35 -59.5t-49.5 -60q-27 13 -54 41t-46.5 55t-46.5 55t-54 41q-28 52 -104.5 146t-107.5 159q-29 14 -49.5 38.5t-30 50.5t-21.5 55.5t-24 52.5t-36 41.5t-58.5 24t-92.5 -1.5q1 10 -10.5 11t-32 -3t-28.5 -4zM573 1569q-2 16 1.5 40t3.5 25q36 35 49.5 60t10 39.5t-9 26 t-2 26.5t24.5 35q10 -4 29 15.5t37 6.5q-4 7 24 35h25h20q8 -20 19 -20q5 0 9.5 5t6.5 9.5t4 3.5q26 -4 39 -8q7 -2 29.5 4.5t28.5 5.5q2 -3 2 -22.5t6 -24.5q-6 -61 -39.5 -115t-89.5 -92q-3 -3 -11.5 -2.5t-17 -3.5t-12.5 -19q-5 -11 -13 -16t-24.5 -8t-24.5 -6 q-3 -1 -16 -5.5t-16.5 -5.5t-14.5 -4t-18.5 -3h-20t-26.5 1q-11 1 -13 17z" />
<glyph unicode="&#xde;" horiz-adv-x="1366" d="M127 586q30 56 42.5 104.5t4.5 103t-41 109.5q20 19 23 45t-4.5 48t-11.5 48t3 46q24 35 24 79t-12 88.5t-14 109t19 140.5q15 -1 42 -2t35.5 -1.5t25.5 -2t22 -4.5t15 -7t14.5 -11.5t11 -17t12.5 -23.5q-3 -6 -7 -36t-16 -36q-10 -1 6 -28q23 -39 23 -56 q-2 -13 -11.5 -29.5t-8.5 -38.5q17 18 26 11t6 -33q-2 -8 -6.5 -20t-7 -19.5t-1.5 -16t7 -14.5q16 9 85 35.5t93 52.5q11 3 18.5 -8t18.5 -8q532 69 717 -262q-3 -20 -2.5 -26t4 -21t4.5 -29q-3 1 -5 -4t-4 -11t-4 -11t-5 -5q16 -29 14 -54t-10 -37t-20.5 -34t-16.5 -45 q-78 -43 -98 -112q-7 0 -15.5 4.5t-15.5 3.5q-124 -130 -317 -208t-386 -89q6 -28 6 -91.5t8 -111.5t36 -71q-17 -12 -42 -40.5t-51 -39.5q-45 -10 -90 -10.5t-71 25.5t-11 73q3 10 -8.5 76t-11.5 71q-1 13 13.5 39t15.5 39q6 31 0 67t-33 58q-1 29 11 49.5t24 24.5 q-45 47 -72 174zM353 542q6 -28 23 -27q2 0 5 1q7 -7 12.5 -17.5t5.5 -28t-12 -32.5q42 -18 112.5 2t102.5 15q4 13 12.5 16t19 1t13.5 -1q13 3 35.5 25t34.5 30q48 30 90 21q39 33 53 49q11 10 42 21t42 18q24 17 36.5 34t22 36t17.5 30q6 6 24 20t23 21q36 48 24.5 95.5 t-49.5 84.5t-86 52q-63 19 -141.5 20t-114.5 -4q-55 -2 -109.5 -15.5t-116.5 -35t-97 -29.5q-21 -43 -23.5 -66t2.5 -90q12 -2 17 -7.5t10 -17t12 -20.5q-14 -21 -17 -29t2.5 -21t6.5 -25q-45 -70 -34 -126z" />
</font>
</defs>
</svg>
